ISO-10303-21;
HEADER;
/* Generated by software containing ST-Developer
 * from STEP Tools, Inc. (www.steptools.com) 
 */
/* OPTION: using custom renumber hook */

FILE_DESCRIPTION(
/* description */ ('STEP AP242 Edition 2',
'CAx-IF Rec.Pracs.---Representation and Presentation of Product Manufa
cturing Information (PMI)---4.0---2014-10-13',
'CAx-IF Rec.Pracs.---3D Tessellated Geometry---0.4---2014-09-14','2;1',
'CAx-IF Rec.Pracs.---User Defined Attributes---1.5---2016-08-15'),
/* implementation_level */ '2;1');

FILE_NAME(
/* name */ 'pcb main parts',
/* time_stamp */ '2026-09-23T20:47:42Z',
/* author */ (''),
/* organization */ (''),
/* preprocessor_version */ 'ST-DEVELOPER v20',
/* originating_system */ 'ONSHAPE BY PTC INC, 1.221',
/* authorisation */ '  ');

FILE_SCHEMA (('AP242_MANAGED_MODEL_BASED_3D_ENGINEERING_MIM_LF { 1 0 10303 442 3 1 4 }'));
ENDSEC;

DATA;
#10=ORIENTED_CLOSED_SHELL('',*,#740,.F.);
#11=BREP_WITH_VOIDS('Part 35',#739,(#10));
#12=SHAPE_REPRESENTATION_RELATIONSHIP('','',#760,#14);
#13=SHAPE_REPRESENTATION_RELATIONSHIP('','',#761,#15);
#14=ADVANCED_BREP_SHAPE_REPRESENTATION('',(#757),#1230);
#15=ADVANCED_BREP_SHAPE_REPRESENTATION('',(#11),#1231);
#16=CIRCLE('',#765,0.00529843241620918);
#17=CIRCLE('',#766,0.00529843241620918);
#18=CIRCLE('',#768,0.00529668879390117);
#19=CIRCLE('',#769,0.00529668879390117);
#20=CIRCLE('',#771,0.0053035042517057);
#21=CIRCLE('',#772,0.0053035042517057);
#22=CIRCLE('',#774,0.00529970156738238);
#23=CIRCLE('',#775,0.00529970156738238);
#24=CIRCLE('',#783,0.00329970156738238);
#25=CIRCLE('',#784,0.00330350425170569);
#26=CIRCLE('',#785,0.00329668879390117);
#27=CIRCLE('',#786,0.0053035042517057);
#28=CIRCLE('',#788,0.00329843241620918);
#29=CIRCLE('',#790,0.0053035042517057);
#30=CIRCLE('',#795,0.00329970156738238);
#31=CIRCLE('',#797,0.00330350425170569);
#32=CIRCLE('',#799,0.00329668879390117);
#33=CIRCLE('',#801,0.00329843241620918);
#34=CYLINDRICAL_SURFACE('',#764,0.00529843241620918);
#35=CYLINDRICAL_SURFACE('',#767,0.00529668879390117);
#36=CYLINDRICAL_SURFACE('',#770,0.0053035042517057);
#37=CYLINDRICAL_SURFACE('',#773,0.00529970156738238);
#38=CYLINDRICAL_SURFACE('',#789,0.0053035042517057);
#39=CYLINDRICAL_SURFACE('',#794,0.00329970156738238);
#40=CYLINDRICAL_SURFACE('',#796,0.00330350425170569);
#41=CYLINDRICAL_SURFACE('',#798,0.00329668879390117);
#42=CYLINDRICAL_SURFACE('',#800,0.00329843241620918);
#43=ORIENTED_EDGE('',*,*,#231,.F.);
#44=ORIENTED_EDGE('',*,*,#232,.F.);
#45=ORIENTED_EDGE('',*,*,#233,.T.);
#46=ORIENTED_EDGE('',*,*,#234,.F.);
#47=ORIENTED_EDGE('',*,*,#235,.T.);
#48=ORIENTED_EDGE('',*,*,#236,.F.);
#49=ORIENTED_EDGE('',*,*,#237,.F.);
#50=ORIENTED_EDGE('',*,*,#238,.F.);
#51=ORIENTED_EDGE('',*,*,#239,.T.);
#52=ORIENTED_EDGE('',*,*,#232,.T.);
#53=ORIENTED_EDGE('',*,*,#240,.F.);
#54=ORIENTED_EDGE('',*,*,#241,.F.);
#55=ORIENTED_EDGE('',*,*,#242,.T.);
#56=ORIENTED_EDGE('',*,*,#243,.T.);
#57=ORIENTED_EDGE('',*,*,#244,.F.);
#58=ORIENTED_EDGE('',*,*,#245,.F.);
#59=ORIENTED_EDGE('',*,*,#246,.T.);
#60=ORIENTED_EDGE('',*,*,#247,.T.);
#61=ORIENTED_EDGE('',*,*,#248,.F.);
#62=ORIENTED_EDGE('',*,*,#249,.T.);
#63=ORIENTED_EDGE('',*,*,#250,.T.);
#64=ORIENTED_EDGE('',*,*,#251,.T.);
#65=ORIENTED_EDGE('',*,*,#252,.F.);
#66=ORIENTED_EDGE('',*,*,#253,.T.);
#67=ORIENTED_EDGE('',*,*,#234,.T.);
#68=ORIENTED_EDGE('',*,*,#254,.F.);
#69=ORIENTED_EDGE('',*,*,#255,.F.);
#70=ORIENTED_EDGE('',*,*,#256,.T.);
#71=ORIENTED_EDGE('',*,*,#252,.T.);
#72=ORIENTED_EDGE('',*,*,#257,.F.);
#73=ORIENTED_EDGE('',*,*,#258,.F.);
#74=ORIENTED_EDGE('',*,*,#255,.T.);
#75=ORIENTED_EDGE('',*,*,#259,.T.);
#76=ORIENTED_EDGE('',*,*,#245,.T.);
#77=ORIENTED_EDGE('',*,*,#260,.F.);
#78=ORIENTED_EDGE('',*,*,#247,.F.);
#79=ORIENTED_EDGE('',*,*,#261,.T.);
#80=ORIENTED_EDGE('',*,*,#241,.T.);
#81=ORIENTED_EDGE('',*,*,#262,.F.);
#82=ORIENTED_EDGE('',*,*,#243,.F.);
#83=ORIENTED_EDGE('',*,*,#263,.T.);
#84=ORIENTED_EDGE('',*,*,#238,.T.);
#85=ORIENTED_EDGE('',*,*,#235,.F.);
#86=ORIENTED_EDGE('',*,*,#259,.F.);
#87=ORIENTED_EDGE('',*,*,#257,.T.);
#88=ORIENTED_EDGE('',*,*,#254,.T.);
#89=ORIENTED_EDGE('',*,*,#233,.F.);
#90=ORIENTED_EDGE('',*,*,#239,.F.);
#91=ORIENTED_EDGE('',*,*,#263,.F.);
#92=ORIENTED_EDGE('',*,*,#242,.F.);
#93=ORIENTED_EDGE('',*,*,#261,.F.);
#94=ORIENTED_EDGE('',*,*,#246,.F.);
#95=ORIENTED_EDGE('',*,*,#264,.F.);
#96=ORIENTED_EDGE('',*,*,#265,.F.);
#97=ORIENTED_EDGE('',*,*,#266,.F.);
#98=ORIENTED_EDGE('',*,*,#267,.F.);
#99=ORIENTED_EDGE('',*,*,#268,.T.);
#100=ORIENTED_EDGE('',*,*,#269,.T.);
#101=ORIENTED_EDGE('',*,*,#270,.F.);
#102=ORIENTED_EDGE('',*,*,#256,.F.);
#103=ORIENTED_EDGE('',*,*,#258,.T.);
#104=ORIENTED_EDGE('',*,*,#244,.T.);
#105=ORIENTED_EDGE('',*,*,#260,.T.);
#106=ORIENTED_EDGE('',*,*,#240,.T.);
#107=ORIENTED_EDGE('',*,*,#262,.T.);
#108=ORIENTED_EDGE('',*,*,#237,.T.);
#109=ORIENTED_EDGE('',*,*,#231,.T.);
#110=ORIENTED_EDGE('',*,*,#253,.F.);
#111=ORIENTED_EDGE('',*,*,#271,.T.);
#112=ORIENTED_EDGE('',*,*,#272,.T.);
#113=ORIENTED_EDGE('',*,*,#273,.T.);
#114=ORIENTED_EDGE('',*,*,#274,.F.);
#115=ORIENTED_EDGE('',*,*,#236,.T.);
#116=ORIENTED_EDGE('',*,*,#272,.F.);
#117=ORIENTED_EDGE('',*,*,#275,.F.);
#118=ORIENTED_EDGE('',*,*,#276,.T.);
#119=ORIENTED_EDGE('',*,*,#277,.T.);
#120=ORIENTED_EDGE('',*,*,#271,.F.);
#121=ORIENTED_EDGE('',*,*,#278,.T.);
#122=ORIENTED_EDGE('',*,*,#279,.T.);
#123=ORIENTED_EDGE('',*,*,#275,.T.);
#124=ORIENTED_EDGE('',*,*,#273,.F.);
#125=ORIENTED_EDGE('',*,*,#277,.F.);
#126=ORIENTED_EDGE('',*,*,#280,.T.);
#127=ORIENTED_EDGE('',*,*,#278,.F.);
#128=ORIENTED_EDGE('',*,*,#276,.F.);
#129=ORIENTED_EDGE('',*,*,#279,.F.);
#130=ORIENTED_EDGE('',*,*,#280,.F.);
#131=ORIENTED_EDGE('',*,*,#281,.F.);
#132=ORIENTED_EDGE('',*,*,#264,.T.);
#133=ORIENTED_EDGE('',*,*,#282,.F.);
#134=ORIENTED_EDGE('',*,*,#265,.T.);
#135=ORIENTED_EDGE('',*,*,#283,.F.);
#136=ORIENTED_EDGE('',*,*,#266,.T.);
#137=ORIENTED_EDGE('',*,*,#284,.F.);
#138=ORIENTED_EDGE('',*,*,#274,.T.);
#139=ORIENTED_EDGE('',*,*,#284,.T.);
#140=ORIENTED_EDGE('',*,*,#283,.T.);
#141=ORIENTED_EDGE('',*,*,#282,.T.);
#142=ORIENTED_EDGE('',*,*,#281,.T.);
#143=ORIENTED_EDGE('',*,*,#285,.T.);
#144=ORIENTED_EDGE('',*,*,#286,.T.);
#145=ORIENTED_EDGE('',*,*,#287,.F.);
#146=ORIENTED_EDGE('',*,*,#288,.F.);
#147=ORIENTED_EDGE('',*,*,#289,.F.);
#148=ORIENTED_EDGE('',*,*,#270,.T.);
#149=ORIENTED_EDGE('',*,*,#290,.T.);
#150=ORIENTED_EDGE('',*,*,#286,.F.);
#151=ORIENTED_EDGE('',*,*,#291,.F.);
#152=ORIENTED_EDGE('',*,*,#292,.T.);
#153=ORIENTED_EDGE('',*,*,#293,.F.);
#154=ORIENTED_EDGE('',*,*,#294,.F.);
#155=ORIENTED_EDGE('',*,*,#269,.F.);
#156=ORIENTED_EDGE('',*,*,#295,.T.);
#157=ORIENTED_EDGE('',*,*,#287,.T.);
#158=ORIENTED_EDGE('',*,*,#290,.F.);
#159=ORIENTED_EDGE('',*,*,#268,.F.);
#160=ORIENTED_EDGE('',*,*,#296,.T.);
#161=ORIENTED_EDGE('',*,*,#288,.T.);
#162=ORIENTED_EDGE('',*,*,#295,.F.);
#163=ORIENTED_EDGE('',*,*,#296,.F.);
#164=ORIENTED_EDGE('',*,*,#267,.T.);
#165=ORIENTED_EDGE('',*,*,#289,.T.);
#166=ORIENTED_EDGE('',*,*,#285,.F.);
#167=ORIENTED_EDGE('',*,*,#248,.T.);
#168=ORIENTED_EDGE('',*,*,#297,.F.);
#169=ORIENTED_EDGE('',*,*,#292,.F.);
#170=ORIENTED_EDGE('',*,*,#298,.T.);
#171=ORIENTED_EDGE('',*,*,#298,.F.);
#172=ORIENTED_EDGE('',*,*,#291,.T.);
#173=ORIENTED_EDGE('',*,*,#299,.T.);
#174=ORIENTED_EDGE('',*,*,#249,.F.);
#175=ORIENTED_EDGE('',*,*,#299,.F.);
#176=ORIENTED_EDGE('',*,*,#294,.T.);
#177=ORIENTED_EDGE('',*,*,#300,.T.);
#178=ORIENTED_EDGE('',*,*,#250,.F.);
#179=ORIENTED_EDGE('',*,*,#300,.F.);
#180=ORIENTED_EDGE('',*,*,#293,.T.);
#181=ORIENTED_EDGE('',*,*,#297,.T.);
#182=ORIENTED_EDGE('',*,*,#251,.F.);
#183=ORIENTED_EDGE('',*,*,#301,.F.);
#184=ORIENTED_EDGE('',*,*,#302,.F.);
#185=ORIENTED_EDGE('',*,*,#303,.T.);
#186=ORIENTED_EDGE('',*,*,#304,.T.);
#187=ORIENTED_EDGE('',*,*,#305,.T.);
#188=ORIENTED_EDGE('',*,*,#306,.F.);
#189=ORIENTED_EDGE('',*,*,#307,.F.);
#190=ORIENTED_EDGE('',*,*,#302,.T.);
#191=ORIENTED_EDGE('',*,*,#308,.T.);
#192=ORIENTED_EDGE('',*,*,#309,.F.);
#193=ORIENTED_EDGE('',*,*,#310,.F.);
#194=ORIENTED_EDGE('',*,*,#306,.T.);
#195=ORIENTED_EDGE('',*,*,#311,.T.);
#196=ORIENTED_EDGE('',*,*,#304,.F.);
#197=ORIENTED_EDGE('',*,*,#312,.F.);
#198=ORIENTED_EDGE('',*,*,#309,.T.);
#199=ORIENTED_EDGE('',*,*,#303,.F.);
#200=ORIENTED_EDGE('',*,*,#307,.T.);
#201=ORIENTED_EDGE('',*,*,#310,.T.);
#202=ORIENTED_EDGE('',*,*,#312,.T.);
#203=ORIENTED_EDGE('',*,*,#301,.T.);
#204=ORIENTED_EDGE('',*,*,#311,.F.);
#205=ORIENTED_EDGE('',*,*,#308,.F.);
#206=ORIENTED_EDGE('',*,*,#305,.F.);
#207=ORIENTED_EDGE('',*,*,#313,.T.);
#208=ORIENTED_EDGE('',*,*,#314,.F.);
#209=ORIENTED_EDGE('',*,*,#315,.F.);
#210=ORIENTED_EDGE('',*,*,#316,.T.);
#211=ORIENTED_EDGE('',*,*,#317,.F.);
#212=ORIENTED_EDGE('',*,*,#316,.F.);
#213=ORIENTED_EDGE('',*,*,#318,.T.);
#214=ORIENTED_EDGE('',*,*,#319,.T.);
#215=ORIENTED_EDGE('',*,*,#320,.F.);
#216=ORIENTED_EDGE('',*,*,#319,.F.);
#217=ORIENTED_EDGE('',*,*,#321,.T.);
#218=ORIENTED_EDGE('',*,*,#322,.T.);
#219=ORIENTED_EDGE('',*,*,#323,.F.);
#220=ORIENTED_EDGE('',*,*,#322,.F.);
#221=ORIENTED_EDGE('',*,*,#324,.T.);
#222=ORIENTED_EDGE('',*,*,#314,.T.);
#223=ORIENTED_EDGE('',*,*,#315,.T.);
#224=ORIENTED_EDGE('',*,*,#324,.F.);
#225=ORIENTED_EDGE('',*,*,#321,.F.);
#226=ORIENTED_EDGE('',*,*,#318,.F.);
#227=ORIENTED_EDGE('',*,*,#313,.F.);
#228=ORIENTED_EDGE('',*,*,#317,.T.);
#229=ORIENTED_EDGE('',*,*,#320,.T.);
#230=ORIENTED_EDGE('',*,*,#323,.T.);
#231=EDGE_CURVE('',#325,#326,#391,.T.);
#232=EDGE_CURVE('',#327,#325,#392,.F.);
#233=EDGE_CURVE('',#327,#328,#393,.T.);
#234=EDGE_CURVE('',#326,#328,#394,.T.);
#235=EDGE_CURVE('',#329,#329,#16,.T.);
#236=EDGE_CURVE('',#330,#330,#17,.T.);
#237=EDGE_CURVE('',#331,#325,#18,.T.);
#238=EDGE_CURVE('',#332,#331,#395,.F.);
#239=EDGE_CURVE('',#332,#327,#19,.T.);
#240=EDGE_CURVE('',#333,#334,#20,.T.);
#241=EDGE_CURVE('',#335,#333,#396,.F.);
#242=EDGE_CURVE('',#335,#336,#21,.T.);
#243=EDGE_CURVE('',#336,#334,#397,.F.);
#244=EDGE_CURVE('',#337,#338,#22,.T.);
#245=EDGE_CURVE('',#339,#337,#398,.F.);
#246=EDGE_CURVE('',#339,#340,#23,.T.);
#247=EDGE_CURVE('',#340,#338,#399,.F.);
#248=EDGE_CURVE('',#341,#342,#400,.T.);
#249=EDGE_CURVE('',#341,#343,#401,.T.);
#250=EDGE_CURVE('',#343,#344,#402,.T.);
#251=EDGE_CURVE('',#344,#342,#403,.T.);
#252=EDGE_CURVE('',#345,#346,#404,.T.);
#253=EDGE_CURVE('',#345,#326,#405,.T.);
#254=EDGE_CURVE('',#346,#328,#406,.T.);
#255=EDGE_CURVE('',#347,#348,#407,.T.);
#256=EDGE_CURVE('',#347,#345,#408,.T.);
#257=EDGE_CURVE('',#348,#346,#409,.T.);
#258=EDGE_CURVE('',#347,#337,#410,.T.);
#259=EDGE_CURVE('',#348,#339,#411,.T.);
#260=EDGE_CURVE('',#338,#333,#412,.T.);
#261=EDGE_CURVE('',#340,#335,#413,.T.);
#262=EDGE_CURVE('',#334,#331,#414,.T.);
#263=EDGE_CURVE('',#336,#332,#415,.T.);
#264=EDGE_CURVE('',#349,#349,#24,.T.);
#265=EDGE_CURVE('',#350,#350,#25,.T.);
#266=EDGE_CURVE('',#351,#351,#26,.T.);
#267=EDGE_CURVE('',#352,#353,#416,.T.);
#268=EDGE_CURVE('',#352,#354,#417,.T.);
#269=EDGE_CURVE('',#354,#355,#418,.T.);
#270=EDGE_CURVE('',#353,#355,#419,.T.);
#271=EDGE_CURVE('',#356,#357,#420,.T.);
#272=EDGE_CURVE('',#357,#358,#27,.T.);
#273=EDGE_CURVE('',#358,#356,#421,.T.);
#274=EDGE_CURVE('',#359,#359,#28,.T.);
#275=EDGE_CURVE('',#360,#357,#422,.F.);
#276=EDGE_CURVE('',#360,#361,#29,.T.);
#277=EDGE_CURVE('',#361,#358,#423,.F.);
#278=EDGE_CURVE('',#356,#362,#424,.T.);
#279=EDGE_CURVE('',#362,#360,#425,.T.);
#280=EDGE_CURVE('',#361,#362,#426,.T.);
#281=EDGE_CURVE('',#363,#363,#30,.T.);
#282=EDGE_CURVE('',#364,#364,#31,.T.);
#283=EDGE_CURVE('',#365,#365,#32,.T.);
#284=EDGE_CURVE('',#366,#366,#33,.T.);
#285=EDGE_CURVE('',#367,#368,#427,.T.);
#286=EDGE_CURVE('',#368,#369,#428,.T.);
#287=EDGE_CURVE('',#370,#369,#429,.T.);
#288=EDGE_CURVE('',#367,#370,#430,.T.);
#289=EDGE_CURVE('',#353,#368,#431,.T.);
#290=EDGE_CURVE('',#355,#369,#432,.T.);
#291=EDGE_CURVE('',#371,#372,#433,.T.);
#292=EDGE_CURVE('',#371,#373,#434,.T.);
#293=EDGE_CURVE('',#374,#373,#435,.T.);
#294=EDGE_CURVE('',#372,#374,#436,.T.);
#295=EDGE_CURVE('',#354,#370,#437,.T.);
#296=EDGE_CURVE('',#352,#367,#438,.T.);
#297=EDGE_CURVE('',#373,#342,#439,.T.);
#298=EDGE_CURVE('',#371,#341,#440,.T.);
#299=EDGE_CURVE('',#372,#343,#441,.T.);
#300=EDGE_CURVE('',#374,#344,#442,.T.);
#301=EDGE_CURVE('',#375,#376,#443,.T.);
#302=EDGE_CURVE('',#377,#375,#444,.T.);
#303=EDGE_CURVE('',#377,#378,#445,.T.);
#304=EDGE_CURVE('',#378,#376,#446,.T.);
#305=EDGE_CURVE('',#375,#379,#447,.T.);
#306=EDGE_CURVE('',#380,#379,#448,.T.);
#307=EDGE_CURVE('',#377,#380,#449,.T.);
#308=EDGE_CURVE('',#379,#381,#450,.T.);
#309=EDGE_CURVE('',#382,#381,#451,.T.);
#310=EDGE_CURVE('',#380,#382,#452,.T.);
#311=EDGE_CURVE('',#381,#376,#453,.T.);
#312=EDGE_CURVE('',#382,#378,#454,.T.);
#313=EDGE_CURVE('',#383,#384,#455,.T.);
#314=EDGE_CURVE('',#385,#384,#456,.T.);
#315=EDGE_CURVE('',#386,#385,#457,.T.);
#316=EDGE_CURVE('',#386,#383,#458,.T.);
#317=EDGE_CURVE('',#383,#387,#459,.T.);
#318=EDGE_CURVE('',#386,#388,#460,.T.);
#319=EDGE_CURVE('',#388,#387,#461,.T.);
#320=EDGE_CURVE('',#387,#389,#462,.T.);
#321=EDGE_CURVE('',#388,#390,#463,.T.);
#322=EDGE_CURVE('',#390,#389,#464,.T.);
#323=EDGE_CURVE('',#389,#384,#465,.T.);
#324=EDGE_CURVE('',#390,#385,#466,.T.);
#325=VERTEX_POINT('',#1027);
#326=VERTEX_POINT('',#1028);
#327=VERTEX_POINT('',#1030);
#328=VERTEX_POINT('',#1032);
#329=VERTEX_POINT('',#1036);
#330=VERTEX_POINT('',#1038);
#331=VERTEX_POINT('',#1041);
#332=VERTEX_POINT('',#1043);
#333=VERTEX_POINT('',#1047);
#334=VERTEX_POINT('',#1048);
#335=VERTEX_POINT('',#1050);
#336=VERTEX_POINT('',#1052);
#337=VERTEX_POINT('',#1056);
#338=VERTEX_POINT('',#1057);
#339=VERTEX_POINT('',#1059);
#340=VERTEX_POINT('',#1061);
#341=VERTEX_POINT('',#1065);
#342=VERTEX_POINT('',#1066);
#343=VERTEX_POINT('',#1068);
#344=VERTEX_POINT('',#1070);
#345=VERTEX_POINT('',#1073);
#346=VERTEX_POINT('',#1074);
#347=VERTEX_POINT('',#1079);
#348=VERTEX_POINT('',#1080);
#349=VERTEX_POINT('',#1095);
#350=VERTEX_POINT('',#1097);
#351=VERTEX_POINT('',#1099);
#352=VERTEX_POINT('',#1101);
#353=VERTEX_POINT('',#1102);
#354=VERTEX_POINT('',#1104);
#355=VERTEX_POINT('',#1106);
#356=VERTEX_POINT('',#1109);
#357=VERTEX_POINT('',#1110);
#358=VERTEX_POINT('',#1112);
#359=VERTEX_POINT('',#1116);
#360=VERTEX_POINT('',#1119);
#361=VERTEX_POINT('',#1121);
#362=VERTEX_POINT('',#1125);
#363=VERTEX_POINT('',#1132);
#364=VERTEX_POINT('',#1135);
#365=VERTEX_POINT('',#1138);
#366=VERTEX_POINT('',#1141);
#367=VERTEX_POINT('',#1144);
#368=VERTEX_POINT('',#1145);
#369=VERTEX_POINT('',#1147);
#370=VERTEX_POINT('',#1149);
#371=VERTEX_POINT('',#1156);
#372=VERTEX_POINT('',#1157);
#373=VERTEX_POINT('',#1159);
#374=VERTEX_POINT('',#1161);
#375=VERTEX_POINT('',#1178);
#376=VERTEX_POINT('',#1179);
#377=VERTEX_POINT('',#1181);
#378=VERTEX_POINT('',#1183);
#379=VERTEX_POINT('',#1187);
#380=VERTEX_POINT('',#1189);
#381=VERTEX_POINT('',#1193);
#382=VERTEX_POINT('',#1195);
#383=VERTEX_POINT('',#1204);
#384=VERTEX_POINT('',#1205);
#385=VERTEX_POINT('',#1207);
#386=VERTEX_POINT('',#1209);
#387=VERTEX_POINT('',#1213);
#388=VERTEX_POINT('',#1215);
#389=VERTEX_POINT('',#1219);
#390=VERTEX_POINT('',#1221);
#391=LINE('',#1026,#467);
#392=LINE('',#1029,#468);
#393=LINE('',#1031,#469);
#394=LINE('',#1033,#470);
#395=LINE('',#1042,#471);
#396=LINE('',#1049,#472);
#397=LINE('',#1053,#473);
#398=LINE('',#1058,#474);
#399=LINE('',#1062,#475);
#400=LINE('',#1064,#476);
#401=LINE('',#1067,#477);
#402=LINE('',#1069,#478);
#403=LINE('',#1071,#479);
#404=LINE('',#1072,#480);
#405=LINE('',#1075,#481);
#406=LINE('',#1076,#482);
#407=LINE('',#1078,#483);
#408=LINE('',#1081,#484);
#409=LINE('',#1082,#485);
#410=LINE('',#1084,#486);
#411=LINE('',#1085,#487);
#412=LINE('',#1087,#488);
#413=LINE('',#1088,#489);
#414=LINE('',#1090,#490);
#415=LINE('',#1091,#491);
#416=LINE('',#1100,#492);
#417=LINE('',#1103,#493);
#418=LINE('',#1105,#494);
#419=LINE('',#1107,#495);
#420=LINE('',#1108,#496);
#421=LINE('',#1113,#497);
#422=LINE('',#1118,#498);
#423=LINE('',#1122,#499);
#424=LINE('',#1124,#500);
#425=LINE('',#1126,#501);
#426=LINE('',#1128,#502);
#427=LINE('',#1143,#503);
#428=LINE('',#1146,#504);
#429=LINE('',#1148,#505);
#430=LINE('',#1150,#506);
#431=LINE('',#1152,#507);
#432=LINE('',#1153,#508);
#433=LINE('',#1155,#509);
#434=LINE('',#1158,#510);
#435=LINE('',#1160,#511);
#436=LINE('',#1162,#512);
#437=LINE('',#1163,#513);
#438=LINE('',#1165,#514);
#439=LINE('',#1168,#515);
#440=LINE('',#1169,#516);
#441=LINE('',#1171,#517);
#442=LINE('',#1173,#518);
#443=LINE('',#1177,#519);
#444=LINE('',#1180,#520);
#445=LINE('',#1182,#521);
#446=LINE('',#1184,#522);
#447=LINE('',#1186,#523);
#448=LINE('',#1188,#524);
#449=LINE('',#1190,#525);
#450=LINE('',#1192,#526);
#451=LINE('',#1194,#527);
#452=LINE('',#1196,#528);
#453=LINE('',#1198,#529);
#454=LINE('',#1199,#530);
#455=LINE('',#1203,#531);
#456=LINE('',#1206,#532);
#457=LINE('',#1208,#533);
#458=LINE('',#1210,#534);
#459=LINE('',#1212,#535);
#460=LINE('',#1214,#536);
#461=LINE('',#1216,#537);
#462=LINE('',#1218,#538);
#463=LINE('',#1220,#539);
#464=LINE('',#1222,#540);
#465=LINE('',#1224,#541);
#466=LINE('',#1225,#542);
#467=VECTOR('',#828,1.);
#468=VECTOR('',#829,1.);
#469=VECTOR('',#830,1.);
#470=VECTOR('',#831,1.);
#471=VECTOR('',#842,1.);
#472=VECTOR('',#849,1.);
#473=VECTOR('',#852,1.);
#474=VECTOR('',#857,1.);
#475=VECTOR('',#860,1.);
#476=VECTOR('',#863,1.);
#477=VECTOR('',#864,1.);
#478=VECTOR('',#865,1.);
#479=VECTOR('',#866,1.);
#480=VECTOR('',#867,1.);
#481=VECTOR('',#868,1.);
#482=VECTOR('',#869,1.);
#483=VECTOR('',#872,1.);
#484=VECTOR('',#873,1.);
#485=VECTOR('',#874,1.);
#486=VECTOR('',#877,1.);
#487=VECTOR('',#878,1.);
#488=VECTOR('',#881,1.);
#489=VECTOR('',#882,1.);
#490=VECTOR('',#885,1.);
#491=VECTOR('',#886,1.);
#492=VECTOR('',#897,1.);
#493=VECTOR('',#898,1.);
#494=VECTOR('',#899,1.);
#495=VECTOR('',#900,1.);
#496=VECTOR('',#901,1.);
#497=VECTOR('',#904,1.);
#498=VECTOR('',#911,1.);
#499=VECTOR('',#914,1.);
#500=VECTOR('',#917,1.);
#501=VECTOR('',#918,1.);
#502=VECTOR('',#921,1.);
#503=VECTOR('',#942,1.);
#504=VECTOR('',#943,1.);
#505=VECTOR('',#944,1.);
#506=VECTOR('',#945,1.);
#507=VECTOR('',#948,1.);
#508=VECTOR('',#949,1.);
#509=VECTOR('',#952,1.);
#510=VECTOR('',#953,1.);
#511=VECTOR('',#954,1.);
#512=VECTOR('',#955,1.);
#513=VECTOR('',#956,1.);
#514=VECTOR('',#959,1.);
#515=VECTOR('',#964,1.);
#516=VECTOR('',#965,1.);
#517=VECTOR('',#968,1.);
#518=VECTOR('',#971,1.);
#519=VECTOR('',#978,1.);
#520=VECTOR('',#979,1.);
#521=VECTOR('',#980,1.);
#522=VECTOR('',#981,1.);
#523=VECTOR('',#984,1.);
#524=VECTOR('',#985,1.);
#525=VECTOR('',#986,1.);
#526=VECTOR('',#989,1.);
#527=VECTOR('',#990,1.);
#528=VECTOR('',#991,1.);
#529=VECTOR('',#994,1.);
#530=VECTOR('',#995,1.);
#531=VECTOR('',#1002,1.);
#532=VECTOR('',#1003,1.);
#533=VECTOR('',#1004,1.);
#534=VECTOR('',#1005,1.);
#535=VECTOR('',#1008,1.);
#536=VECTOR('',#1009,1.);
#537=VECTOR('',#1010,1.);
#538=VECTOR('',#1013,1.);
#539=VECTOR('',#1014,1.);
#540=VECTOR('',#1015,1.);
#541=VECTOR('',#1018,1.);
#542=VECTOR('',#1019,1.);
#543=EDGE_LOOP('',(#43,#44,#45,#46));
#544=EDGE_LOOP('',(#47));
#545=EDGE_LOOP('',(#48));
#546=EDGE_LOOP('',(#49,#50,#51,#52));
#547=EDGE_LOOP('',(#53,#54,#55,#56));
#548=EDGE_LOOP('',(#57,#58,#59,#60));
#549=EDGE_LOOP('',(#61,#62,#63,#64));
#550=EDGE_LOOP('',(#65,#66,#67,#68));
#551=EDGE_LOOP('',(#69,#70,#71,#72));
#552=EDGE_LOOP('',(#73,#74,#75,#76));
#553=EDGE_LOOP('',(#77,#78,#79,#80));
#554=EDGE_LOOP('',(#81,#82,#83,#84));
#555=EDGE_LOOP('',(#85));
#556=EDGE_LOOP('',(#86,#87,#88,#89,#90,#91,#92,#93,#94));
#557=EDGE_LOOP('',(#95));
#558=EDGE_LOOP('',(#96));
#559=EDGE_LOOP('',(#97));
#560=EDGE_LOOP('',(#98,#99,#100,#101));
#561=EDGE_LOOP('',(#102,#103,#104,#105,#106,#107,#108,#109,#110));
#562=EDGE_LOOP('',(#111,#112,#113));
#563=EDGE_LOOP('',(#114));
#564=EDGE_LOOP('',(#115));
#565=EDGE_LOOP('',(#116,#117,#118,#119));
#566=EDGE_LOOP('',(#120,#121,#122,#123));
#567=EDGE_LOOP('',(#124,#125,#126,#127));
#568=EDGE_LOOP('',(#128,#129,#130));
#569=EDGE_LOOP('',(#131));
#570=EDGE_LOOP('',(#132));
#571=EDGE_LOOP('',(#133));
#572=EDGE_LOOP('',(#134));
#573=EDGE_LOOP('',(#135));
#574=EDGE_LOOP('',(#136));
#575=EDGE_LOOP('',(#137));
#576=EDGE_LOOP('',(#138));
#577=EDGE_LOOP('',(#139));
#578=EDGE_LOOP('',(#140));
#579=EDGE_LOOP('',(#141));
#580=EDGE_LOOP('',(#142));
#581=EDGE_LOOP('',(#143,#144,#145,#146));
#582=EDGE_LOOP('',(#147,#148,#149,#150));
#583=EDGE_LOOP('',(#151,#152,#153,#154));
#584=EDGE_LOOP('',(#155,#156,#157,#158));
#585=EDGE_LOOP('',(#159,#160,#161,#162));
#586=EDGE_LOOP('',(#163,#164,#165,#166));
#587=EDGE_LOOP('',(#167,#168,#169,#170));
#588=EDGE_LOOP('',(#171,#172,#173,#174));
#589=EDGE_LOOP('',(#175,#176,#177,#178));
#590=EDGE_LOOP('',(#179,#180,#181,#182));
#591=EDGE_LOOP('',(#183,#184,#185,#186));
#592=EDGE_LOOP('',(#187,#188,#189,#190));
#593=EDGE_LOOP('',(#191,#192,#193,#194));
#594=EDGE_LOOP('',(#195,#196,#197,#198));
#595=EDGE_LOOP('',(#199,#200,#201,#202));
#596=EDGE_LOOP('',(#203,#204,#205,#206));
#597=EDGE_LOOP('',(#207,#208,#209,#210));
#598=EDGE_LOOP('',(#211,#212,#213,#214));
#599=EDGE_LOOP('',(#215,#216,#217,#218));
#600=EDGE_LOOP('',(#219,#220,#221,#222));
#601=EDGE_LOOP('',(#223,#224,#225,#226));
#602=EDGE_LOOP('',(#227,#228,#229,#230));
#603=FACE_BOUND('',#543,.T.);
#604=FACE_BOUND('',#544,.T.);
#605=FACE_BOUND('',#545,.T.);
#606=FACE_BOUND('',#546,.T.);
#607=FACE_BOUND('',#547,.T.);
#608=FACE_BOUND('',#548,.T.);
#609=FACE_BOUND('',#549,.T.);
#610=FACE_BOUND('',#550,.T.);
#611=FACE_BOUND('',#551,.T.);
#612=FACE_BOUND('',#552,.T.);
#613=FACE_BOUND('',#553,.T.);
#614=FACE_BOUND('',#554,.T.);
#615=FACE_BOUND('',#555,.T.);
#616=FACE_BOUND('',#556,.T.);
#617=FACE_BOUND('',#557,.T.);
#618=FACE_BOUND('',#558,.T.);
#619=FACE_BOUND('',#559,.T.);
#620=FACE_BOUND('',#560,.T.);
#621=FACE_BOUND('',#561,.T.);
#622=FACE_BOUND('',#562,.T.);
#623=FACE_BOUND('',#563,.T.);
#624=FACE_BOUND('',#564,.T.);
#625=FACE_BOUND('',#565,.T.);
#626=FACE_BOUND('',#566,.T.);
#627=FACE_BOUND('',#567,.T.);
#628=FACE_BOUND('',#568,.T.);
#629=FACE_BOUND('',#569,.T.);
#630=FACE_BOUND('',#570,.T.);
#631=FACE_BOUND('',#571,.T.);
#632=FACE_BOUND('',#572,.T.);
#633=FACE_BOUND('',#573,.T.);
#634=FACE_BOUND('',#574,.T.);
#635=FACE_BOUND('',#575,.T.);
#636=FACE_BOUND('',#576,.T.);
#637=FACE_BOUND('',#577,.T.);
#638=FACE_BOUND('',#578,.T.);
#639=FACE_BOUND('',#579,.T.);
#640=FACE_BOUND('',#580,.T.);
#641=FACE_BOUND('',#581,.T.);
#642=FACE_BOUND('',#582,.T.);
#643=FACE_BOUND('',#583,.T.);
#644=FACE_BOUND('',#584,.T.);
#645=FACE_BOUND('',#585,.T.);
#646=FACE_BOUND('',#586,.T.);
#647=FACE_BOUND('',#587,.T.);
#648=FACE_BOUND('',#588,.T.);
#649=FACE_BOUND('',#589,.T.);
#650=FACE_BOUND('',#590,.T.);
#651=FACE_BOUND('',#591,.T.);
#652=FACE_BOUND('',#592,.T.);
#653=FACE_BOUND('',#593,.T.);
#654=FACE_BOUND('',#594,.T.);
#655=FACE_BOUND('',#595,.T.);
#656=FACE_BOUND('',#596,.T.);
#657=FACE_BOUND('',#597,.T.);
#658=FACE_BOUND('',#598,.T.);
#659=FACE_BOUND('',#599,.T.);
#660=FACE_BOUND('',#600,.T.);
#661=FACE_BOUND('',#601,.T.);
#662=FACE_BOUND('',#602,.T.);
#663=PLANE('',#763);
#664=PLANE('',#776);
#665=PLANE('',#777);
#666=PLANE('',#778);
#667=PLANE('',#779);
#668=PLANE('',#780);
#669=PLANE('',#781);
#670=PLANE('',#782);
#671=PLANE('',#787);
#672=PLANE('',#791);
#673=PLANE('',#792);
#674=PLANE('',#793);
#675=PLANE('',#802);
#676=PLANE('',#803);
#677=PLANE('',#804);
#678=PLANE('',#805);
#679=PLANE('',#806);
#680=PLANE('',#807);
#681=PLANE('',#808);
#682=PLANE('',#809);
#683=PLANE('',#810);
#684=PLANE('',#812);
#685=PLANE('',#813);
#686=PLANE('',#814);
#687=PLANE('',#815);
#688=PLANE('',#816);
#689=PLANE('',#817);
#690=PLANE('',#818);
#691=PLANE('',#819);
#692=PLANE('',#820);
#693=PLANE('',#821);
#694=PLANE('',#822);
#695=PLANE('',#823);
#696=ADVANCED_FACE('',(#603),#663,.F.);
#697=ADVANCED_FACE('',(#604,#605),#34,.T.);
#698=ADVANCED_FACE('',(#606),#35,.T.);
#699=ADVANCED_FACE('',(#607),#36,.T.);
#700=ADVANCED_FACE('',(#608),#37,.T.);
#701=ADVANCED_FACE('',(#609,#610),#664,.T.);
#702=ADVANCED_FACE('',(#611),#665,.T.);
#703=ADVANCED_FACE('',(#612),#666,.F.);
#704=ADVANCED_FACE('',(#613),#667,.F.);
#705=ADVANCED_FACE('',(#614),#668,.F.);
#706=ADVANCED_FACE('',(#615,#616),#669,.T.);
#707=ADVANCED_FACE('',(#617,#618,#619,#620,#621,#622),#670,.T.);
#708=ADVANCED_FACE('',(#623,#624),#671,.T.);
#709=ADVANCED_FACE('',(#625),#38,.T.);
#710=ADVANCED_FACE('',(#626),#672,.F.);
#711=ADVANCED_FACE('',(#627),#673,.F.);
#712=ADVANCED_FACE('',(#628),#674,.T.);
#713=ADVANCED_FACE('',(#629,#630),#39,.F.);
#714=ADVANCED_FACE('',(#631,#632),#40,.F.);
#715=ADVANCED_FACE('',(#633,#634),#41,.F.);
#716=ADVANCED_FACE('',(#635,#636),#42,.F.);
#717=ADVANCED_FACE('',(#637,#638,#639,#640,#641),#675,.F.);
#718=ADVANCED_FACE('',(#642),#676,.T.);
#719=ADVANCED_FACE('',(#643,#644),#677,.F.);
#720=ADVANCED_FACE('',(#645),#678,.F.);
#721=ADVANCED_FACE('',(#646),#679,.T.);
#722=ADVANCED_FACE('',(#647),#680,.F.);
#723=ADVANCED_FACE('',(#648),#681,.T.);
#724=ADVANCED_FACE('',(#649),#682,.T.);
#725=ADVANCED_FACE('',(#650),#683,.T.);
#726=ADVANCED_FACE('',(#651),#684,.T.);
#727=ADVANCED_FACE('',(#652),#685,.F.);
#728=ADVANCED_FACE('',(#653),#686,.F.);
#729=ADVANCED_FACE('',(#654),#687,.F.);
#730=ADVANCED_FACE('',(#655),#688,.T.);
#731=ADVANCED_FACE('',(#656),#689,.F.);
#732=ADVANCED_FACE('',(#657),#690,.F.);
#733=ADVANCED_FACE('',(#658),#691,.T.);
#734=ADVANCED_FACE('',(#659),#692,.T.);
#735=ADVANCED_FACE('',(#660),#693,.T.);
#736=ADVANCED_FACE('',(#661),#694,.F.);
#737=ADVANCED_FACE('',(#662),#695,.T.);
#738=CLOSED_SHELL('',(#696,#697,#698,#699,#700,#701,#702,#703,#704,#705,
#706,#707,#708,#709,#710,#711,#712,#713,#714,#715,#716,#717,#718,#719,#720,
#721,#722,#723,#724,#725));
#739=CLOSED_SHELL('',(#726,#727,#728,#729,#730,#731));
#740=CLOSED_SHELL('',(#732,#733,#734,#735,#736,#737));
#741=STYLED_ITEM('',(#743),#757);
#742=STYLED_ITEM('',(#744),#11);
#743=PRESENTATION_STYLE_ASSIGNMENT((#745));
#744=PRESENTATION_STYLE_ASSIGNMENT((#746));
#745=SURFACE_STYLE_USAGE(.BOTH.,#747);
#746=SURFACE_STYLE_USAGE(.BOTH.,#748);
#747=SURFACE_SIDE_STYLE('',(#749));
#748=SURFACE_SIDE_STYLE('',(#750));
#749=SURFACE_STYLE_FILL_AREA(#751);
#750=SURFACE_STYLE_FILL_AREA(#752);
#751=FILL_AREA_STYLE('',(#753));
#752=FILL_AREA_STYLE('',(#754));
#753=FILL_AREA_STYLE_COLOUR('',#755);
#754=FILL_AREA_STYLE_COLOUR('',#756);
#755=COLOUR_RGB('',0.737254901960784,0.937254901960784,0.917647058823529);
#756=COLOUR_RGB('',0.537254901960784,0.854901960784314,0.827450980392157);
#757=MANIFOLD_SOLID_BREP('Bottom Case',#738);
#758=SHAPE_DEFINITION_REPRESENTATION(#1240,#760);
#759=SHAPE_DEFINITION_REPRESENTATION(#1241,#761);
#760=SHAPE_REPRESENTATION('Bottom Case',(#762),#1230);
#761=SHAPE_REPRESENTATION('Part 35',(#811),#1231);
#762=AXIS2_PLACEMENT_3D('',#1024,#824,#825);
#763=AXIS2_PLACEMENT_3D('',#1025,#826,#827);
#764=AXIS2_PLACEMENT_3D('',#1034,#832,#833);
#765=AXIS2_PLACEMENT_3D('',#1035,#834,#835);
#766=AXIS2_PLACEMENT_3D('',#1037,#836,#837);
#767=AXIS2_PLACEMENT_3D('',#1039,#838,#839);
#768=AXIS2_PLACEMENT_3D('',#1040,#840,#841);
#769=AXIS2_PLACEMENT_3D('',#1044,#843,#844);
#770=AXIS2_PLACEMENT_3D('',#1045,#845,#846);
#771=AXIS2_PLACEMENT_3D('',#1046,#847,#848);
#772=AXIS2_PLACEMENT_3D('',#1051,#850,#851);
#773=AXIS2_PLACEMENT_3D('',#1054,#853,#854);
#774=AXIS2_PLACEMENT_3D('',#1055,#855,#856);
#775=AXIS2_PLACEMENT_3D('',#1060,#858,#859);
#776=AXIS2_PLACEMENT_3D('',#1063,#861,#862);
#777=AXIS2_PLACEMENT_3D('',#1077,#870,#871);
#778=AXIS2_PLACEMENT_3D('',#1083,#875,#876);
#779=AXIS2_PLACEMENT_3D('',#1086,#879,#880);
#780=AXIS2_PLACEMENT_3D('',#1089,#883,#884);
#781=AXIS2_PLACEMENT_3D('',#1092,#887,#888);
#782=AXIS2_PLACEMENT_3D('',#1093,#889,#890);
#783=AXIS2_PLACEMENT_3D('',#1094,#891,#892);
#784=AXIS2_PLACEMENT_3D('',#1096,#893,#894);
#785=AXIS2_PLACEMENT_3D('',#1098,#895,#896);
#786=AXIS2_PLACEMENT_3D('',#1111,#902,#903);
#787=AXIS2_PLACEMENT_3D('',#1114,#905,#906);
#788=AXIS2_PLACEMENT_3D('',#1115,#907,#908);
#789=AXIS2_PLACEMENT_3D('',#1117,#909,#910);
#790=AXIS2_PLACEMENT_3D('',#1120,#912,#913);
#791=AXIS2_PLACEMENT_3D('',#1123,#915,#916);
#792=AXIS2_PLACEMENT_3D('',#1127,#919,#920);
#793=AXIS2_PLACEMENT_3D('',#1129,#922,#923);
#794=AXIS2_PLACEMENT_3D('',#1130,#924,#925);
#795=AXIS2_PLACEMENT_3D('',#1131,#926,#927);
#796=AXIS2_PLACEMENT_3D('',#1133,#928,#929);
#797=AXIS2_PLACEMENT_3D('',#1134,#930,#931);
#798=AXIS2_PLACEMENT_3D('',#1136,#932,#933);
#799=AXIS2_PLACEMENT_3D('',#1137,#934,#935);
#800=AXIS2_PLACEMENT_3D('',#1139,#936,#937);
#801=AXIS2_PLACEMENT_3D('',#1140,#938,#939);
#802=AXIS2_PLACEMENT_3D('',#1142,#940,#941);
#803=AXIS2_PLACEMENT_3D('',#1151,#946,#947);
#804=AXIS2_PLACEMENT_3D('',#1154,#950,#951);
#805=AXIS2_PLACEMENT_3D('',#1164,#957,#958);
#806=AXIS2_PLACEMENT_3D('',#1166,#960,#961);
#807=AXIS2_PLACEMENT_3D('',#1167,#962,#963);
#808=AXIS2_PLACEMENT_3D('',#1170,#966,#967);
#809=AXIS2_PLACEMENT_3D('',#1172,#969,#970);
#810=AXIS2_PLACEMENT_3D('',#1174,#972,#973);
#811=AXIS2_PLACEMENT_3D('',#1175,#974,#975);
#812=AXIS2_PLACEMENT_3D('',#1176,#976,#977);
#813=AXIS2_PLACEMENT_3D('',#1185,#982,#983);
#814=AXIS2_PLACEMENT_3D('',#1191,#987,#988);
#815=AXIS2_PLACEMENT_3D('',#1197,#992,#993);
#816=AXIS2_PLACEMENT_3D('',#1200,#996,#997);
#817=AXIS2_PLACEMENT_3D('',#1201,#998,#999);
#818=AXIS2_PLACEMENT_3D('',#1202,#1000,#1001);
#819=AXIS2_PLACEMENT_3D('',#1211,#1006,#1007);
#820=AXIS2_PLACEMENT_3D('',#1217,#1011,#1012);
#821=AXIS2_PLACEMENT_3D('',#1223,#1016,#1017);
#822=AXIS2_PLACEMENT_3D('',#1226,#1020,#1021);
#823=AXIS2_PLACEMENT_3D('',#1227,#1022,#1023);
#824=DIRECTION('',(0.,0.,1.));
#825=DIRECTION('',(1.,0.,0.));
#826=DIRECTION('',(1.,0.,0.));
#827=DIRECTION('',(0.,0.,-1.));
#828=DIRECTION('',(0.,-1.,0.));
#829=DIRECTION('',(0.,0.,-1.));
#830=DIRECTION('',(0.,-1.,0.));
#831=DIRECTION('',(0.,0.,-1.));
#832=DIRECTION('',(0.,0.,-1.));
#833=DIRECTION('',(-1.,0.,0.));
#834=DIRECTION('',(0.,0.,1.));
#835=DIRECTION('',(1.,0.,0.));
#836=DIRECTION('',(0.,0.,1.));
#837=DIRECTION('',(1.,0.,0.));
#838=DIRECTION('',(0.,0.,-1.));
#839=DIRECTION('',(-1.,0.,0.));
#840=DIRECTION('',(0.,0.,1.));
#841=DIRECTION('',(1.,0.,0.));
#842=DIRECTION('',(0.,0.,-1.));
#843=DIRECTION('',(0.,0.,1.));
#844=DIRECTION('',(1.,0.,0.));
#845=DIRECTION('',(0.,0.,-1.));
#846=DIRECTION('',(-1.,0.,0.));
#847=DIRECTION('',(0.,0.,1.));
#848=DIRECTION('',(1.,0.,0.));
#849=DIRECTION('',(0.,0.,-1.));
#850=DIRECTION('',(0.,0.,1.));
#851=DIRECTION('',(1.,0.,0.));
#852=DIRECTION('',(0.,0.,-1.));
#853=DIRECTION('',(0.,0.,-1.));
#854=DIRECTION('',(-1.,0.,0.));
#855=DIRECTION('',(0.,0.,1.));
#856=DIRECTION('',(1.,0.,0.));
#857=DIRECTION('',(0.,0.,-1.));
#858=DIRECTION('',(0.,0.,1.));
#859=DIRECTION('',(1.,0.,0.));
#860=DIRECTION('',(0.,0.,-1.));
#861=DIRECTION('',(0.,1.,0.));
#862=DIRECTION('',(0.,0.,1.));
#863=DIRECTION('',(0.,0.,-1.));
#864=DIRECTION('',(-1.,0.,0.));
#865=DIRECTION('',(0.,0.,-1.));
#866=DIRECTION('',(1.,0.,0.));
#867=DIRECTION('',(0.,0.,-1.));
#868=DIRECTION('',(1.,0.,0.));
#869=DIRECTION('',(1.,0.,0.));
#870=DIRECTION('',(1.,0.,0.));
#871=DIRECTION('',(0.,0.,-1.));
#872=DIRECTION('',(0.,0.,-1.));
#873=DIRECTION('',(0.,-1.,0.));
#874=DIRECTION('',(0.,-1.,0.));
#875=DIRECTION('',(0.,1.,0.));
#876=DIRECTION('',(0.,0.,1.));
#877=DIRECTION('',(1.,0.,0.));
#878=DIRECTION('',(1.,0.,0.));
#879=DIRECTION('',(0.,1.,0.));
#880=DIRECTION('',(0.,0.,1.));
#881=DIRECTION('',(1.,0.,0.));
#882=DIRECTION('',(1.,0.,0.));
#883=DIRECTION('',(1.,0.,0.));
#884=DIRECTION('',(0.,0.,-1.));
#885=DIRECTION('',(0.,-1.,0.));
#886=DIRECTION('',(0.,-1.,0.));
#887=DIRECTION('',(0.,0.,1.));
#888=DIRECTION('',(1.,0.,0.));
#889=DIRECTION('',(0.,0.,1.));
#890=DIRECTION('',(1.,0.,0.));
#891=DIRECTION('',(0.,0.,1.));
#892=DIRECTION('',(1.,0.,0.));
#893=DIRECTION('',(0.,0.,1.));
#894=DIRECTION('',(1.,0.,0.));
#895=DIRECTION('',(0.,0.,1.));
#896=DIRECTION('',(1.,0.,0.));
#897=DIRECTION('',(1.,0.,0.));
#898=DIRECTION('',(0.,-1.,0.));
#899=DIRECTION('',(1.,0.,0.));
#900=DIRECTION('',(0.,-1.,0.));
#901=DIRECTION('',(0.,-1.,0.));
#902=DIRECTION('',(0.,0.,1.));
#903=DIRECTION('',(1.,0.,0.));
#904=DIRECTION('',(1.,0.,0.));
#905=DIRECTION('',(0.,0.,1.));
#906=DIRECTION('',(1.,0.,0.));
#907=DIRECTION('',(0.,0.,1.));
#908=DIRECTION('',(1.,0.,0.));
#909=DIRECTION('',(0.,0.,-1.));
#910=DIRECTION('',(-1.,0.,0.));
#911=DIRECTION('',(0.,0.,-1.));
#912=DIRECTION('',(0.,0.,1.));
#913=DIRECTION('',(1.,0.,0.));
#914=DIRECTION('',(0.,0.,-1.));
#915=DIRECTION('',(1.,0.,0.));
#916=DIRECTION('',(0.,0.,-1.));
#917=DIRECTION('',(0.,0.,-1.));
#918=DIRECTION('',(0.,-1.,0.));
#919=DIRECTION('',(0.,1.,0.));
#920=DIRECTION('',(0.,0.,1.));
#921=DIRECTION('',(1.,0.,0.));
#922=DIRECTION('',(0.,0.,1.));
#923=DIRECTION('',(1.,0.,0.));
#924=DIRECTION('',(0.,0.,-1.));
#925=DIRECTION('',(-1.,0.,0.));
#926=DIRECTION('',(0.,0.,1.));
#927=DIRECTION('',(1.,0.,0.));
#928=DIRECTION('',(0.,0.,-1.));
#929=DIRECTION('',(-1.,0.,0.));
#930=DIRECTION('',(0.,0.,1.));
#931=DIRECTION('',(1.,0.,0.));
#932=DIRECTION('',(0.,0.,-1.));
#933=DIRECTION('',(-1.,0.,0.));
#934=DIRECTION('',(0.,0.,1.));
#935=DIRECTION('',(1.,0.,0.));
#936=DIRECTION('',(0.,0.,-1.));
#937=DIRECTION('',(-1.,0.,0.));
#938=DIRECTION('',(0.,0.,1.));
#939=DIRECTION('',(1.,0.,0.));
#940=DIRECTION('',(0.,0.,1.));
#941=DIRECTION('',(1.,0.,0.));
#942=DIRECTION('',(1.,0.,0.));
#943=DIRECTION('',(0.,-1.,0.));
#944=DIRECTION('',(1.,0.,0.));
#945=DIRECTION('',(0.,-1.,0.));
#946=DIRECTION('',(1.,0.,0.));
#947=DIRECTION('',(0.,0.,-1.));
#948=DIRECTION('',(0.,0.,-1.));
#949=DIRECTION('',(0.,0.,-1.));
#950=DIRECTION('',(0.,1.,0.));
#951=DIRECTION('',(0.,0.,1.));
#952=DIRECTION('',(-1.,0.,0.));
#953=DIRECTION('',(0.,0.,-1.));
#954=DIRECTION('',(1.,0.,0.));
#955=DIRECTION('',(0.,0.,-1.));
#956=DIRECTION('',(0.,0.,-1.));
#957=DIRECTION('',(1.,0.,0.));
#958=DIRECTION('',(0.,0.,-1.));
#959=DIRECTION('',(0.,0.,-1.));
#960=DIRECTION('',(0.,1.,0.));
#961=DIRECTION('',(0.,0.,1.));
#962=DIRECTION('',(1.,0.,0.));
#963=DIRECTION('',(0.,0.,-1.));
#964=DIRECTION('',(0.,1.,0.));
#965=DIRECTION('',(0.,1.,0.));
#966=DIRECTION('',(0.,0.,-1.));
#967=DIRECTION('',(-1.,0.,0.));
#968=DIRECTION('',(0.,1.,0.));
#969=DIRECTION('',(1.,0.,0.));
#970=DIRECTION('',(0.,0.,-1.));
#971=DIRECTION('',(0.,1.,0.));
#972=DIRECTION('',(0.,0.,1.));
#973=DIRECTION('',(1.,0.,0.));
#974=DIRECTION('',(0.,0.,1.));
#975=DIRECTION('',(1.,0.,0.));
#976=DIRECTION('',(1.,0.,0.));
#977=DIRECTION('',(0.,0.,-1.));
#978=DIRECTION('',(0.,0.,-1.));
#979=DIRECTION('',(0.,1.,0.));
#980=DIRECTION('',(0.,0.,-1.));
#981=DIRECTION('',(0.,1.,0.));
#982=DIRECTION('',(0.,0.,-1.));
#983=DIRECTION('',(-1.,0.,0.));
#984=DIRECTION('',(-1.,0.,0.));
#985=DIRECTION('',(0.,1.,0.));
#986=DIRECTION('',(-1.,0.,0.));
#987=DIRECTION('',(1.,0.,0.));
#988=DIRECTION('',(0.,0.,-1.));
#989=DIRECTION('',(0.,0.,-1.));
#990=DIRECTION('',(0.,1.,0.));
#991=DIRECTION('',(0.,0.,-1.));
#992=DIRECTION('',(0.,0.,1.));
#993=DIRECTION('',(1.,0.,0.));
#994=DIRECTION('',(1.,0.,0.));
#995=DIRECTION('',(1.,0.,0.));
#996=DIRECTION('',(0.,-1.,0.));
#997=DIRECTION('',(1.,0.,0.));
#998=DIRECTION('',(0.,-1.,0.));
#999=DIRECTION('',(1.,0.,0.));
#1000=DIRECTION('',(1.,0.,0.));
#1001=DIRECTION('',(0.,0.,-1.));
#1002=DIRECTION('',(0.,0.,-1.));
#1003=DIRECTION('',(0.,1.,0.));
#1004=DIRECTION('',(0.,0.,-1.));
#1005=DIRECTION('',(0.,1.,0.));
#1006=DIRECTION('',(0.,0.,-1.));
#1007=DIRECTION('',(-1.,0.,0.));
#1008=DIRECTION('',(-1.,0.,0.));
#1009=DIRECTION('',(-1.,0.,0.));
#1010=DIRECTION('',(0.,1.,0.));
#1011=DIRECTION('',(1.,0.,0.));
#1012=DIRECTION('',(0.,0.,-1.));
#1013=DIRECTION('',(0.,0.,-1.));
#1014=DIRECTION('',(0.,0.,-1.));
#1015=DIRECTION('',(0.,1.,0.));
#1016=DIRECTION('',(0.,0.,1.));
#1017=DIRECTION('',(1.,0.,0.));
#1018=DIRECTION('',(1.,0.,0.));
#1019=DIRECTION('',(1.,0.,0.));
#1020=DIRECTION('',(0.,-1.,0.));
#1021=DIRECTION('',(1.,0.,0.));
#1022=DIRECTION('',(0.,-1.,0.));
#1023=DIRECTION('',(1.,0.,0.));
#1024=CARTESIAN_POINT('',(0.,0.,0.));
#1025=CARTESIAN_POINT('',(0.0472078,0.000219522975385203,0.01143));
#1026=CARTESIAN_POINT('',(0.0472078,0.000219522975385203,0.));
#1027=CARTESIAN_POINT('',(0.0472078,-0.021902436252386,0.));
#1028=CARTESIAN_POINT('',(0.0472078,-0.0260875638127327,0.));
#1029=CARTESIAN_POINT('',(0.0472078,-0.021902436252386,0.01143));
#1030=CARTESIAN_POINT('',(0.0472078,-0.021902436252386,-0.018828));
#1031=CARTESIAN_POINT('',(0.0472078,0.000219522975385203,-0.018828));
#1032=CARTESIAN_POINT('',(0.0472078,-0.0260875638127327,-0.018828));
#1033=CARTESIAN_POINT('',(0.0472078,-0.0260875638127327,0.01143));
#1034=CARTESIAN_POINT('',(-0.041778022,-0.019586,0.01143));
#1035=CARTESIAN_POINT('',(-0.041778022,-0.019586,-0.018828));
#1036=CARTESIAN_POINT('',(-0.0364795895837908,-0.019586,-0.018828));
#1037=CARTESIAN_POINT('',(-0.041778022,-0.019586,0.));
#1038=CARTESIAN_POINT('',(-0.0364795895837908,-0.019586,0.));
#1039=CARTESIAN_POINT('',(0.042721978,-0.019086,0.01143));
#1040=CARTESIAN_POINT('',(0.042721978,-0.019086,0.));
#1041=CARTESIAN_POINT('',(0.0472078,-0.016269563747614,0.));
#1042=CARTESIAN_POINT('',(0.0472078,-0.016269563747614,0.01143));
#1043=CARTESIAN_POINT('',(0.0472078,-0.016269563747614,-0.018828));
#1044=CARTESIAN_POINT('',(0.042721978,-0.019086,-0.018828));
#1045=CARTESIAN_POINT('',(0.042971978,0.022914,0.01143));
#1046=CARTESIAN_POINT('',(0.042971978,0.022914,0.));
#1047=CARTESIAN_POINT('',(0.0390891687020171,0.0265266097635031,0.));
#1048=CARTESIAN_POINT('',(0.0472078,0.0197226101253253,0.));
#1049=CARTESIAN_POINT('',(0.0390891687020171,0.0265266097635031,0.01143));
#1050=CARTESIAN_POINT('',(0.0390891687020171,0.0265266097635031,-0.018828));
#1051=CARTESIAN_POINT('',(0.042971978,0.022914,-0.018828));
#1052=CARTESIAN_POINT('',(0.0472078,0.0197226101253253,-0.018828));
#1053=CARTESIAN_POINT('',(0.0472078,0.0197226101253253,0.01143));
#1054=CARTESIAN_POINT('',(-0.041778022,0.022414,0.01143));
#1055=CARTESIAN_POINT('',(-0.041778022,0.022414,0.));
#1056=CARTESIAN_POINT('',(-0.0451206673052118,0.0265266097635031,0.));
#1057=CARTESIAN_POINT('',(-0.0384353766947882,0.0265266097635031,0.));
#1058=CARTESIAN_POINT('',(-0.0451206673052118,0.0265266097635031,0.01143));
#1059=CARTESIAN_POINT('',(-0.0451206673052118,0.0265266097635031,-0.018828));
#1060=CARTESIAN_POINT('',(-0.041778022,0.022414,-0.018828));
#1061=CARTESIAN_POINT('',(-0.0384353766947882,0.0265266097635031,-0.018828));
#1062=CARTESIAN_POINT('',(-0.0384353766947882,0.0265266097635031,0.01143));
#1063=CARTESIAN_POINT('',(-8.63665387630663E-6,-0.0260875638127327,0.01143));
#1064=CARTESIAN_POINT('',(0.031256,-0.0260875638127327,0.01143));
#1065=CARTESIAN_POINT('',(0.031256,-0.0260875638127327,-0.000384));
#1066=CARTESIAN_POINT('',(0.031256,-0.0260875638127327,-0.018284));
#1067=CARTESIAN_POINT('',(-8.63665387630663E-6,-0.0260875638127327,-0.000384));
#1068=CARTESIAN_POINT('',(-0.031244,-0.0260875638127327,-0.000384));
#1069=CARTESIAN_POINT('',(-0.031244,-0.0260875638127327,0.01143));
#1070=CARTESIAN_POINT('',(-0.031244,-0.0260875638127327,-0.018284));
#1071=CARTESIAN_POINT('',(-8.63665387630663E-6,-0.0260875638127327,-0.018284));
#1072=CARTESIAN_POINT('',(-0.0472250733077526,-0.0260875638127327,0.01143));
#1073=CARTESIAN_POINT('',(-0.0472250733077526,-0.0260875638127327,0.));
#1074=CARTESIAN_POINT('',(-0.0472250733077526,-0.0260875638127327,-0.018828));
#1075=CARTESIAN_POINT('',(-8.63665387630663E-6,-0.0260875638127327,0.));
#1076=CARTESIAN_POINT('',(-8.63665387630663E-6,-0.0260875638127327,-0.018828));
#1077=CARTESIAN_POINT('',(-0.0472250733077526,0.000219522975385189,0.01143));
#1078=CARTESIAN_POINT('',(-0.0472250733077526,0.0265266097635031,0.01143));
#1079=CARTESIAN_POINT('',(-0.0472250733077526,0.0265266097635031,0.));
#1080=CARTESIAN_POINT('',(-0.0472250733077526,0.0265266097635031,-0.018828));
#1081=CARTESIAN_POINT('',(-0.0472250733077526,0.000219522975385189,0.));
#1082=CARTESIAN_POINT('',(-0.0472250733077526,0.000219522975385189,-0.018828));
#1083=CARTESIAN_POINT('',(-8.63665387630663E-6,0.0265266097635031,0.01143));
#1084=CARTESIAN_POINT('',(-8.63665387630663E-6,0.0265266097635031,0.));
#1085=CARTESIAN_POINT('',(-8.63665387630663E-6,0.0265266097635031,-0.018828));
#1086=CARTESIAN_POINT('',(-8.63665387630663E-6,0.0265266097635031,0.01143));
#1087=CARTESIAN_POINT('',(-8.63665387630663E-6,0.0265266097635031,0.));
#1088=CARTESIAN_POINT('',(-8.63665387630663E-6,0.0265266097635031,-0.018828));
#1089=CARTESIAN_POINT('',(0.0472078,0.000219522975385203,0.01143));
#1090=CARTESIAN_POINT('',(0.0472078,0.000219522975385203,0.));
#1091=CARTESIAN_POINT('',(0.0472078,0.000219522975385203,-0.018828));
#1092=CARTESIAN_POINT('',(-8.63665387630663E-6,0.000219522975385199,-0.018828));
#1093=CARTESIAN_POINT('',(0.,0.,0.));
#1094=CARTESIAN_POINT('',(-0.041778022,0.022414,0.));
#1095=CARTESIAN_POINT('',(-0.0384783204326176,0.022414,0.));
#1096=CARTESIAN_POINT('',(0.042971978,0.022914,0.));
#1097=CARTESIAN_POINT('',(0.0462754822517057,0.022914,0.));
#1098=CARTESIAN_POINT('',(0.042721978,-0.019086,0.));
#1099=CARTESIAN_POINT('',(0.0460186667939012,-0.019086,0.));
#1100=CARTESIAN_POINT('',(-8.63665387630663E-6,0.0285266097635031,0.));
#1101=CARTESIAN_POINT('',(-0.0492250733077526,0.0285266097635031,0.));
#1102=CARTESIAN_POINT('',(0.0492078,0.0285266097635031,0.));
#1103=CARTESIAN_POINT('',(-0.0492250733077526,0.000219522975385189,0.));
#1104=CARTESIAN_POINT('',(-0.0492250733077526,-0.0280875638127327,0.));
#1105=CARTESIAN_POINT('',(-8.63665387630663E-6,-0.0280875638127327,0.));
#1106=CARTESIAN_POINT('',(0.0492078,-0.0280875638127327,0.));
#1107=CARTESIAN_POINT('',(0.0492078,0.000219522975385203,0.));
#1108=CARTESIAN_POINT('',(0.0472078,0.000219522975385203,0.));
#1109=CARTESIAN_POINT('',(0.0472078,0.0265266097635031,0.));
#1110=CARTESIAN_POINT('',(0.0472078,0.0261053898746747,0.));
#1111=CARTESIAN_POINT('',(0.042971978,0.022914,0.));
#1112=CARTESIAN_POINT('',(0.0468547872979829,0.0265266097635031,0.));
#1113=CARTESIAN_POINT('',(-8.63665387630663E-6,0.0265266097635031,0.));
#1114=CARTESIAN_POINT('',(0.,0.,0.));
#1115=CARTESIAN_POINT('',(-0.041778022,-0.019586,0.));
#1116=CARTESIAN_POINT('',(-0.0384795895837908,-0.019586,0.));
#1117=CARTESIAN_POINT('',(0.042971978,0.022914,0.01143));
#1118=CARTESIAN_POINT('',(0.0472078,0.0261053898746747,0.01143));
#1119=CARTESIAN_POINT('',(0.0472078,0.0261053898746747,-0.018828));
#1120=CARTESIAN_POINT('',(0.042971978,0.022914,-0.018828));
#1121=CARTESIAN_POINT('',(0.0468547872979829,0.0265266097635031,-0.018828));
#1122=CARTESIAN_POINT('',(0.0468547872979829,0.0265266097635031,0.01143));
#1123=CARTESIAN_POINT('',(0.0472078,0.000219522975385203,0.01143));
#1124=CARTESIAN_POINT('',(0.0472078,0.0265266097635031,0.01143));
#1125=CARTESIAN_POINT('',(0.0472078,0.0265266097635031,-0.018828));
#1126=CARTESIAN_POINT('',(0.0472078,0.000219522975385203,-0.018828));
#1127=CARTESIAN_POINT('',(-8.63665387630663E-6,0.0265266097635031,0.01143));
#1128=CARTESIAN_POINT('',(-8.63665387630663E-6,0.0265266097635031,-0.018828));
#1129=CARTESIAN_POINT('',(-8.63665387630663E-6,0.000219522975385199,-0.018828));
#1130=CARTESIAN_POINT('',(-0.041778022,0.022414,0.01143));
#1131=CARTESIAN_POINT('',(-0.041778022,0.022414,-0.020828));
#1132=CARTESIAN_POINT('',(-0.0384783204326176,0.022414,-0.020828));
#1133=CARTESIAN_POINT('',(0.042971978,0.022914,0.01143));
#1134=CARTESIAN_POINT('',(0.042971978,0.022914,-0.020828));
#1135=CARTESIAN_POINT('',(0.0462754822517057,0.022914,-0.020828));
#1136=CARTESIAN_POINT('',(0.042721978,-0.019086,0.01143));
#1137=CARTESIAN_POINT('',(0.042721978,-0.019086,-0.020828));
#1138=CARTESIAN_POINT('',(0.0460186667939012,-0.019086,-0.020828));
#1139=CARTESIAN_POINT('',(-0.041778022,-0.019586,0.01143));
#1140=CARTESIAN_POINT('',(-0.041778022,-0.019586,-0.020828));
#1141=CARTESIAN_POINT('',(-0.0384795895837908,-0.019586,-0.020828));
#1142=CARTESIAN_POINT('',(-8.63665387630663E-6,0.000219522975385199,-0.020828));
#1143=CARTESIAN_POINT('',(-8.63665387630663E-6,0.0285266097635031,-0.020828));
#1144=CARTESIAN_POINT('',(-0.0492250733077526,0.0285266097635031,-0.020828));
#1145=CARTESIAN_POINT('',(0.0492078,0.0285266097635031,-0.020828));
#1146=CARTESIAN_POINT('',(0.0492078,0.000219522975385203,-0.020828));
#1147=CARTESIAN_POINT('',(0.0492078,-0.0280875638127327,-0.020828));
#1148=CARTESIAN_POINT('',(-8.63665387630663E-6,-0.0280875638127327,-0.020828));
#1149=CARTESIAN_POINT('',(-0.0492250733077526,-0.0280875638127327,-0.020828));
#1150=CARTESIAN_POINT('',(-0.0492250733077526,0.000219522975385189,-0.020828));
#1151=CARTESIAN_POINT('',(0.0492078,0.000219522975385203,0.01143));
#1152=CARTESIAN_POINT('',(0.0492078,0.0285266097635031,0.01143));
#1153=CARTESIAN_POINT('',(0.0492078,-0.0280875638127327,0.01143));
#1154=CARTESIAN_POINT('',(-8.63665387630663E-6,-0.0280875638127327,0.01143));
#1155=CARTESIAN_POINT('',(-8.63665387630663E-6,-0.0280875638127327,-0.000384));
#1156=CARTESIAN_POINT('',(0.031256,-0.0280875638127327,-0.000384));
#1157=CARTESIAN_POINT('',(-0.031244,-0.0280875638127327,-0.000384));
#1158=CARTESIAN_POINT('',(0.031256,-0.0280875638127327,0.01143));
#1159=CARTESIAN_POINT('',(0.031256,-0.0280875638127327,-0.018284));
#1160=CARTESIAN_POINT('',(-8.63665387630663E-6,-0.0280875638127327,-0.018284));
#1161=CARTESIAN_POINT('',(-0.031244,-0.0280875638127327,-0.018284));
#1162=CARTESIAN_POINT('',(-0.031244,-0.0280875638127327,0.01143));
#1163=CARTESIAN_POINT('',(-0.0492250733077526,-0.0280875638127327,0.01143));
#1164=CARTESIAN_POINT('',(-0.0492250733077526,0.000219522975385189,0.01143));
#1165=CARTESIAN_POINT('',(-0.0492250733077526,0.0285266097635031,0.01143));
#1166=CARTESIAN_POINT('',(-8.63665387630663E-6,0.0285266097635031,0.01143));
#1167=CARTESIAN_POINT('',(0.031256,-0.119923365496221,-0.009334));
#1168=CARTESIAN_POINT('',(0.031256,-0.119923365496221,-0.018284));
#1169=CARTESIAN_POINT('',(0.031256,-0.119923365496221,-0.000384));
#1170=CARTESIAN_POINT('',(6.000000000006E-6,-0.119923365496221,-0.000384));
#1171=CARTESIAN_POINT('',(-0.031244,-0.119923365496221,-0.000384));
#1172=CARTESIAN_POINT('',(-0.031244,-0.119923365496221,-0.009334));
#1173=CARTESIAN_POINT('',(-0.031244,-0.119923365496221,-0.018284));
#1174=CARTESIAN_POINT('',(5.99999999999906E-6,-0.119923365496221,-0.018284));
#1175=CARTESIAN_POINT('',(0.,0.,0.));
#1176=CARTESIAN_POINT('',(0.031256,-0.0222758,-0.009334));
#1177=CARTESIAN_POINT('',(0.031256,0.,-0.009334));
#1178=CARTESIAN_POINT('',(0.031256,0.,-0.000384));
#1179=CARTESIAN_POINT('',(0.031256,0.,-0.018284));
#1180=CARTESIAN_POINT('',(0.031256,-0.0222758,-0.000384));
#1181=CARTESIAN_POINT('',(0.031256,-0.0222758,-0.000384));
#1182=CARTESIAN_POINT('',(0.031256,-0.0222758,-0.009334));
#1183=CARTESIAN_POINT('',(0.031256,-0.0222758,-0.018284));
#1184=CARTESIAN_POINT('',(0.031256,-0.0222758,-0.018284));
#1185=CARTESIAN_POINT('',(6.000000000006E-6,-0.0222758,-0.000384));
#1186=CARTESIAN_POINT('',(6.000000000006E-6,0.,-0.000384));
#1187=CARTESIAN_POINT('',(-0.031244,0.,-0.000384));
#1188=CARTESIAN_POINT('',(-0.031244,-0.0222758,-0.000384));
#1189=CARTESIAN_POINT('',(-0.031244,-0.0222758,-0.000384));
#1190=CARTESIAN_POINT('',(6.000000000006E-6,-0.0222758,-0.000384));
#1191=CARTESIAN_POINT('',(-0.031244,-0.0222758,-0.009334));
#1192=CARTESIAN_POINT('',(-0.031244,0.,-0.009334));
#1193=CARTESIAN_POINT('',(-0.031244,0.,-0.018284));
#1194=CARTESIAN_POINT('',(-0.031244,-0.0222758,-0.018284));
#1195=CARTESIAN_POINT('',(-0.031244,-0.0222758,-0.018284));
#1196=CARTESIAN_POINT('',(-0.031244,-0.0222758,-0.009334));
#1197=CARTESIAN_POINT('',(5.99999999999906E-6,-0.0222758,-0.018284));
#1198=CARTESIAN_POINT('',(5.99999999999906E-6,0.,-0.018284));
#1199=CARTESIAN_POINT('',(5.99999999999906E-6,-0.0222758,-0.018284));
#1200=CARTESIAN_POINT('',(5.99999999999906E-6,-0.0222758,-0.009334));
#1201=CARTESIAN_POINT('',(5.99999999999906E-6,0.,-0.009334));
#1202=CARTESIAN_POINT('',(0.030256,-0.0222758,-0.009334));
#1203=CARTESIAN_POINT('',(0.030256,-0.001,-0.009334));
#1204=CARTESIAN_POINT('',(0.030256,-0.001,-0.001384));
#1205=CARTESIAN_POINT('',(0.030256,-0.001,-0.017284));
#1206=CARTESIAN_POINT('',(0.030256,-0.0222758,-0.017284));
#1207=CARTESIAN_POINT('',(0.030256,-0.0212758,-0.017284));
#1208=CARTESIAN_POINT('',(0.030256,-0.0212758,-0.009334));
#1209=CARTESIAN_POINT('',(0.030256,-0.0212758,-0.001384));
#1210=CARTESIAN_POINT('',(0.030256,-0.0222758,-0.001384));
#1211=CARTESIAN_POINT('',(6.000000000006E-6,-0.0222758,-0.001384));
#1212=CARTESIAN_POINT('',(6.000000000006E-6,-0.001,-0.001384));
#1213=CARTESIAN_POINT('',(-0.030244,-0.001,-0.001384));
#1214=CARTESIAN_POINT('',(6.000000000006E-6,-0.0212758,-0.001384));
#1215=CARTESIAN_POINT('',(-0.030244,-0.0212758,-0.001384));
#1216=CARTESIAN_POINT('',(-0.030244,-0.0222758,-0.001384));
#1217=CARTESIAN_POINT('',(-0.030244,-0.0222758,-0.009334));
#1218=CARTESIAN_POINT('',(-0.030244,-0.001,-0.009334));
#1219=CARTESIAN_POINT('',(-0.030244,-0.001,-0.017284));
#1220=CARTESIAN_POINT('',(-0.030244,-0.0212758,-0.009334));
#1221=CARTESIAN_POINT('',(-0.030244,-0.0212758,-0.017284));
#1222=CARTESIAN_POINT('',(-0.030244,-0.0222758,-0.017284));
#1223=CARTESIAN_POINT('',(5.99999999999906E-6,-0.0222758,-0.017284));
#1224=CARTESIAN_POINT('',(5.99999999999906E-6,-0.001,-0.017284));
#1225=CARTESIAN_POINT('',(5.99999999999906E-6,-0.0212758,-0.017284));
#1226=CARTESIAN_POINT('',(5.99999999999906E-6,-0.0212758,-0.009334));
#1227=CARTESIAN_POINT('',(5.99999999999906E-6,-0.001,-0.009334));
#1228=MECHANICAL_DESIGN_GEOMETRIC_PRESENTATION_REPRESENTATION('',(#741),
#1230);
#1229=MECHANICAL_DESIGN_GEOMETRIC_PRESENTATION_REPRESENTATION('',(#742),
#1231);
#1230=(
GEOMETRIC_REPRESENTATION_CONTEXT(3)
GLOBAL_UNCERTAINTY_ASSIGNED_CONTEXT((#1232))
GLOBAL_UNIT_ASSIGNED_CONTEXT((#1238,#1236,#1234))
REPRESENTATION_CONTEXT('Bottom Case','TOP_LEVEL_ASSEMBLY_PART')
);
#1231=(
GEOMETRIC_REPRESENTATION_CONTEXT(3)
GLOBAL_UNCERTAINTY_ASSIGNED_CONTEXT((#1233))
GLOBAL_UNIT_ASSIGNED_CONTEXT((#1239,#1237,#1235))
REPRESENTATION_CONTEXT('Part 35','TOP_LEVEL_ASSEMBLY_PART')
);
#1232=UNCERTAINTY_MEASURE_WITH_UNIT(LENGTH_MEASURE(1.E-8),#1238,
'DISTANCE_ACCURACY_VALUE','Maximum Tolerance applied to model');
#1233=UNCERTAINTY_MEASURE_WITH_UNIT(LENGTH_MEASURE(1.E-8),#1239,
'DISTANCE_ACCURACY_VALUE','Maximum Tolerance applied to model');
#1234=(
NAMED_UNIT(*)
SI_UNIT($,.STERADIAN.)
SOLID_ANGLE_UNIT()
);
#1235=(
NAMED_UNIT(*)
SI_UNIT($,.STERADIAN.)
SOLID_ANGLE_UNIT()
);
#1236=(
NAMED_UNIT(*)
PLANE_ANGLE_UNIT()
SI_UNIT($,.RADIAN.)
);
#1237=(
NAMED_UNIT(*)
PLANE_ANGLE_UNIT()
SI_UNIT($,.RADIAN.)
);
#1238=(
LENGTH_UNIT()
NAMED_UNIT(*)
SI_UNIT($,.METRE.)
);
#1239=(
LENGTH_UNIT()
NAMED_UNIT(*)
SI_UNIT($,.METRE.)
);
#1240=PRODUCT_DEFINITION_SHAPE('','',#1242);
#1241=PRODUCT_DEFINITION_SHAPE('','',#1243);
#1242=PRODUCT_DEFINITION('','',#1246,#1244);
#1243=PRODUCT_DEFINITION('','',#1247,#1245);
#1244=PRODUCT_DEFINITION_CONTEXT('',#1258,'design');
#1245=PRODUCT_DEFINITION_CONTEXT('',#1259,'design');
#1246=PRODUCT_DEFINITION_FORMATION_WITH_SPECIFIED_SOURCE('','',#1250,
 .NOT_KNOWN.);
#1247=PRODUCT_DEFINITION_FORMATION_WITH_SPECIFIED_SOURCE('','',#1251,
 .NOT_KNOWN.);
#1248=PRODUCT_RELATED_PRODUCT_CATEGORY('','',(#1250));
#1249=PRODUCT_RELATED_PRODUCT_CATEGORY('','',(#1251));
#1250=PRODUCT('Bottom Case','Bottom Case','Bottom Case',(#1254));
#1251=PRODUCT('Part 35','Part 35','Part 35',(#1255));
#1252=PRODUCT_CATEGORY('','');
#1253=PRODUCT_CATEGORY('','');
#1254=PRODUCT_CONTEXT('',#1258,'mechanical');
#1255=PRODUCT_CONTEXT('',#1259,'mechanical');
#1256=APPLICATION_PROTOCOL_DEFINITION('international standard',
'ap242_managed_model_based_3d_engineering',2020,#1258);
#1257=APPLICATION_PROTOCOL_DEFINITION('international standard',
'ap242_managed_model_based_3d_engineering',2020,#1259);
#1258=APPLICATION_CONTEXT('managed model based 3d engineering');
#1259=APPLICATION_CONTEXT('managed model based 3d engineering');
ENDSEC;
END-ISO-10303-21;
