ISO-10303-21;
HEADER;
/* Generated by software containing ST-Developer
 * from STEP Tools, Inc. (www.steptools.com) 
 */
/* OPTION: using custom renumber hook */

FILE_DESCRIPTION(
/* description */ ('STEP AP242 Edition 2',
'CAx-IF Rec.Pracs.---Representation and Presentation of Product Manufa
cturing Information (PMI)---4.0---2014-10-13',
'CAx-IF Rec.Pracs.---3D Tessellated Geometry---0.4---2014-09-14','2;1',
'CAx-IF Rec.Pracs.---User Defined Attributes---1.5---2016-08-15'),
/* implementation_level */ '2;1');

FILE_NAME(
/* name */ 'pcb main parts - Top Case',
/* time_stamp */ '2026-09-23T20:46:41Z',
/* author */ (''),
/* organization */ (''),
/* preprocessor_version */ 'ST-DEVELOPER v20',
/* originating_system */ 'ONSHAPE BY PTC INC, 1.221',
/* authorisation */ '  ');

FILE_SCHEMA (('AP242_MANAGED_MODEL_BASED_3D_ENGINEERING_MIM_LF { 1 0 10303 442 3 1 4 }'));
ENDSEC;

DATA;
#10=SHAPE_REPRESENTATION_RELATIONSHIP('','',#725,#11);
#11=ADVANCED_BREP_SHAPE_REPRESENTATION('',(#723),#1189);
#12=CYLINDRICAL_SURFACE('',#739,0.00329970156738238);
#13=CYLINDRICAL_SURFACE('',#742,0.00330350425170569);
#14=CYLINDRICAL_SURFACE('',#745,0.00329668879390117);
#15=CYLINDRICAL_SURFACE('',#748,0.00329843241620918);
#16=CYLINDRICAL_SURFACE('',#764,0.0053035042517057);
#17=CYLINDRICAL_SURFACE('',#765,0.00529843241620918);
#18=CYLINDRICAL_SURFACE('',#775,0.00529970156738238);
#19=CYLINDRICAL_SURFACE('',#776,0.0053035042517057);
#20=CYLINDRICAL_SURFACE('',#777,0.00529668879390117);
#21=CYLINDRICAL_SURFACE('',#780,0.00115346591693324);
#22=CYLINDRICAL_SURFACE('',#782,0.00115346591693324);
#23=CYLINDRICAL_SURFACE('',#784,0.00115346591693324);
#24=CYLINDRICAL_SURFACE('',#786,0.00115346591693324);
#25=CIRCLE('',#728,0.00115346591693324);
#26=CIRCLE('',#729,0.00115346591693324);
#27=CIRCLE('',#730,0.00115346591693324);
#28=CIRCLE('',#731,0.00115346591693324);
#29=CIRCLE('',#733,0.00115346591693324);
#30=CIRCLE('',#734,0.00115346591693324);
#31=CIRCLE('',#735,0.00115346591693324);
#32=CIRCLE('',#736,0.00115346591693324);
#33=CIRCLE('',#740,0.00329970156738238);
#34=CIRCLE('',#741,0.00329970156738238);
#35=CIRCLE('',#743,0.00330350425170569);
#36=CIRCLE('',#744,0.00330350425170569);
#37=CIRCLE('',#746,0.00329668879390117);
#38=CIRCLE('',#747,0.00329668879390117);
#39=CIRCLE('',#749,0.00329843241620918);
#40=CIRCLE('',#750,0.00329843241620918);
#41=CIRCLE('',#754,0.00529668879390117);
#42=CIRCLE('',#755,0.0053035042517057);
#43=CIRCLE('',#756,0.00529970156738238);
#44=CIRCLE('',#757,0.0053035042517057);
#45=CIRCLE('',#759,0.00529843241620918);
#46=CIRCLE('',#761,0.0053035042517057);
#47=CIRCLE('',#766,0.00529843241620918);
#48=CIRCLE('',#768,0.0053035042517057);
#49=CIRCLE('',#769,0.00529668879390117);
#50=CIRCLE('',#770,0.00529970156738238);
#51=ORIENTED_EDGE('',*,*,#239,.F.);
#52=ORIENTED_EDGE('',*,*,#240,.F.);
#53=ORIENTED_EDGE('',*,*,#241,.T.);
#54=ORIENTED_EDGE('',*,*,#242,.T.);
#55=ORIENTED_EDGE('',*,*,#243,.F.);
#56=ORIENTED_EDGE('',*,*,#244,.T.);
#57=ORIENTED_EDGE('',*,*,#245,.F.);
#58=ORIENTED_EDGE('',*,*,#246,.T.);
#59=ORIENTED_EDGE('',*,*,#247,.F.);
#60=ORIENTED_EDGE('',*,*,#248,.F.);
#61=ORIENTED_EDGE('',*,*,#249,.F.);
#62=ORIENTED_EDGE('',*,*,#250,.F.);
#63=ORIENTED_EDGE('',*,*,#251,.F.);
#64=ORIENTED_EDGE('',*,*,#252,.T.);
#65=ORIENTED_EDGE('',*,*,#253,.T.);
#66=ORIENTED_EDGE('',*,*,#254,.F.);
#67=ORIENTED_EDGE('',*,*,#255,.F.);
#68=ORIENTED_EDGE('',*,*,#256,.T.);
#69=ORIENTED_EDGE('',*,*,#257,.T.);
#70=ORIENTED_EDGE('',*,*,#258,.T.);
#71=ORIENTED_EDGE('',*,*,#259,.T.);
#72=ORIENTED_EDGE('',*,*,#260,.T.);
#73=ORIENTED_EDGE('',*,*,#261,.F.);
#74=ORIENTED_EDGE('',*,*,#262,.T.);
#75=ORIENTED_EDGE('',*,*,#240,.T.);
#76=ORIENTED_EDGE('',*,*,#263,.T.);
#77=ORIENTED_EDGE('',*,*,#264,.F.);
#78=ORIENTED_EDGE('',*,*,#265,.F.);
#79=ORIENTED_EDGE('',*,*,#264,.T.);
#80=ORIENTED_EDGE('',*,*,#266,.T.);
#81=ORIENTED_EDGE('',*,*,#267,.F.);
#82=ORIENTED_EDGE('',*,*,#268,.F.);
#83=ORIENTED_EDGE('',*,*,#269,.F.);
#84=ORIENTED_EDGE('',*,*,#270,.T.);
#85=ORIENTED_EDGE('',*,*,#271,.F.);
#86=ORIENTED_EDGE('',*,*,#272,.T.);
#87=ORIENTED_EDGE('',*,*,#273,.F.);
#88=ORIENTED_EDGE('',*,*,#274,.T.);
#89=ORIENTED_EDGE('',*,*,#275,.F.);
#90=ORIENTED_EDGE('',*,*,#276,.T.);
#91=ORIENTED_EDGE('',*,*,#277,.F.);
#92=ORIENTED_EDGE('',*,*,#242,.F.);
#93=ORIENTED_EDGE('',*,*,#278,.T.);
#94=ORIENTED_EDGE('',*,*,#267,.T.);
#95=ORIENTED_EDGE('',*,*,#279,.F.);
#96=ORIENTED_EDGE('',*,*,#280,.F.);
#97=ORIENTED_EDGE('',*,*,#281,.T.);
#98=ORIENTED_EDGE('',*,*,#282,.T.);
#99=ORIENTED_EDGE('',*,*,#276,.F.);
#100=ORIENTED_EDGE('',*,*,#274,.F.);
#101=ORIENTED_EDGE('',*,*,#272,.F.);
#102=ORIENTED_EDGE('',*,*,#270,.F.);
#103=ORIENTED_EDGE('',*,*,#241,.F.);
#104=ORIENTED_EDGE('',*,*,#265,.T.);
#105=ORIENTED_EDGE('',*,*,#268,.T.);
#106=ORIENTED_EDGE('',*,*,#278,.F.);
#107=ORIENTED_EDGE('',*,*,#269,.T.);
#108=ORIENTED_EDGE('',*,*,#271,.T.);
#109=ORIENTED_EDGE('',*,*,#273,.T.);
#110=ORIENTED_EDGE('',*,*,#239,.T.);
#111=ORIENTED_EDGE('',*,*,#277,.T.);
#112=ORIENTED_EDGE('',*,*,#266,.F.);
#113=ORIENTED_EDGE('',*,*,#263,.F.);
#114=ORIENTED_EDGE('',*,*,#283,.T.);
#115=ORIENTED_EDGE('',*,*,#284,.T.);
#116=ORIENTED_EDGE('',*,*,#285,.F.);
#117=ORIENTED_EDGE('',*,*,#286,.F.);
#118=ORIENTED_EDGE('',*,*,#287,.F.);
#119=ORIENTED_EDGE('',*,*,#288,.F.);
#120=ORIENTED_EDGE('',*,*,#252,.F.);
#121=ORIENTED_EDGE('',*,*,#289,.F.);
#122=ORIENTED_EDGE('',*,*,#290,.F.);
#123=ORIENTED_EDGE('',*,*,#291,.F.);
#124=ORIENTED_EDGE('',*,*,#292,.F.);
#125=ORIENTED_EDGE('',*,*,#293,.F.);
#126=ORIENTED_EDGE('',*,*,#275,.T.);
#127=ORIENTED_EDGE('',*,*,#294,.F.);
#128=ORIENTED_EDGE('',*,*,#295,.T.);
#129=ORIENTED_EDGE('',*,*,#296,.T.);
#130=ORIENTED_EDGE('',*,*,#297,.T.);
#131=ORIENTED_EDGE('',*,*,#298,.F.);
#132=ORIENTED_EDGE('',*,*,#292,.T.);
#133=ORIENTED_EDGE('',*,*,#299,.F.);
#134=ORIENTED_EDGE('',*,*,#295,.F.);
#135=ORIENTED_EDGE('',*,*,#299,.T.);
#136=ORIENTED_EDGE('',*,*,#291,.T.);
#137=ORIENTED_EDGE('',*,*,#300,.T.);
#138=ORIENTED_EDGE('',*,*,#296,.F.);
#139=ORIENTED_EDGE('',*,*,#300,.F.);
#140=ORIENTED_EDGE('',*,*,#293,.T.);
#141=ORIENTED_EDGE('',*,*,#298,.T.);
#142=ORIENTED_EDGE('',*,*,#297,.F.);
#143=ORIENTED_EDGE('',*,*,#294,.T.);
#144=ORIENTED_EDGE('',*,*,#301,.F.);
#145=ORIENTED_EDGE('',*,*,#302,.T.);
#146=ORIENTED_EDGE('',*,*,#303,.T.);
#147=ORIENTED_EDGE('',*,*,#304,.F.);
#148=ORIENTED_EDGE('',*,*,#305,.F.);
#149=ORIENTED_EDGE('',*,*,#301,.T.);
#150=ORIENTED_EDGE('',*,*,#254,.T.);
#151=ORIENTED_EDGE('',*,*,#306,.T.);
#152=ORIENTED_EDGE('',*,*,#307,.T.);
#153=ORIENTED_EDGE('',*,*,#308,.T.);
#154=ORIENTED_EDGE('',*,*,#309,.T.);
#155=ORIENTED_EDGE('',*,*,#310,.F.);
#156=ORIENTED_EDGE('',*,*,#311,.F.);
#157=ORIENTED_EDGE('',*,*,#312,.T.);
#158=ORIENTED_EDGE('',*,*,#313,.T.);
#159=ORIENTED_EDGE('',*,*,#314,.F.);
#160=ORIENTED_EDGE('',*,*,#287,.T.);
#161=ORIENTED_EDGE('',*,*,#315,.T.);
#162=ORIENTED_EDGE('',*,*,#307,.F.);
#163=ORIENTED_EDGE('',*,*,#316,.T.);
#164=ORIENTED_EDGE('',*,*,#290,.T.);
#165=ORIENTED_EDGE('',*,*,#317,.T.);
#166=ORIENTED_EDGE('',*,*,#312,.F.);
#167=ORIENTED_EDGE('',*,*,#283,.F.);
#168=ORIENTED_EDGE('',*,*,#316,.F.);
#169=ORIENTED_EDGE('',*,*,#311,.T.);
#170=ORIENTED_EDGE('',*,*,#318,.T.);
#171=ORIENTED_EDGE('',*,*,#284,.F.);
#172=ORIENTED_EDGE('',*,*,#318,.F.);
#173=ORIENTED_EDGE('',*,*,#310,.T.);
#174=ORIENTED_EDGE('',*,*,#319,.T.);
#175=ORIENTED_EDGE('',*,*,#317,.F.);
#176=ORIENTED_EDGE('',*,*,#289,.T.);
#177=ORIENTED_EDGE('',*,*,#251,.T.);
#178=ORIENTED_EDGE('',*,*,#313,.F.);
#179=ORIENTED_EDGE('',*,*,#253,.F.);
#180=ORIENTED_EDGE('',*,*,#288,.T.);
#181=ORIENTED_EDGE('',*,*,#314,.T.);
#182=ORIENTED_EDGE('',*,*,#306,.F.);
#183=ORIENTED_EDGE('',*,*,#315,.F.);
#184=ORIENTED_EDGE('',*,*,#286,.T.);
#185=ORIENTED_EDGE('',*,*,#320,.T.);
#186=ORIENTED_EDGE('',*,*,#308,.F.);
#187=ORIENTED_EDGE('',*,*,#320,.F.);
#188=ORIENTED_EDGE('',*,*,#285,.T.);
#189=ORIENTED_EDGE('',*,*,#319,.F.);
#190=ORIENTED_EDGE('',*,*,#309,.F.);
#191=ORIENTED_EDGE('',*,*,#321,.T.);
#192=ORIENTED_EDGE('',*,*,#255,.T.);
#193=ORIENTED_EDGE('',*,*,#322,.F.);
#194=ORIENTED_EDGE('',*,*,#244,.F.);
#195=ORIENTED_EDGE('',*,*,#245,.T.);
#196=ORIENTED_EDGE('',*,*,#322,.T.);
#197=ORIENTED_EDGE('',*,*,#262,.F.);
#198=ORIENTED_EDGE('',*,*,#323,.F.);
#199=ORIENTED_EDGE('',*,*,#323,.T.);
#200=ORIENTED_EDGE('',*,*,#261,.T.);
#201=ORIENTED_EDGE('',*,*,#324,.F.);
#202=ORIENTED_EDGE('',*,*,#246,.F.);
#203=ORIENTED_EDGE('',*,*,#247,.T.);
#204=ORIENTED_EDGE('',*,*,#324,.T.);
#205=ORIENTED_EDGE('',*,*,#260,.F.);
#206=ORIENTED_EDGE('',*,*,#325,.F.);
#207=ORIENTED_EDGE('',*,*,#248,.T.);
#208=ORIENTED_EDGE('',*,*,#325,.T.);
#209=ORIENTED_EDGE('',*,*,#259,.F.);
#210=ORIENTED_EDGE('',*,*,#326,.F.);
#211=ORIENTED_EDGE('',*,*,#249,.T.);
#212=ORIENTED_EDGE('',*,*,#326,.T.);
#213=ORIENTED_EDGE('',*,*,#258,.F.);
#214=ORIENTED_EDGE('',*,*,#327,.F.);
#215=ORIENTED_EDGE('',*,*,#250,.T.);
#216=ORIENTED_EDGE('',*,*,#327,.T.);
#217=ORIENTED_EDGE('',*,*,#257,.F.);
#218=ORIENTED_EDGE('',*,*,#328,.F.);
#219=ORIENTED_EDGE('',*,*,#243,.T.);
#220=ORIENTED_EDGE('',*,*,#328,.T.);
#221=ORIENTED_EDGE('',*,*,#256,.F.);
#222=ORIENTED_EDGE('',*,*,#321,.F.);
#223=ORIENTED_EDGE('',*,*,#279,.T.);
#224=ORIENTED_EDGE('',*,*,#329,.T.);
#225=ORIENTED_EDGE('',*,*,#303,.F.);
#226=ORIENTED_EDGE('',*,*,#330,.F.);
#227=ORIENTED_EDGE('',*,*,#331,.T.);
#228=ORIENTED_EDGE('',*,*,#304,.T.);
#229=ORIENTED_EDGE('',*,*,#329,.F.);
#230=ORIENTED_EDGE('',*,*,#282,.F.);
#231=ORIENTED_EDGE('',*,*,#332,.T.);
#232=ORIENTED_EDGE('',*,*,#305,.T.);
#233=ORIENTED_EDGE('',*,*,#331,.F.);
#234=ORIENTED_EDGE('',*,*,#281,.F.);
#235=ORIENTED_EDGE('',*,*,#280,.T.);
#236=ORIENTED_EDGE('',*,*,#330,.T.);
#237=ORIENTED_EDGE('',*,*,#302,.F.);
#238=ORIENTED_EDGE('',*,*,#332,.F.);
#239=EDGE_CURVE('',#333,#334,#399,.T.);
#240=EDGE_CURVE('',#335,#333,#400,.T.);
#241=EDGE_CURVE('',#335,#336,#401,.T.);
#242=EDGE_CURVE('',#336,#334,#402,.T.);
#243=EDGE_CURVE('',#337,#338,#25,.T.);
#244=EDGE_CURVE('',#337,#339,#403,.T.);
#245=EDGE_CURVE('',#340,#339,#26,.T.);
#246=EDGE_CURVE('',#340,#341,#404,.T.);
#247=EDGE_CURVE('',#342,#341,#27,.T.);
#248=EDGE_CURVE('',#343,#342,#405,.T.);
#249=EDGE_CURVE('',#344,#343,#28,.T.);
#250=EDGE_CURVE('',#338,#344,#406,.T.);
#251=EDGE_CURVE('',#345,#346,#407,.F.);
#252=EDGE_CURVE('',#345,#347,#408,.T.);
#253=EDGE_CURVE('',#347,#348,#409,.F.);
#254=EDGE_CURVE('',#346,#348,#410,.T.);
#255=EDGE_CURVE('',#349,#350,#411,.T.);
#256=EDGE_CURVE('',#349,#351,#29,.T.);
#257=EDGE_CURVE('',#351,#352,#412,.T.);
#258=EDGE_CURVE('',#352,#353,#30,.T.);
#259=EDGE_CURVE('',#353,#354,#413,.T.);
#260=EDGE_CURVE('',#354,#355,#31,.T.);
#261=EDGE_CURVE('',#356,#355,#414,.T.);
#262=EDGE_CURVE('',#356,#350,#32,.T.);
#263=EDGE_CURVE('',#333,#357,#415,.T.);
#264=EDGE_CURVE('',#358,#357,#416,.T.);
#265=EDGE_CURVE('',#335,#358,#417,.T.);
#266=EDGE_CURVE('',#357,#359,#418,.T.);
#267=EDGE_CURVE('',#360,#359,#419,.T.);
#268=EDGE_CURVE('',#358,#360,#420,.T.);
#269=EDGE_CURVE('',#361,#361,#33,.T.);
#270=EDGE_CURVE('',#362,#362,#34,.T.);
#271=EDGE_CURVE('',#363,#363,#35,.T.);
#272=EDGE_CURVE('',#364,#364,#36,.T.);
#273=EDGE_CURVE('',#365,#365,#37,.T.);
#274=EDGE_CURVE('',#366,#366,#38,.T.);
#275=EDGE_CURVE('',#367,#367,#39,.T.);
#276=EDGE_CURVE('',#368,#368,#40,.T.);
#277=EDGE_CURVE('',#334,#359,#421,.T.);
#278=EDGE_CURVE('',#336,#360,#422,.T.);
#279=EDGE_CURVE('',#369,#370,#423,.T.);
#280=EDGE_CURVE('',#371,#369,#424,.T.);
#281=EDGE_CURVE('',#371,#372,#425,.T.);
#282=EDGE_CURVE('',#372,#370,#426,.T.);
#283=EDGE_CURVE('',#373,#374,#427,.T.);
#284=EDGE_CURVE('',#374,#375,#428,.T.);
#285=EDGE_CURVE('',#376,#375,#429,.T.);
#286=EDGE_CURVE('',#377,#376,#41,.T.);
#287=EDGE_CURVE('',#378,#377,#430,.T.);
#288=EDGE_CURVE('',#347,#378,#42,.T.);
#289=EDGE_CURVE('',#379,#345,#43,.T.);
#290=EDGE_CURVE('',#373,#379,#431,.T.);
#291=EDGE_CURVE('',#380,#381,#432,.T.);
#292=EDGE_CURVE('',#382,#380,#433,.T.);
#293=EDGE_CURVE('',#381,#382,#44,.T.);
#294=EDGE_CURVE('',#383,#383,#45,.T.);
#295=EDGE_CURVE('',#384,#385,#434,.T.);
#296=EDGE_CURVE('',#385,#386,#435,.T.);
#297=EDGE_CURVE('',#386,#384,#46,.T.);
#298=EDGE_CURVE('',#382,#384,#436,.F.);
#299=EDGE_CURVE('',#385,#380,#437,.T.);
#300=EDGE_CURVE('',#381,#386,#438,.F.);
#301=EDGE_CURVE('',#387,#387,#47,.T.);
#302=EDGE_CURVE('',#388,#389,#439,.T.);
#303=EDGE_CURVE('',#389,#390,#440,.T.);
#304=EDGE_CURVE('',#391,#390,#441,.T.);
#305=EDGE_CURVE('',#388,#391,#442,.T.);
#306=EDGE_CURVE('',#348,#392,#48,.T.);
#307=EDGE_CURVE('',#392,#393,#443,.T.);
#308=EDGE_CURVE('',#393,#394,#49,.T.);
#309=EDGE_CURVE('',#394,#395,#444,.T.);
#310=EDGE_CURVE('',#396,#395,#445,.T.);
#311=EDGE_CURVE('',#397,#396,#446,.T.);
#312=EDGE_CURVE('',#397,#398,#447,.T.);
#313=EDGE_CURVE('',#398,#346,#50,.T.);
#314=EDGE_CURVE('',#378,#392,#448,.F.);
#315=EDGE_CURVE('',#377,#393,#449,.F.);
#316=EDGE_CURVE('',#397,#373,#450,.T.);
#317=EDGE_CURVE('',#379,#398,#451,.F.);
#318=EDGE_CURVE('',#396,#374,#452,.T.);
#319=EDGE_CURVE('',#395,#375,#453,.T.);
#320=EDGE_CURVE('',#376,#394,#454,.F.);
#321=EDGE_CURVE('',#337,#349,#455,.T.);
#322=EDGE_CURVE('',#339,#350,#456,.T.);
#323=EDGE_CURVE('',#340,#356,#457,.T.);
#324=EDGE_CURVE('',#341,#355,#458,.T.);
#325=EDGE_CURVE('',#342,#354,#459,.T.);
#326=EDGE_CURVE('',#343,#353,#460,.T.);
#327=EDGE_CURVE('',#344,#352,#461,.T.);
#328=EDGE_CURVE('',#338,#351,#462,.T.);
#329=EDGE_CURVE('',#370,#390,#463,.T.);
#330=EDGE_CURVE('',#369,#389,#464,.T.);
#331=EDGE_CURVE('',#372,#391,#465,.T.);
#332=EDGE_CURVE('',#371,#388,#466,.T.);
#333=VERTEX_POINT('',#992);
#334=VERTEX_POINT('',#993);
#335=VERTEX_POINT('',#995);
#336=VERTEX_POINT('',#997);
#337=VERTEX_POINT('',#1000);
#338=VERTEX_POINT('',#1001);
#339=VERTEX_POINT('',#1003);
#340=VERTEX_POINT('',#1005);
#341=VERTEX_POINT('',#1007);
#342=VERTEX_POINT('',#1009);
#343=VERTEX_POINT('',#1011);
#344=VERTEX_POINT('',#1013);
#345=VERTEX_POINT('',#1017);
#346=VERTEX_POINT('',#1018);
#347=VERTEX_POINT('',#1020);
#348=VERTEX_POINT('',#1022);
#349=VERTEX_POINT('',#1025);
#350=VERTEX_POINT('',#1026);
#351=VERTEX_POINT('',#1028);
#352=VERTEX_POINT('',#1030);
#353=VERTEX_POINT('',#1032);
#354=VERTEX_POINT('',#1034);
#355=VERTEX_POINT('',#1036);
#356=VERTEX_POINT('',#1038);
#357=VERTEX_POINT('',#1042);
#358=VERTEX_POINT('',#1044);
#359=VERTEX_POINT('',#1048);
#360=VERTEX_POINT('',#1050);
#361=VERTEX_POINT('',#1054);
#362=VERTEX_POINT('',#1056);
#363=VERTEX_POINT('',#1059);
#364=VERTEX_POINT('',#1061);
#365=VERTEX_POINT('',#1064);
#366=VERTEX_POINT('',#1066);
#367=VERTEX_POINT('',#1069);
#368=VERTEX_POINT('',#1071);
#369=VERTEX_POINT('',#1077);
#370=VERTEX_POINT('',#1078);
#371=VERTEX_POINT('',#1080);
#372=VERTEX_POINT('',#1082);
#373=VERTEX_POINT('',#1086);
#374=VERTEX_POINT('',#1087);
#375=VERTEX_POINT('',#1089);
#376=VERTEX_POINT('',#1091);
#377=VERTEX_POINT('',#1093);
#378=VERTEX_POINT('',#1095);
#379=VERTEX_POINT('',#1098);
#380=VERTEX_POINT('',#1101);
#381=VERTEX_POINT('',#1102);
#382=VERTEX_POINT('',#1104);
#383=VERTEX_POINT('',#1108);
#384=VERTEX_POINT('',#1111);
#385=VERTEX_POINT('',#1112);
#386=VERTEX_POINT('',#1114);
#387=VERTEX_POINT('',#1124);
#388=VERTEX_POINT('',#1127);
#389=VERTEX_POINT('',#1128);
#390=VERTEX_POINT('',#1130);
#391=VERTEX_POINT('',#1132);
#392=VERTEX_POINT('',#1135);
#393=VERTEX_POINT('',#1137);
#394=VERTEX_POINT('',#1139);
#395=VERTEX_POINT('',#1141);
#396=VERTEX_POINT('',#1143);
#397=VERTEX_POINT('',#1145);
#398=VERTEX_POINT('',#1147);
#399=LINE('',#991,#467);
#400=LINE('',#994,#468);
#401=LINE('',#996,#469);
#402=LINE('',#998,#470);
#403=LINE('',#1002,#471);
#404=LINE('',#1006,#472);
#405=LINE('',#1010,#473);
#406=LINE('',#1014,#474);
#407=LINE('',#1016,#475);
#408=LINE('',#1019,#476);
#409=LINE('',#1021,#477);
#410=LINE('',#1023,#478);
#411=LINE('',#1024,#479);
#412=LINE('',#1029,#480);
#413=LINE('',#1033,#481);
#414=LINE('',#1037,#482);
#415=LINE('',#1041,#483);
#416=LINE('',#1043,#484);
#417=LINE('',#1045,#485);
#418=LINE('',#1047,#486);
#419=LINE('',#1049,#487);
#420=LINE('',#1051,#488);
#421=LINE('',#1073,#489);
#422=LINE('',#1074,#490);
#423=LINE('',#1076,#491);
#424=LINE('',#1079,#492);
#425=LINE('',#1081,#493);
#426=LINE('',#1083,#494);
#427=LINE('',#1085,#495);
#428=LINE('',#1088,#496);
#429=LINE('',#1090,#497);
#430=LINE('',#1094,#498);
#431=LINE('',#1099,#499);
#432=LINE('',#1100,#500);
#433=LINE('',#1103,#501);
#434=LINE('',#1110,#502);
#435=LINE('',#1113,#503);
#436=LINE('',#1117,#504);
#437=LINE('',#1118,#505);
#438=LINE('',#1120,#506);
#439=LINE('',#1126,#507);
#440=LINE('',#1129,#508);
#441=LINE('',#1131,#509);
#442=LINE('',#1133,#510);
#443=LINE('',#1136,#511);
#444=LINE('',#1140,#512);
#445=LINE('',#1142,#513);
#446=LINE('',#1144,#514);
#447=LINE('',#1146,#515);
#448=LINE('',#1150,#516);
#449=LINE('',#1151,#517);
#450=LINE('',#1153,#518);
#451=LINE('',#1154,#519);
#452=LINE('',#1156,#520);
#453=LINE('',#1158,#521);
#454=LINE('',#1162,#522);
#455=LINE('',#1165,#523);
#456=LINE('',#1166,#524);
#457=LINE('',#1168,#525);
#458=LINE('',#1170,#526);
#459=LINE('',#1172,#527);
#460=LINE('',#1174,#528);
#461=LINE('',#1176,#529);
#462=LINE('',#1178,#530);
#463=LINE('',#1181,#531);
#464=LINE('',#1182,#532);
#465=LINE('',#1184,#533);
#466=LINE('',#1186,#534);
#467=VECTOR('',#795,1.);
#468=VECTOR('',#796,1.);
#469=VECTOR('',#797,1.);
#470=VECTOR('',#798,1.);
#471=VECTOR('',#801,1.);
#472=VECTOR('',#804,1.);
#473=VECTOR('',#807,1.);
#474=VECTOR('',#810,1.);
#475=VECTOR('',#813,1.);
#476=VECTOR('',#814,1.);
#477=VECTOR('',#815,1.);
#478=VECTOR('',#816,1.);
#479=VECTOR('',#817,1.);
#480=VECTOR('',#820,1.);
#481=VECTOR('',#823,1.);
#482=VECTOR('',#826,1.);
#483=VECTOR('',#831,1.);
#484=VECTOR('',#832,1.);
#485=VECTOR('',#833,1.);
#486=VECTOR('',#836,1.);
#487=VECTOR('',#837,1.);
#488=VECTOR('',#838,1.);
#489=VECTOR('',#865,1.);
#490=VECTOR('',#866,1.);
#491=VECTOR('',#869,1.);
#492=VECTOR('',#870,1.);
#493=VECTOR('',#871,1.);
#494=VECTOR('',#872,1.);
#495=VECTOR('',#875,1.);
#496=VECTOR('',#876,1.);
#497=VECTOR('',#877,1.);
#498=VECTOR('',#880,1.);
#499=VECTOR('',#885,1.);
#500=VECTOR('',#886,1.);
#501=VECTOR('',#887,1.);
#502=VECTOR('',#896,1.);
#503=VECTOR('',#897,1.);
#504=VECTOR('',#902,1.);
#505=VECTOR('',#903,1.);
#506=VECTOR('',#906,1.);
#507=VECTOR('',#915,1.);
#508=VECTOR('',#916,1.);
#509=VECTOR('',#917,1.);
#510=VECTOR('',#918,1.);
#511=VECTOR('',#921,1.);
#512=VECTOR('',#924,1.);
#513=VECTOR('',#925,1.);
#514=VECTOR('',#926,1.);
#515=VECTOR('',#927,1.);
#516=VECTOR('',#932,1.);
#517=VECTOR('',#933,1.);
#518=VECTOR('',#936,1.);
#519=VECTOR('',#937,1.);
#520=VECTOR('',#940,1.);
#521=VECTOR('',#943,1.);
#522=VECTOR('',#950,1.);
#523=VECTOR('',#955,1.);
#524=VECTOR('',#956,1.);
#525=VECTOR('',#959,1.);
#526=VECTOR('',#962,1.);
#527=VECTOR('',#965,1.);
#528=VECTOR('',#968,1.);
#529=VECTOR('',#971,1.);
#530=VECTOR('',#974,1.);
#531=VECTOR('',#979,1.);
#532=VECTOR('',#980,1.);
#533=VECTOR('',#983,1.);
#534=VECTOR('',#986,1.);
#535=EDGE_LOOP('',(#51,#52,#53,#54));
#536=EDGE_LOOP('',(#55,#56,#57,#58,#59,#60,#61,#62));
#537=EDGE_LOOP('',(#63,#64,#65,#66));
#538=EDGE_LOOP('',(#67,#68,#69,#70,#71,#72,#73,#74));
#539=EDGE_LOOP('',(#75,#76,#77,#78));
#540=EDGE_LOOP('',(#79,#80,#81,#82));
#541=EDGE_LOOP('',(#83));
#542=EDGE_LOOP('',(#84));
#543=EDGE_LOOP('',(#85));
#544=EDGE_LOOP('',(#86));
#545=EDGE_LOOP('',(#87));
#546=EDGE_LOOP('',(#88));
#547=EDGE_LOOP('',(#89));
#548=EDGE_LOOP('',(#90));
#549=EDGE_LOOP('',(#91,#92,#93,#94));
#550=EDGE_LOOP('',(#95,#96,#97,#98));
#551=EDGE_LOOP('',(#99));
#552=EDGE_LOOP('',(#100));
#553=EDGE_LOOP('',(#101));
#554=EDGE_LOOP('',(#102));
#555=EDGE_LOOP('',(#103,#104,#105,#106));
#556=EDGE_LOOP('',(#107));
#557=EDGE_LOOP('',(#108));
#558=EDGE_LOOP('',(#109));
#559=EDGE_LOOP('',(#110,#111,#112,#113));
#560=EDGE_LOOP('',(#114,#115,#116,#117,#118,#119,#120,#121,#122));
#561=EDGE_LOOP('',(#123,#124,#125));
#562=EDGE_LOOP('',(#126));
#563=EDGE_LOOP('',(#127));
#564=EDGE_LOOP('',(#128,#129,#130));
#565=EDGE_LOOP('',(#131,#132,#133,#134));
#566=EDGE_LOOP('',(#135,#136,#137,#138));
#567=EDGE_LOOP('',(#139,#140,#141,#142));
#568=EDGE_LOOP('',(#143));
#569=EDGE_LOOP('',(#144));
#570=EDGE_LOOP('',(#145,#146,#147,#148));
#571=EDGE_LOOP('',(#149));
#572=EDGE_LOOP('',(#150,#151,#152,#153,#154,#155,#156,#157,#158));
#573=EDGE_LOOP('',(#159,#160,#161,#162));
#574=EDGE_LOOP('',(#163,#164,#165,#166));
#575=EDGE_LOOP('',(#167,#168,#169,#170));
#576=EDGE_LOOP('',(#171,#172,#173,#174));
#577=EDGE_LOOP('',(#175,#176,#177,#178));
#578=EDGE_LOOP('',(#179,#180,#181,#182));
#579=EDGE_LOOP('',(#183,#184,#185,#186));
#580=EDGE_LOOP('',(#187,#188,#189,#190));
#581=EDGE_LOOP('',(#191,#192,#193,#194));
#582=EDGE_LOOP('',(#195,#196,#197,#198));
#583=EDGE_LOOP('',(#199,#200,#201,#202));
#584=EDGE_LOOP('',(#203,#204,#205,#206));
#585=EDGE_LOOP('',(#207,#208,#209,#210));
#586=EDGE_LOOP('',(#211,#212,#213,#214));
#587=EDGE_LOOP('',(#215,#216,#217,#218));
#588=EDGE_LOOP('',(#219,#220,#221,#222));
#589=EDGE_LOOP('',(#223,#224,#225,#226));
#590=EDGE_LOOP('',(#227,#228,#229,#230));
#591=EDGE_LOOP('',(#231,#232,#233,#234));
#592=EDGE_LOOP('',(#235,#236,#237,#238));
#593=FACE_BOUND('',#535,.T.);
#594=FACE_BOUND('',#536,.T.);
#595=FACE_BOUND('',#537,.T.);
#596=FACE_BOUND('',#538,.T.);
#597=FACE_BOUND('',#539,.T.);
#598=FACE_BOUND('',#540,.T.);
#599=FACE_BOUND('',#541,.T.);
#600=FACE_BOUND('',#542,.T.);
#601=FACE_BOUND('',#543,.T.);
#602=FACE_BOUND('',#544,.T.);
#603=FACE_BOUND('',#545,.T.);
#604=FACE_BOUND('',#546,.T.);
#605=FACE_BOUND('',#547,.T.);
#606=FACE_BOUND('',#548,.T.);
#607=FACE_BOUND('',#549,.T.);
#608=FACE_BOUND('',#550,.T.);
#609=FACE_BOUND('',#551,.T.);
#610=FACE_BOUND('',#552,.T.);
#611=FACE_BOUND('',#553,.T.);
#612=FACE_BOUND('',#554,.T.);
#613=FACE_BOUND('',#555,.T.);
#614=FACE_BOUND('',#556,.T.);
#615=FACE_BOUND('',#557,.T.);
#616=FACE_BOUND('',#558,.T.);
#617=FACE_BOUND('',#559,.T.);
#618=FACE_BOUND('',#560,.T.);
#619=FACE_BOUND('',#561,.T.);
#620=FACE_BOUND('',#562,.T.);
#621=FACE_BOUND('',#563,.T.);
#622=FACE_BOUND('',#564,.T.);
#623=FACE_BOUND('',#565,.T.);
#624=FACE_BOUND('',#566,.T.);
#625=FACE_BOUND('',#567,.T.);
#626=FACE_BOUND('',#568,.T.);
#627=FACE_BOUND('',#569,.T.);
#628=FACE_BOUND('',#570,.T.);
#629=FACE_BOUND('',#571,.T.);
#630=FACE_BOUND('',#572,.T.);
#631=FACE_BOUND('',#573,.T.);
#632=FACE_BOUND('',#574,.T.);
#633=FACE_BOUND('',#575,.T.);
#634=FACE_BOUND('',#576,.T.);
#635=FACE_BOUND('',#577,.T.);
#636=FACE_BOUND('',#578,.T.);
#637=FACE_BOUND('',#579,.T.);
#638=FACE_BOUND('',#580,.T.);
#639=FACE_BOUND('',#581,.T.);
#640=FACE_BOUND('',#582,.T.);
#641=FACE_BOUND('',#583,.T.);
#642=FACE_BOUND('',#584,.T.);
#643=FACE_BOUND('',#585,.T.);
#644=FACE_BOUND('',#586,.T.);
#645=FACE_BOUND('',#587,.T.);
#646=FACE_BOUND('',#588,.T.);
#647=FACE_BOUND('',#589,.T.);
#648=FACE_BOUND('',#590,.T.);
#649=FACE_BOUND('',#591,.T.);
#650=FACE_BOUND('',#592,.T.);
#651=PLANE('',#727);
#652=PLANE('',#732);
#653=PLANE('',#737);
#654=PLANE('',#738);
#655=PLANE('',#751);
#656=PLANE('',#752);
#657=PLANE('',#753);
#658=PLANE('',#758);
#659=PLANE('',#760);
#660=PLANE('',#762);
#661=PLANE('',#763);
#662=PLANE('',#767);
#663=PLANE('',#771);
#664=PLANE('',#772);
#665=PLANE('',#773);
#666=PLANE('',#774);
#667=PLANE('',#778);
#668=PLANE('',#779);
#669=PLANE('',#781);
#670=PLANE('',#783);
#671=PLANE('',#785);
#672=PLANE('',#787);
#673=PLANE('',#788);
#674=PLANE('',#789);
#675=PLANE('',#790);
#676=ADVANCED_FACE('',(#593,#594),#651,.T.);
#677=ADVANCED_FACE('',(#595,#596),#652,.F.);
#678=ADVANCED_FACE('',(#597),#653,.F.);
#679=ADVANCED_FACE('',(#598),#654,.F.);
#680=ADVANCED_FACE('',(#599,#600),#12,.F.);
#681=ADVANCED_FACE('',(#601,#602),#13,.F.);
#682=ADVANCED_FACE('',(#603,#604),#14,.F.);
#683=ADVANCED_FACE('',(#605,#606),#15,.F.);
#684=ADVANCED_FACE('',(#607),#655,.T.);
#685=ADVANCED_FACE('',(#608,#609,#610,#611,#612,#613),#656,.T.);
#686=ADVANCED_FACE('',(#614,#615,#616,#617,#618,#619),#657,.F.);
#687=ADVANCED_FACE('',(#620,#621),#658,.F.);
#688=ADVANCED_FACE('',(#622),#659,.F.);
#689=ADVANCED_FACE('',(#623),#660,.F.);
#690=ADVANCED_FACE('',(#624),#661,.F.);
#691=ADVANCED_FACE('',(#625),#16,.T.);
#692=ADVANCED_FACE('',(#626,#627),#17,.T.);
#693=ADVANCED_FACE('',(#628,#629,#630),#662,.F.);
#694=ADVANCED_FACE('',(#631),#663,.F.);
#695=ADVANCED_FACE('',(#632),#664,.F.);
#696=ADVANCED_FACE('',(#633),#665,.T.);
#697=ADVANCED_FACE('',(#634),#666,.T.);
#698=ADVANCED_FACE('',(#635),#18,.T.);
#699=ADVANCED_FACE('',(#636),#19,.T.);
#700=ADVANCED_FACE('',(#637),#20,.T.);
#701=ADVANCED_FACE('',(#638),#667,.F.);
#702=ADVANCED_FACE('',(#639),#668,.T.);
#703=ADVANCED_FACE('',(#640),#21,.F.);
#704=ADVANCED_FACE('',(#641),#669,.T.);
#705=ADVANCED_FACE('',(#642),#22,.F.);
#706=ADVANCED_FACE('',(#643),#670,.F.);
#707=ADVANCED_FACE('',(#644),#23,.F.);
#708=ADVANCED_FACE('',(#645),#671,.F.);
#709=ADVANCED_FACE('',(#646),#24,.F.);
#710=ADVANCED_FACE('',(#647),#672,.F.);
#711=ADVANCED_FACE('',(#648),#673,.T.);
#712=ADVANCED_FACE('',(#649),#674,.T.);
#713=ADVANCED_FACE('',(#650),#675,.F.);
#714=CLOSED_SHELL('',(#676,#677,#678,#679,#680,#681,#682,#683,#684,#685,
#686,#687,#688,#689,#690,#691,#692,#693,#694,#695,#696,#697,#698,#699,#700,
#701,#702,#703,#704,#705,#706,#707,#708,#709,#710,#711,#712,#713));
#715=STYLED_ITEM('',(#716),#723);
#716=PRESENTATION_STYLE_ASSIGNMENT((#717));
#717=SURFACE_STYLE_USAGE(.BOTH.,#718);
#718=SURFACE_SIDE_STYLE('',(#719));
#719=SURFACE_STYLE_FILL_AREA(#720);
#720=FILL_AREA_STYLE('',(#721));
#721=FILL_AREA_STYLE_COLOUR('',#722);
#722=COLOUR_RGB('',0.737254901960784,0.937254901960784,0.917647058823529);
#723=MANIFOLD_SOLID_BREP('Top Case',#714);
#724=SHAPE_DEFINITION_REPRESENTATION(#1194,#725);
#725=SHAPE_REPRESENTATION('Top Case',(#726),#1189);
#726=AXIS2_PLACEMENT_3D('',#989,#791,#792);
#727=AXIS2_PLACEMENT_3D('',#990,#793,#794);
#728=AXIS2_PLACEMENT_3D('',#999,#799,#800);
#729=AXIS2_PLACEMENT_3D('',#1004,#802,#803);
#730=AXIS2_PLACEMENT_3D('',#1008,#805,#806);
#731=AXIS2_PLACEMENT_3D('',#1012,#808,#809);
#732=AXIS2_PLACEMENT_3D('',#1015,#811,#812);
#733=AXIS2_PLACEMENT_3D('',#1027,#818,#819);
#734=AXIS2_PLACEMENT_3D('',#1031,#821,#822);
#735=AXIS2_PLACEMENT_3D('',#1035,#824,#825);
#736=AXIS2_PLACEMENT_3D('',#1039,#827,#828);
#737=AXIS2_PLACEMENT_3D('',#1040,#829,#830);
#738=AXIS2_PLACEMENT_3D('',#1046,#834,#835);
#739=AXIS2_PLACEMENT_3D('',#1052,#839,#840);
#740=AXIS2_PLACEMENT_3D('',#1053,#841,#842);
#741=AXIS2_PLACEMENT_3D('',#1055,#843,#844);
#742=AXIS2_PLACEMENT_3D('',#1057,#845,#846);
#743=AXIS2_PLACEMENT_3D('',#1058,#847,#848);
#744=AXIS2_PLACEMENT_3D('',#1060,#849,#850);
#745=AXIS2_PLACEMENT_3D('',#1062,#851,#852);
#746=AXIS2_PLACEMENT_3D('',#1063,#853,#854);
#747=AXIS2_PLACEMENT_3D('',#1065,#855,#856);
#748=AXIS2_PLACEMENT_3D('',#1067,#857,#858);
#749=AXIS2_PLACEMENT_3D('',#1068,#859,#860);
#750=AXIS2_PLACEMENT_3D('',#1070,#861,#862);
#751=AXIS2_PLACEMENT_3D('',#1072,#863,#864);
#752=AXIS2_PLACEMENT_3D('',#1075,#867,#868);
#753=AXIS2_PLACEMENT_3D('',#1084,#873,#874);
#754=AXIS2_PLACEMENT_3D('',#1092,#878,#879);
#755=AXIS2_PLACEMENT_3D('',#1096,#881,#882);
#756=AXIS2_PLACEMENT_3D('',#1097,#883,#884);
#757=AXIS2_PLACEMENT_3D('',#1105,#888,#889);
#758=AXIS2_PLACEMENT_3D('',#1106,#890,#891);
#759=AXIS2_PLACEMENT_3D('',#1107,#892,#893);
#760=AXIS2_PLACEMENT_3D('',#1109,#894,#895);
#761=AXIS2_PLACEMENT_3D('',#1115,#898,#899);
#762=AXIS2_PLACEMENT_3D('',#1116,#900,#901);
#763=AXIS2_PLACEMENT_3D('',#1119,#904,#905);
#764=AXIS2_PLACEMENT_3D('',#1121,#907,#908);
#765=AXIS2_PLACEMENT_3D('',#1122,#909,#910);
#766=AXIS2_PLACEMENT_3D('',#1123,#911,#912);
#767=AXIS2_PLACEMENT_3D('',#1125,#913,#914);
#768=AXIS2_PLACEMENT_3D('',#1134,#919,#920);
#769=AXIS2_PLACEMENT_3D('',#1138,#922,#923);
#770=AXIS2_PLACEMENT_3D('',#1148,#928,#929);
#771=AXIS2_PLACEMENT_3D('',#1149,#930,#931);
#772=AXIS2_PLACEMENT_3D('',#1152,#934,#935);
#773=AXIS2_PLACEMENT_3D('',#1155,#938,#939);
#774=AXIS2_PLACEMENT_3D('',#1157,#941,#942);
#775=AXIS2_PLACEMENT_3D('',#1159,#944,#945);
#776=AXIS2_PLACEMENT_3D('',#1160,#946,#947);
#777=AXIS2_PLACEMENT_3D('',#1161,#948,#949);
#778=AXIS2_PLACEMENT_3D('',#1163,#951,#952);
#779=AXIS2_PLACEMENT_3D('',#1164,#953,#954);
#780=AXIS2_PLACEMENT_3D('',#1167,#957,#958);
#781=AXIS2_PLACEMENT_3D('',#1169,#960,#961);
#782=AXIS2_PLACEMENT_3D('',#1171,#963,#964);
#783=AXIS2_PLACEMENT_3D('',#1173,#966,#967);
#784=AXIS2_PLACEMENT_3D('',#1175,#969,#970);
#785=AXIS2_PLACEMENT_3D('',#1177,#972,#973);
#786=AXIS2_PLACEMENT_3D('',#1179,#975,#976);
#787=AXIS2_PLACEMENT_3D('',#1180,#977,#978);
#788=AXIS2_PLACEMENT_3D('',#1183,#981,#982);
#789=AXIS2_PLACEMENT_3D('',#1185,#984,#985);
#790=AXIS2_PLACEMENT_3D('',#1187,#987,#988);
#791=DIRECTION('',(0.,0.,1.));
#792=DIRECTION('',(1.,0.,0.));
#793=DIRECTION('',(0.,1.,0.));
#794=DIRECTION('',(0.,0.,1.));
#795=DIRECTION('',(1.,0.,0.));
#796=DIRECTION('',(0.,0.,-1.));
#797=DIRECTION('',(1.,0.,0.));
#798=DIRECTION('',(0.,0.,-1.));
#799=DIRECTION('',(0.,1.,0.));
#800=DIRECTION('',(0.,0.,1.));
#801=DIRECTION('',(-1.,0.,0.));
#802=DIRECTION('',(0.,1.,0.));
#803=DIRECTION('',(0.,0.,1.));
#804=DIRECTION('',(0.,0.,-1.));
#805=DIRECTION('',(0.,1.,0.));
#806=DIRECTION('',(0.,0.,1.));
#807=DIRECTION('',(-1.,0.,0.));
#808=DIRECTION('',(0.,1.,0.));
#809=DIRECTION('',(0.,0.,1.));
#810=DIRECTION('',(0.,0.,-1.));
#811=DIRECTION('',(0.,1.,0.));
#812=DIRECTION('',(0.,0.,1.));
#813=DIRECTION('',(0.,0.,-1.));
#814=DIRECTION('',(1.,0.,0.));
#815=DIRECTION('',(0.,0.,-1.));
#816=DIRECTION('',(1.,0.,0.));
#817=DIRECTION('',(-1.,0.,0.));
#818=DIRECTION('',(0.,1.,0.));
#819=DIRECTION('',(0.,0.,1.));
#820=DIRECTION('',(0.,0.,-1.));
#821=DIRECTION('',(0.,1.,0.));
#822=DIRECTION('',(0.,0.,1.));
#823=DIRECTION('',(-1.,0.,0.));
#824=DIRECTION('',(0.,1.,0.));
#825=DIRECTION('',(0.,0.,1.));
#826=DIRECTION('',(0.,0.,-1.));
#827=DIRECTION('',(0.,1.,0.));
#828=DIRECTION('',(0.,0.,1.));
#829=DIRECTION('',(1.,0.,0.));
#830=DIRECTION('',(0.,0.,-1.));
#831=DIRECTION('',(0.,-1.,0.));
#832=DIRECTION('',(0.,0.,-1.));
#833=DIRECTION('',(0.,-1.,0.));
#834=DIRECTION('',(0.,1.,0.));
#835=DIRECTION('',(0.,0.,1.));
#836=DIRECTION('',(1.,0.,0.));
#837=DIRECTION('',(0.,0.,-1.));
#838=DIRECTION('',(1.,0.,0.));
#839=DIRECTION('',(0.,0.,-1.));
#840=DIRECTION('',(-1.,0.,0.));
#841=DIRECTION('',(0.,0.,1.));
#842=DIRECTION('',(1.,0.,0.));
#843=DIRECTION('',(0.,0.,1.));
#844=DIRECTION('',(1.,0.,0.));
#845=DIRECTION('',(0.,0.,-1.));
#846=DIRECTION('',(-1.,0.,0.));
#847=DIRECTION('',(0.,0.,1.));
#848=DIRECTION('',(1.,0.,0.));
#849=DIRECTION('',(0.,0.,1.));
#850=DIRECTION('',(1.,0.,0.));
#851=DIRECTION('',(0.,0.,-1.));
#852=DIRECTION('',(-1.,0.,0.));
#853=DIRECTION('',(0.,0.,1.));
#854=DIRECTION('',(1.,0.,0.));
#855=DIRECTION('',(0.,0.,1.));
#856=DIRECTION('',(1.,0.,0.));
#857=DIRECTION('',(0.,0.,-1.));
#858=DIRECTION('',(-1.,0.,0.));
#859=DIRECTION('',(0.,0.,1.));
#860=DIRECTION('',(1.,0.,0.));
#861=DIRECTION('',(0.,0.,1.));
#862=DIRECTION('',(1.,0.,0.));
#863=DIRECTION('',(1.,0.,0.));
#864=DIRECTION('',(0.,0.,-1.));
#865=DIRECTION('',(0.,-1.,0.));
#866=DIRECTION('',(0.,-1.,0.));
#867=DIRECTION('',(0.,0.,1.));
#868=DIRECTION('',(1.,0.,0.));
#869=DIRECTION('',(-1.,0.,0.));
#870=DIRECTION('',(0.,1.,0.));
#871=DIRECTION('',(-1.,0.,0.));
#872=DIRECTION('',(0.,1.,0.));
#873=DIRECTION('',(0.,0.,1.));
#874=DIRECTION('',(1.,0.,0.));
#875=DIRECTION('',(0.,-1.,0.));
#876=DIRECTION('',(1.,0.,0.));
#877=DIRECTION('',(0.,-1.,0.));
#878=DIRECTION('',(0.,0.,1.));
#879=DIRECTION('',(1.,0.,0.));
#880=DIRECTION('',(0.,-1.,0.));
#881=DIRECTION('',(0.,0.,1.));
#882=DIRECTION('',(1.,0.,0.));
#883=DIRECTION('',(0.,0.,1.));
#884=DIRECTION('',(1.,0.,0.));
#885=DIRECTION('',(1.,0.,0.));
#886=DIRECTION('',(0.,-1.,0.));
#887=DIRECTION('',(1.,0.,0.));
#888=DIRECTION('',(0.,0.,1.));
#889=DIRECTION('',(1.,0.,0.));
#890=DIRECTION('',(0.,0.,1.));
#891=DIRECTION('',(1.,0.,0.));
#892=DIRECTION('',(0.,0.,1.));
#893=DIRECTION('',(1.,0.,0.));
#894=DIRECTION('',(0.,0.,1.));
#895=DIRECTION('',(1.,0.,0.));
#896=DIRECTION('',(1.,0.,0.));
#897=DIRECTION('',(0.,-1.,0.));
#898=DIRECTION('',(0.,0.,1.));
#899=DIRECTION('',(1.,0.,0.));
#900=DIRECTION('',(0.,1.,0.));
#901=DIRECTION('',(0.,0.,1.));
#902=DIRECTION('',(0.,0.,-1.));
#903=DIRECTION('',(0.,0.,-1.));
#904=DIRECTION('',(1.,0.,0.));
#905=DIRECTION('',(0.,0.,-1.));
#906=DIRECTION('',(0.,0.,-1.));
#907=DIRECTION('',(0.,0.,-1.));
#908=DIRECTION('',(-1.,0.,0.));
#909=DIRECTION('',(0.,0.,-1.));
#910=DIRECTION('',(-1.,0.,0.));
#911=DIRECTION('',(0.,0.,1.));
#912=DIRECTION('',(1.,0.,0.));
#913=DIRECTION('',(0.,0.,1.));
#914=DIRECTION('',(1.,0.,0.));
#915=DIRECTION('',(0.,1.,0.));
#916=DIRECTION('',(-1.,0.,0.));
#917=DIRECTION('',(0.,1.,0.));
#918=DIRECTION('',(-1.,0.,0.));
#919=DIRECTION('',(0.,0.,1.));
#920=DIRECTION('',(1.,0.,0.));
#921=DIRECTION('',(0.,-1.,0.));
#922=DIRECTION('',(0.,0.,1.));
#923=DIRECTION('',(1.,0.,0.));
#924=DIRECTION('',(0.,-1.,0.));
#925=DIRECTION('',(1.,0.,0.));
#926=DIRECTION('',(0.,-1.,0.));
#927=DIRECTION('',(1.,0.,0.));
#928=DIRECTION('',(0.,0.,1.));
#929=DIRECTION('',(1.,0.,0.));
#930=DIRECTION('',(1.,0.,0.));
#931=DIRECTION('',(0.,0.,-1.));
#932=DIRECTION('',(0.,0.,-1.));
#933=DIRECTION('',(0.,0.,-1.));
#934=DIRECTION('',(0.,1.,0.));
#935=DIRECTION('',(0.,0.,1.));
#936=DIRECTION('',(0.,0.,-1.));
#937=DIRECTION('',(0.,0.,-1.));
#938=DIRECTION('',(1.,0.,0.));
#939=DIRECTION('',(0.,0.,-1.));
#940=DIRECTION('',(0.,0.,-1.));
#941=DIRECTION('',(0.,1.,0.));
#942=DIRECTION('',(0.,0.,1.));
#943=DIRECTION('',(0.,0.,-1.));
#944=DIRECTION('',(0.,0.,-1.));
#945=DIRECTION('',(-1.,0.,0.));
#946=DIRECTION('',(0.,0.,-1.));
#947=DIRECTION('',(-1.,0.,0.));
#948=DIRECTION('',(0.,0.,-1.));
#949=DIRECTION('',(-1.,0.,0.));
#950=DIRECTION('',(0.,0.,-1.));
#951=DIRECTION('',(1.,0.,0.));
#952=DIRECTION('',(0.,0.,-1.));
#953=DIRECTION('',(0.,0.,-1.));
#954=DIRECTION('',(-1.,0.,0.));
#955=DIRECTION('',(0.,-1.,0.));
#956=DIRECTION('',(0.,-1.,0.));
#957=DIRECTION('',(0.,-1.,0.));
#958=DIRECTION('',(0.,0.,-1.));
#959=DIRECTION('',(0.,-1.,0.));
#960=DIRECTION('',(1.,0.,0.));
#961=DIRECTION('',(0.,0.,-1.));
#962=DIRECTION('',(0.,-1.,0.));
#963=DIRECTION('',(0.,-1.,0.));
#964=DIRECTION('',(0.,0.,-1.));
#965=DIRECTION('',(0.,-1.,0.));
#966=DIRECTION('',(0.,0.,-1.));
#967=DIRECTION('',(-1.,0.,0.));
#968=DIRECTION('',(0.,-1.,0.));
#969=DIRECTION('',(0.,-1.,0.));
#970=DIRECTION('',(0.,0.,-1.));
#971=DIRECTION('',(0.,-1.,0.));
#972=DIRECTION('',(1.,0.,0.));
#973=DIRECTION('',(0.,0.,-1.));
#974=DIRECTION('',(0.,-1.,0.));
#975=DIRECTION('',(0.,-1.,0.));
#976=DIRECTION('',(0.,0.,-1.));
#977=DIRECTION('',(0.,1.,0.));
#978=DIRECTION('',(0.,0.,1.));
#979=DIRECTION('',(0.,0.,-1.));
#980=DIRECTION('',(0.,0.,-1.));
#981=DIRECTION('',(1.,0.,0.));
#982=DIRECTION('',(0.,0.,-1.));
#983=DIRECTION('',(0.,0.,-1.));
#984=DIRECTION('',(0.,1.,0.));
#985=DIRECTION('',(0.,0.,1.));
#986=DIRECTION('',(0.,0.,-1.));
#987=DIRECTION('',(1.,0.,0.));
#988=DIRECTION('',(0.,0.,-1.));
#989=CARTESIAN_POINT('',(0.,0.,0.));
#990=CARTESIAN_POINT('',(-8.63665387630663E-6,0.0285266097635031,0.01143));
#991=CARTESIAN_POINT('',(-8.63665387630663E-6,0.0285266097635031,0.));
#992=CARTESIAN_POINT('',(-0.0492250733077526,0.0285266097635031,0.));
#993=CARTESIAN_POINT('',(0.0492078,0.0285266097635031,0.));
#994=CARTESIAN_POINT('',(-0.0492250733077526,0.0285266097635031,0.01143));
#995=CARTESIAN_POINT('',(-0.0492250733077526,0.0285266097635031,0.01143));
#996=CARTESIAN_POINT('',(-8.63665387630663E-6,0.0285266097635031,0.01143));
#997=CARTESIAN_POINT('',(0.0492078,0.0285266097635031,0.01143));
#998=CARTESIAN_POINT('',(0.0492078,0.0285266097635031,0.01143));
#999=CARTESIAN_POINT('',(0.00453934938235414,0.0285266097635031,0.00517192541096332));
#1000=CARTESIAN_POINT('',(0.00453934938235414,0.0285266097635031,0.00632539132789656));
#1001=CARTESIAN_POINT('',(0.00569281529928737,0.0285266097635031,0.00517192541096332));
#1002=CARTESIAN_POINT('',(-8.63665387630663E-6,0.0285266097635031,0.00632539132789656));
#1003=CARTESIAN_POINT('',(-0.00453934938235414,0.0285266097635031,0.00632539132789656));
#1004=CARTESIAN_POINT('',(-0.00453934938235413,0.0285266097635031,0.00517192541096332));
#1005=CARTESIAN_POINT('',(-0.00569281529928737,0.0285266097635031,0.00517192541096332));
#1006=CARTESIAN_POINT('',(-0.00569281529928737,0.0285266097635031,0.01143));
#1007=CARTESIAN_POINT('',(-0.00569281529928737,0.0285266097635031,0.00292210341807558));
#1008=CARTESIAN_POINT('',(-0.00453934938235414,0.0285266097635031,0.00292210341807558));
#1009=CARTESIAN_POINT('',(-0.00453934938235414,0.0285266097635031,0.00176863750114234));
#1010=CARTESIAN_POINT('',(-8.63665387630663E-6,0.0285266097635031,0.00176863750114234));
#1011=CARTESIAN_POINT('',(0.00453934938235414,0.0285266097635031,0.00176863750114234));
#1012=CARTESIAN_POINT('',(0.00453934938235414,0.0285266097635031,0.00292210341807558));
#1013=CARTESIAN_POINT('',(0.00569281529928737,0.0285266097635031,0.00292210341807558));
#1014=CARTESIAN_POINT('',(0.00569281529928737,0.0285266097635031,0.01143));
#1015=CARTESIAN_POINT('',(-8.63665387630663E-6,0.0265266097635031,0.01143));
#1016=CARTESIAN_POINT('',(-0.0384353766947882,0.0265266097635031,0.01143));
#1017=CARTESIAN_POINT('',(-0.0384353766947882,0.0265266097635031,0.));
#1018=CARTESIAN_POINT('',(-0.0384353766947882,0.0265266097635031,0.00943));
#1019=CARTESIAN_POINT('',(-8.63665387630663E-6,0.0265266097635031,0.));
#1020=CARTESIAN_POINT('',(0.0390891687020171,0.0265266097635031,0.));
#1021=CARTESIAN_POINT('',(0.0390891687020171,0.0265266097635031,0.01143));
#1022=CARTESIAN_POINT('',(0.0390891687020171,0.0265266097635031,0.00943));
#1023=CARTESIAN_POINT('',(-8.63665387630663E-6,0.0265266097635031,0.00943));
#1024=CARTESIAN_POINT('',(-8.63665387630663E-6,0.0265266097635031,0.00632539132789656));
#1025=CARTESIAN_POINT('',(0.00453934938235414,0.0265266097635031,0.00632539132789656));
#1026=CARTESIAN_POINT('',(-0.00453934938235414,0.0265266097635031,0.00632539132789656));
#1027=CARTESIAN_POINT('',(0.00453934938235414,0.0265266097635031,0.00517192541096332));
#1028=CARTESIAN_POINT('',(0.00569281529928737,0.0265266097635031,0.00517192541096332));
#1029=CARTESIAN_POINT('',(0.00569281529928737,0.0265266097635031,0.01143));
#1030=CARTESIAN_POINT('',(0.00569281529928737,0.0265266097635031,0.00292210341807558));
#1031=CARTESIAN_POINT('',(0.00453934938235414,0.0265266097635031,0.00292210341807558));
#1032=CARTESIAN_POINT('',(0.00453934938235414,0.0265266097635031,0.00176863750114234));
#1033=CARTESIAN_POINT('',(-8.63665387630663E-6,0.0265266097635031,0.00176863750114234));
#1034=CARTESIAN_POINT('',(-0.00453934938235414,0.0265266097635031,0.00176863750114234));
#1035=CARTESIAN_POINT('',(-0.00453934938235414,0.0265266097635031,0.00292210341807558));
#1036=CARTESIAN_POINT('',(-0.00569281529928737,0.0265266097635031,0.00292210341807558));
#1037=CARTESIAN_POINT('',(-0.00569281529928737,0.0265266097635031,0.01143));
#1038=CARTESIAN_POINT('',(-0.00569281529928737,0.0265266097635031,0.00517192541096332));
#1039=CARTESIAN_POINT('',(-0.00453934938235413,0.0265266097635031,0.00517192541096332));
#1040=CARTESIAN_POINT('',(-0.0492250733077526,0.000219522975385189,0.01143));
#1041=CARTESIAN_POINT('',(-0.0492250733077526,0.000219522975385189,0.));
#1042=CARTESIAN_POINT('',(-0.0492250733077526,-0.0280875638127327,0.));
#1043=CARTESIAN_POINT('',(-0.0492250733077526,-0.0280875638127327,0.01143));
#1044=CARTESIAN_POINT('',(-0.0492250733077526,-0.0280875638127327,0.01143));
#1045=CARTESIAN_POINT('',(-0.0492250733077526,0.000219522975385189,0.01143));
#1046=CARTESIAN_POINT('',(-8.63665387630663E-6,-0.0280875638127327,0.01143));
#1047=CARTESIAN_POINT('',(-8.63665387630663E-6,-0.0280875638127327,0.));
#1048=CARTESIAN_POINT('',(0.0492078,-0.0280875638127327,0.));
#1049=CARTESIAN_POINT('',(0.0492078,-0.0280875638127327,0.01143));
#1050=CARTESIAN_POINT('',(0.0492078,-0.0280875638127327,0.01143));
#1051=CARTESIAN_POINT('',(-8.63665387630663E-6,-0.0280875638127327,0.01143));
#1052=CARTESIAN_POINT('',(-0.041778022,0.022414,0.01143));
#1053=CARTESIAN_POINT('',(-0.041778022,0.022414,0.));
#1054=CARTESIAN_POINT('',(-0.0384783204326176,0.022414,0.));
#1055=CARTESIAN_POINT('',(-0.041778022,0.022414,0.01143));
#1056=CARTESIAN_POINT('',(-0.0384783204326176,0.022414,0.01143));
#1057=CARTESIAN_POINT('',(0.042971978,0.022914,0.01143));
#1058=CARTESIAN_POINT('',(0.042971978,0.022914,0.));
#1059=CARTESIAN_POINT('',(0.0462754822517057,0.022914,0.));
#1060=CARTESIAN_POINT('',(0.042971978,0.022914,0.01143));
#1061=CARTESIAN_POINT('',(0.0462754822517057,0.022914,0.01143));
#1062=CARTESIAN_POINT('',(0.042721978,-0.019086,0.01143));
#1063=CARTESIAN_POINT('',(0.042721978,-0.019086,0.));
#1064=CARTESIAN_POINT('',(0.0460186667939012,-0.019086,0.));
#1065=CARTESIAN_POINT('',(0.042721978,-0.019086,0.01143));
#1066=CARTESIAN_POINT('',(0.0460186667939012,-0.019086,0.01143));
#1067=CARTESIAN_POINT('',(-0.041778022,-0.019586,0.01143));
#1068=CARTESIAN_POINT('',(-0.041778022,-0.019586,0.));
#1069=CARTESIAN_POINT('',(-0.0384795895837908,-0.019586,0.));
#1070=CARTESIAN_POINT('',(-0.041778022,-0.019586,0.01143));
#1071=CARTESIAN_POINT('',(-0.0384795895837908,-0.019586,0.01143));
#1072=CARTESIAN_POINT('',(0.0492078,0.000219522975385203,0.01143));
#1073=CARTESIAN_POINT('',(0.0492078,0.000219522975385203,0.));
#1074=CARTESIAN_POINT('',(0.0492078,0.000219522975385203,0.01143));
#1075=CARTESIAN_POINT('',(-8.63665387630663E-6,0.000219522975385199,0.01143));
#1076=CARTESIAN_POINT('',(-8.63665387630663E-6,0.00435239588841796,0.01143));
#1077=CARTESIAN_POINT('',(0.0379677079617977,0.00435239588841796,0.01143));
#1078=CARTESIAN_POINT('',(-0.0370416678488254,0.00435239588841796,0.01143));
#1079=CARTESIAN_POINT('',(0.0379677079617977,0.000219522975385199,0.01143));
#1080=CARTESIAN_POINT('',(0.0379677079617977,-0.0134276039898396,0.01143));
#1081=CARTESIAN_POINT('',(-8.63665387630663E-6,-0.0134276039898396,0.01143));
#1082=CARTESIAN_POINT('',(-0.0370416678488254,-0.0134276039898396,0.01143));
#1083=CARTESIAN_POINT('',(-0.0370416678488254,0.000219522975385199,0.01143));
#1084=CARTESIAN_POINT('',(0.,0.,0.));
#1085=CARTESIAN_POINT('',(-0.0472250733077526,0.000219522975385189,0.));
#1086=CARTESIAN_POINT('',(-0.0472250733077526,0.0265266097635031,0.));
#1087=CARTESIAN_POINT('',(-0.0472250733077526,-0.0260875638127327,0.));
#1088=CARTESIAN_POINT('',(-8.63665387630663E-6,-0.0260875638127327,0.));
#1089=CARTESIAN_POINT('',(0.0472078,-0.0260875638127327,0.));
#1090=CARTESIAN_POINT('',(0.0472078,0.000219522975385203,0.));
#1091=CARTESIAN_POINT('',(0.0472078,-0.021902436252386,0.));
#1092=CARTESIAN_POINT('',(0.042721978,-0.019086,0.));
#1093=CARTESIAN_POINT('',(0.0472078,-0.016269563747614,0.));
#1094=CARTESIAN_POINT('',(0.0472078,0.000219522975385203,0.));
#1095=CARTESIAN_POINT('',(0.0472078,0.0197226101253253,0.));
#1096=CARTESIAN_POINT('',(0.042971978,0.022914,0.));
#1097=CARTESIAN_POINT('',(-0.041778022,0.022414,0.));
#1098=CARTESIAN_POINT('',(-0.0451206673052118,0.0265266097635031,0.));
#1099=CARTESIAN_POINT('',(-8.63665387630663E-6,0.0265266097635031,0.));
#1100=CARTESIAN_POINT('',(0.0472078,0.000219522975385203,0.));
#1101=CARTESIAN_POINT('',(0.0472078,0.0265266097635031,0.));
#1102=CARTESIAN_POINT('',(0.0472078,0.0261053898746747,0.));
#1103=CARTESIAN_POINT('',(-8.63665387630663E-6,0.0265266097635031,0.));
#1104=CARTESIAN_POINT('',(0.0468547872979829,0.0265266097635031,0.));
#1105=CARTESIAN_POINT('',(0.042971978,0.022914,0.));
#1106=CARTESIAN_POINT('',(0.,0.,0.));
#1107=CARTESIAN_POINT('',(-0.041778022,-0.019586,0.));
#1108=CARTESIAN_POINT('',(-0.0364795895837908,-0.019586,0.));
#1109=CARTESIAN_POINT('',(-8.63665387630663E-6,0.000219522975385199,0.00943));
#1110=CARTESIAN_POINT('',(-8.63665387630663E-6,0.0265266097635031,0.00943));
#1111=CARTESIAN_POINT('',(0.0468547872979829,0.0265266097635031,0.00943));
#1112=CARTESIAN_POINT('',(0.0472078,0.0265266097635031,0.00943));
#1113=CARTESIAN_POINT('',(0.0472078,0.000219522975385203,0.00943));
#1114=CARTESIAN_POINT('',(0.0472078,0.0261053898746747,0.00943));
#1115=CARTESIAN_POINT('',(0.042971978,0.022914,0.00943));
#1116=CARTESIAN_POINT('',(-8.63665387630663E-6,0.0265266097635031,0.01143));
#1117=CARTESIAN_POINT('',(0.0468547872979829,0.0265266097635031,0.01143));
#1118=CARTESIAN_POINT('',(0.0472078,0.0265266097635031,0.01143));
#1119=CARTESIAN_POINT('',(0.0472078,0.000219522975385203,0.01143));
#1120=CARTESIAN_POINT('',(0.0472078,0.0261053898746747,0.01143));
#1121=CARTESIAN_POINT('',(0.042971978,0.022914,0.01143));
#1122=CARTESIAN_POINT('',(-0.041778022,-0.019586,0.01143));
#1123=CARTESIAN_POINT('',(-0.041778022,-0.019586,0.00943));
#1124=CARTESIAN_POINT('',(-0.0364795895837908,-0.019586,0.00943));
#1125=CARTESIAN_POINT('',(-8.63665387630663E-6,0.000219522975385199,0.00943));
#1126=CARTESIAN_POINT('',(0.0379677079617977,0.000219522975385199,0.00943));
#1127=CARTESIAN_POINT('',(0.0379677079617977,-0.0134276039898396,0.00943));
#1128=CARTESIAN_POINT('',(0.0379677079617977,0.00435239588841796,0.00943));
#1129=CARTESIAN_POINT('',(-8.63665387630663E-6,0.00435239588841796,0.00943));
#1130=CARTESIAN_POINT('',(-0.0370416678488254,0.00435239588841796,0.00943));
#1131=CARTESIAN_POINT('',(-0.0370416678488254,0.000219522975385199,0.00943));
#1132=CARTESIAN_POINT('',(-0.0370416678488254,-0.0134276039898396,0.00943));
#1133=CARTESIAN_POINT('',(-8.63665387630663E-6,-0.0134276039898396,0.00943));
#1134=CARTESIAN_POINT('',(0.042971978,0.022914,0.00943));
#1135=CARTESIAN_POINT('',(0.0472078,0.0197226101253253,0.00943));
#1136=CARTESIAN_POINT('',(0.0472078,0.000219522975385203,0.00943));
#1137=CARTESIAN_POINT('',(0.0472078,-0.016269563747614,0.00943));
#1138=CARTESIAN_POINT('',(0.042721978,-0.019086,0.00943));
#1139=CARTESIAN_POINT('',(0.0472078,-0.021902436252386,0.00943));
#1140=CARTESIAN_POINT('',(0.0472078,0.000219522975385203,0.00943));
#1141=CARTESIAN_POINT('',(0.0472078,-0.0260875638127327,0.00943));
#1142=CARTESIAN_POINT('',(-8.63665387630663E-6,-0.0260875638127327,0.00943));
#1143=CARTESIAN_POINT('',(-0.0472250733077526,-0.0260875638127327,0.00943));
#1144=CARTESIAN_POINT('',(-0.0472250733077526,0.000219522975385189,0.00943));
#1145=CARTESIAN_POINT('',(-0.0472250733077526,0.0265266097635031,0.00943));
#1146=CARTESIAN_POINT('',(-8.63665387630663E-6,0.0265266097635031,0.00943));
#1147=CARTESIAN_POINT('',(-0.0451206673052118,0.0265266097635031,0.00943));
#1148=CARTESIAN_POINT('',(-0.041778022,0.022414,0.00943));
#1149=CARTESIAN_POINT('',(0.0472078,0.000219522975385203,0.01143));
#1150=CARTESIAN_POINT('',(0.0472078,0.0197226101253253,0.01143));
#1151=CARTESIAN_POINT('',(0.0472078,-0.016269563747614,0.01143));
#1152=CARTESIAN_POINT('',(-8.63665387630663E-6,0.0265266097635031,0.01143));
#1153=CARTESIAN_POINT('',(-0.0472250733077526,0.0265266097635031,0.01143));
#1154=CARTESIAN_POINT('',(-0.0451206673052118,0.0265266097635031,0.01143));
#1155=CARTESIAN_POINT('',(-0.0472250733077526,0.000219522975385189,0.01143));
#1156=CARTESIAN_POINT('',(-0.0472250733077526,-0.0260875638127327,0.01143));
#1157=CARTESIAN_POINT('',(-8.63665387630663E-6,-0.0260875638127327,0.01143));
#1158=CARTESIAN_POINT('',(0.0472078,-0.0260875638127327,0.01143));
#1159=CARTESIAN_POINT('',(-0.041778022,0.022414,0.01143));
#1160=CARTESIAN_POINT('',(0.042971978,0.022914,0.01143));
#1161=CARTESIAN_POINT('',(0.042721978,-0.019086,0.01143));
#1162=CARTESIAN_POINT('',(0.0472078,-0.021902436252386,0.01143));
#1163=CARTESIAN_POINT('',(0.0472078,0.000219522975385203,0.01143));
#1164=CARTESIAN_POINT('',(0.,0.119923365496221,0.00632539132789656));
#1165=CARTESIAN_POINT('',(0.00453934938235414,0.119923365496221,0.00632539132789656));
#1166=CARTESIAN_POINT('',(-0.00453934938235414,0.119923365496221,0.00632539132789656));
#1167=CARTESIAN_POINT('',(-0.00453934938235413,0.119923365496221,0.00517192541096332));
#1168=CARTESIAN_POINT('',(-0.00569281529928737,0.119923365496221,0.00517192541096332));
#1169=CARTESIAN_POINT('',(-0.00569281529928737,0.119923365496221,0.00404701441451945));
#1170=CARTESIAN_POINT('',(-0.00569281529928737,0.119923365496221,0.00292210341807558));
#1171=CARTESIAN_POINT('',(-0.00453934938235414,0.119923365496221,0.00292210341807558));
#1172=CARTESIAN_POINT('',(-0.00453934938235414,0.119923365496221,0.00176863750114234));
#1173=CARTESIAN_POINT('',(0.,0.119923365496221,0.00176863750114234));
#1174=CARTESIAN_POINT('',(0.00453934938235414,0.119923365496221,0.00176863750114234));
#1175=CARTESIAN_POINT('',(0.00453934938235414,0.119923365496221,0.00292210341807558));
#1176=CARTESIAN_POINT('',(0.00569281529928737,0.119923365496221,0.00292210341807558));
#1177=CARTESIAN_POINT('',(0.00569281529928737,0.119923365496221,0.00404701441451945));
#1178=CARTESIAN_POINT('',(0.00569281529928737,0.119923365496221,0.00517192541096332));
#1179=CARTESIAN_POINT('',(0.00453934938235414,0.119923365496221,0.00517192541096332));
#1180=CARTESIAN_POINT('',(0.00046302005648613,0.00435239588841796,0.0254));
#1181=CARTESIAN_POINT('',(-0.0370416678488254,0.00435239588841796,0.0254));
#1182=CARTESIAN_POINT('',(0.0379677079617977,0.00435239588841796,0.0254));
#1183=CARTESIAN_POINT('',(-0.0370416678488254,-0.0045376040507108,0.0254));
#1184=CARTESIAN_POINT('',(-0.0370416678488254,-0.0134276039898396,0.0254));
#1185=CARTESIAN_POINT('',(0.00046302005648613,-0.0134276039898396,0.0254));
#1186=CARTESIAN_POINT('',(0.0379677079617977,-0.0134276039898396,0.0254));
#1187=CARTESIAN_POINT('',(0.0379677079617977,-0.0045376040507108,0.0254));
#1188=MECHANICAL_DESIGN_GEOMETRIC_PRESENTATION_REPRESENTATION('',(#715),
#1189);
#1189=(
GEOMETRIC_REPRESENTATION_CONTEXT(3)
GLOBAL_UNCERTAINTY_ASSIGNED_CONTEXT((#1190))
GLOBAL_UNIT_ASSIGNED_CONTEXT((#1193,#1192,#1191))
REPRESENTATION_CONTEXT('Top Case','TOP_LEVEL_ASSEMBLY_PART')
);
#1190=UNCERTAINTY_MEASURE_WITH_UNIT(LENGTH_MEASURE(1.E-8),#1193,
'DISTANCE_ACCURACY_VALUE','Maximum Tolerance applied to model');
#1191=(
NAMED_UNIT(*)
SI_UNIT($,.STERADIAN.)
SOLID_ANGLE_UNIT()
);
#1192=(
NAMED_UNIT(*)
PLANE_ANGLE_UNIT()
SI_UNIT($,.RADIAN.)
);
#1193=(
LENGTH_UNIT()
NAMED_UNIT(*)
SI_UNIT($,.METRE.)
);
#1194=PRODUCT_DEFINITION_SHAPE('','',#1195);
#1195=PRODUCT_DEFINITION('','',#1197,#1196);
#1196=PRODUCT_DEFINITION_CONTEXT('',#1203,'design');
#1197=PRODUCT_DEFINITION_FORMATION_WITH_SPECIFIED_SOURCE('','',#1199,
 .NOT_KNOWN.);
#1198=PRODUCT_RELATED_PRODUCT_CATEGORY('','',(#1199));
#1199=PRODUCT('Top Case','Top Case','Top Case',(#1201));
#1200=PRODUCT_CATEGORY('','');
#1201=PRODUCT_CONTEXT('',#1203,'mechanical');
#1202=APPLICATION_PROTOCOL_DEFINITION('international standard',
'ap242_managed_model_based_3d_engineering',2020,#1203);
#1203=APPLICATION_CONTEXT('managed model based 3d engineering');
ENDSEC;
END-ISO-10303-21;
