ISO-10303-21;
HEADER;
/* Generated by software containing ST-Developer
 * from STEP Tools, Inc. (www.steptools.com) 
 */
/* OPTION: using custom renumber hook */

FILE_DESCRIPTION(
/* description */ ('STEP AP242 Edition 2',
'CAx-IF Rec.Pracs.---Representation and Presentation of Product Manufa
cturing Information (PMI)---4.0---2014-10-13',
'CAx-IF Rec.Pracs.---3D Tessellated Geometry---0.4---2014-09-14','2;1',
'CAx-IF Rec.Pracs.---User Defined Attributes---1.5---2016-08-15'),
/* implementation_level */ '2;1');

FILE_NAME(
/* name */ 'pcb main parts - Bottom Case',
/* time_stamp */ '2026-09-26T02:33:36Z',
/* author */ (''),
/* organization */ (''),
/* preprocessor_version */ 'ST-DEVELOPER v20',
/* originating_system */ 'ONSHAPE BY PTC INC, 1.221',
/* authorisation */ '  ');

FILE_SCHEMA (('AP242_MANAGED_MODEL_BASED_3D_ENGINEERING_MIM_LF { 1 0 10303 442 3 1 4 }'));
ENDSEC;

DATA;
#10=SHAPE_REPRESENTATION_RELATIONSHIP('','',#481,#11);
#11=ADVANCED_BREP_SHAPE_REPRESENTATION('',(#479),#777);
#12=CIRCLE('',#485,0.00529843241620918);
#13=CIRCLE('',#486,0.00529843241620918);
#14=CIRCLE('',#488,0.00529668879390117);
#15=CIRCLE('',#489,0.00529668879390117);
#16=CIRCLE('',#491,0.0053035042517057);
#17=CIRCLE('',#492,0.0053035042517057);
#18=CIRCLE('',#494,0.00529970156738238);
#19=CIRCLE('',#495,0.00529970156738238);
#20=CIRCLE('',#503,0.0053035042517057);
#21=CIRCLE('',#506,0.0053035042517057);
#22=CYLINDRICAL_SURFACE('',#484,0.00529843241620918);
#23=CYLINDRICAL_SURFACE('',#487,0.00529668879390117);
#24=CYLINDRICAL_SURFACE('',#490,0.0053035042517057);
#25=CYLINDRICAL_SURFACE('',#493,0.00529970156738238);
#26=CYLINDRICAL_SURFACE('',#505,0.0053035042517057);
#27=ORIENTED_EDGE('',*,*,#151,.F.);
#28=ORIENTED_EDGE('',*,*,#152,.F.);
#29=ORIENTED_EDGE('',*,*,#153,.T.);
#30=ORIENTED_EDGE('',*,*,#154,.F.);
#31=ORIENTED_EDGE('',*,*,#155,.T.);
#32=ORIENTED_EDGE('',*,*,#156,.F.);
#33=ORIENTED_EDGE('',*,*,#157,.F.);
#34=ORIENTED_EDGE('',*,*,#158,.F.);
#35=ORIENTED_EDGE('',*,*,#159,.T.);
#36=ORIENTED_EDGE('',*,*,#152,.T.);
#37=ORIENTED_EDGE('',*,*,#160,.F.);
#38=ORIENTED_EDGE('',*,*,#161,.F.);
#39=ORIENTED_EDGE('',*,*,#162,.T.);
#40=ORIENTED_EDGE('',*,*,#163,.T.);
#41=ORIENTED_EDGE('',*,*,#164,.F.);
#42=ORIENTED_EDGE('',*,*,#165,.F.);
#43=ORIENTED_EDGE('',*,*,#166,.T.);
#44=ORIENTED_EDGE('',*,*,#167,.T.);
#45=ORIENTED_EDGE('',*,*,#168,.F.);
#46=ORIENTED_EDGE('',*,*,#169,.T.);
#47=ORIENTED_EDGE('',*,*,#170,.T.);
#48=ORIENTED_EDGE('',*,*,#171,.T.);
#49=ORIENTED_EDGE('',*,*,#172,.F.);
#50=ORIENTED_EDGE('',*,*,#173,.T.);
#51=ORIENTED_EDGE('',*,*,#154,.T.);
#52=ORIENTED_EDGE('',*,*,#174,.F.);
#53=ORIENTED_EDGE('',*,*,#175,.F.);
#54=ORIENTED_EDGE('',*,*,#176,.T.);
#55=ORIENTED_EDGE('',*,*,#172,.T.);
#56=ORIENTED_EDGE('',*,*,#177,.F.);
#57=ORIENTED_EDGE('',*,*,#178,.F.);
#58=ORIENTED_EDGE('',*,*,#175,.T.);
#59=ORIENTED_EDGE('',*,*,#179,.T.);
#60=ORIENTED_EDGE('',*,*,#165,.T.);
#61=ORIENTED_EDGE('',*,*,#180,.F.);
#62=ORIENTED_EDGE('',*,*,#167,.F.);
#63=ORIENTED_EDGE('',*,*,#181,.T.);
#64=ORIENTED_EDGE('',*,*,#161,.T.);
#65=ORIENTED_EDGE('',*,*,#182,.F.);
#66=ORIENTED_EDGE('',*,*,#163,.F.);
#67=ORIENTED_EDGE('',*,*,#183,.T.);
#68=ORIENTED_EDGE('',*,*,#158,.T.);
#69=ORIENTED_EDGE('',*,*,#155,.F.);
#70=ORIENTED_EDGE('',*,*,#179,.F.);
#71=ORIENTED_EDGE('',*,*,#177,.T.);
#72=ORIENTED_EDGE('',*,*,#174,.T.);
#73=ORIENTED_EDGE('',*,*,#153,.F.);
#74=ORIENTED_EDGE('',*,*,#159,.F.);
#75=ORIENTED_EDGE('',*,*,#183,.F.);
#76=ORIENTED_EDGE('',*,*,#162,.F.);
#77=ORIENTED_EDGE('',*,*,#181,.F.);
#78=ORIENTED_EDGE('',*,*,#166,.F.);
#79=ORIENTED_EDGE('',*,*,#184,.F.);
#80=ORIENTED_EDGE('',*,*,#185,.T.);
#81=ORIENTED_EDGE('',*,*,#186,.T.);
#82=ORIENTED_EDGE('',*,*,#187,.F.);
#83=ORIENTED_EDGE('',*,*,#176,.F.);
#84=ORIENTED_EDGE('',*,*,#178,.T.);
#85=ORIENTED_EDGE('',*,*,#164,.T.);
#86=ORIENTED_EDGE('',*,*,#180,.T.);
#87=ORIENTED_EDGE('',*,*,#160,.T.);
#88=ORIENTED_EDGE('',*,*,#182,.T.);
#89=ORIENTED_EDGE('',*,*,#157,.T.);
#90=ORIENTED_EDGE('',*,*,#151,.T.);
#91=ORIENTED_EDGE('',*,*,#173,.F.);
#92=ORIENTED_EDGE('',*,*,#188,.T.);
#93=ORIENTED_EDGE('',*,*,#189,.T.);
#94=ORIENTED_EDGE('',*,*,#190,.T.);
#95=ORIENTED_EDGE('',*,*,#156,.T.);
#96=ORIENTED_EDGE('',*,*,#189,.F.);
#97=ORIENTED_EDGE('',*,*,#191,.F.);
#98=ORIENTED_EDGE('',*,*,#192,.T.);
#99=ORIENTED_EDGE('',*,*,#193,.T.);
#100=ORIENTED_EDGE('',*,*,#188,.F.);
#101=ORIENTED_EDGE('',*,*,#194,.T.);
#102=ORIENTED_EDGE('',*,*,#195,.T.);
#103=ORIENTED_EDGE('',*,*,#191,.T.);
#104=ORIENTED_EDGE('',*,*,#190,.F.);
#105=ORIENTED_EDGE('',*,*,#193,.F.);
#106=ORIENTED_EDGE('',*,*,#196,.T.);
#107=ORIENTED_EDGE('',*,*,#194,.F.);
#108=ORIENTED_EDGE('',*,*,#192,.F.);
#109=ORIENTED_EDGE('',*,*,#195,.F.);
#110=ORIENTED_EDGE('',*,*,#196,.F.);
#111=ORIENTED_EDGE('',*,*,#197,.T.);
#112=ORIENTED_EDGE('',*,*,#198,.T.);
#113=ORIENTED_EDGE('',*,*,#199,.F.);
#114=ORIENTED_EDGE('',*,*,#200,.F.);
#115=ORIENTED_EDGE('',*,*,#201,.F.);
#116=ORIENTED_EDGE('',*,*,#187,.T.);
#117=ORIENTED_EDGE('',*,*,#202,.T.);
#118=ORIENTED_EDGE('',*,*,#198,.F.);
#119=ORIENTED_EDGE('',*,*,#203,.F.);
#120=ORIENTED_EDGE('',*,*,#204,.T.);
#121=ORIENTED_EDGE('',*,*,#205,.F.);
#122=ORIENTED_EDGE('',*,*,#206,.F.);
#123=ORIENTED_EDGE('',*,*,#186,.F.);
#124=ORIENTED_EDGE('',*,*,#207,.T.);
#125=ORIENTED_EDGE('',*,*,#199,.T.);
#126=ORIENTED_EDGE('',*,*,#202,.F.);
#127=ORIENTED_EDGE('',*,*,#185,.F.);
#128=ORIENTED_EDGE('',*,*,#208,.T.);
#129=ORIENTED_EDGE('',*,*,#200,.T.);
#130=ORIENTED_EDGE('',*,*,#207,.F.);
#131=ORIENTED_EDGE('',*,*,#208,.F.);
#132=ORIENTED_EDGE('',*,*,#184,.T.);
#133=ORIENTED_EDGE('',*,*,#201,.T.);
#134=ORIENTED_EDGE('',*,*,#197,.F.);
#135=ORIENTED_EDGE('',*,*,#168,.T.);
#136=ORIENTED_EDGE('',*,*,#209,.F.);
#137=ORIENTED_EDGE('',*,*,#204,.F.);
#138=ORIENTED_EDGE('',*,*,#210,.T.);
#139=ORIENTED_EDGE('',*,*,#210,.F.);
#140=ORIENTED_EDGE('',*,*,#203,.T.);
#141=ORIENTED_EDGE('',*,*,#211,.T.);
#142=ORIENTED_EDGE('',*,*,#169,.F.);
#143=ORIENTED_EDGE('',*,*,#211,.F.);
#144=ORIENTED_EDGE('',*,*,#206,.T.);
#145=ORIENTED_EDGE('',*,*,#212,.T.);
#146=ORIENTED_EDGE('',*,*,#170,.F.);
#147=ORIENTED_EDGE('',*,*,#212,.F.);
#148=ORIENTED_EDGE('',*,*,#205,.T.);
#149=ORIENTED_EDGE('',*,*,#209,.T.);
#150=ORIENTED_EDGE('',*,*,#171,.F.);
#151=EDGE_CURVE('',#213,#214,#255,.T.);
#152=EDGE_CURVE('',#215,#213,#256,.F.);
#153=EDGE_CURVE('',#215,#216,#257,.T.);
#154=EDGE_CURVE('',#214,#216,#258,.T.);
#155=EDGE_CURVE('',#217,#217,#12,.T.);
#156=EDGE_CURVE('',#218,#218,#13,.T.);
#157=EDGE_CURVE('',#219,#213,#14,.T.);
#158=EDGE_CURVE('',#220,#219,#259,.F.);
#159=EDGE_CURVE('',#220,#215,#15,.T.);
#160=EDGE_CURVE('',#221,#222,#16,.T.);
#161=EDGE_CURVE('',#223,#221,#260,.F.);
#162=EDGE_CURVE('',#223,#224,#17,.T.);
#163=EDGE_CURVE('',#224,#222,#261,.F.);
#164=EDGE_CURVE('',#225,#226,#18,.T.);
#165=EDGE_CURVE('',#227,#225,#262,.F.);
#166=EDGE_CURVE('',#227,#228,#19,.T.);
#167=EDGE_CURVE('',#228,#226,#263,.F.);
#168=EDGE_CURVE('',#229,#230,#264,.T.);
#169=EDGE_CURVE('',#229,#231,#265,.T.);
#170=EDGE_CURVE('',#231,#232,#266,.T.);
#171=EDGE_CURVE('',#232,#230,#267,.T.);
#172=EDGE_CURVE('',#233,#234,#268,.T.);
#173=EDGE_CURVE('',#233,#214,#269,.T.);
#174=EDGE_CURVE('',#234,#216,#270,.T.);
#175=EDGE_CURVE('',#235,#236,#271,.T.);
#176=EDGE_CURVE('',#235,#233,#272,.T.);
#177=EDGE_CURVE('',#236,#234,#273,.T.);
#178=EDGE_CURVE('',#235,#225,#274,.T.);
#179=EDGE_CURVE('',#236,#227,#275,.T.);
#180=EDGE_CURVE('',#226,#221,#276,.T.);
#181=EDGE_CURVE('',#228,#223,#277,.T.);
#182=EDGE_CURVE('',#222,#219,#278,.T.);
#183=EDGE_CURVE('',#224,#220,#279,.T.);
#184=EDGE_CURVE('',#237,#238,#280,.T.);
#185=EDGE_CURVE('',#237,#239,#281,.T.);
#186=EDGE_CURVE('',#239,#240,#282,.T.);
#187=EDGE_CURVE('',#238,#240,#283,.T.);
#188=EDGE_CURVE('',#241,#242,#284,.T.);
#189=EDGE_CURVE('',#242,#243,#20,.T.);
#190=EDGE_CURVE('',#243,#241,#285,.T.);
#191=EDGE_CURVE('',#244,#242,#286,.F.);
#192=EDGE_CURVE('',#244,#245,#21,.T.);
#193=EDGE_CURVE('',#245,#243,#287,.F.);
#194=EDGE_CURVE('',#241,#246,#288,.T.);
#195=EDGE_CURVE('',#246,#244,#289,.T.);
#196=EDGE_CURVE('',#245,#246,#290,.T.);
#197=EDGE_CURVE('',#247,#248,#291,.T.);
#198=EDGE_CURVE('',#248,#249,#292,.T.);
#199=EDGE_CURVE('',#250,#249,#293,.T.);
#200=EDGE_CURVE('',#247,#250,#294,.T.);
#201=EDGE_CURVE('',#238,#248,#295,.T.);
#202=EDGE_CURVE('',#240,#249,#296,.T.);
#203=EDGE_CURVE('',#251,#252,#297,.T.);
#204=EDGE_CURVE('',#251,#253,#298,.T.);
#205=EDGE_CURVE('',#254,#253,#299,.T.);
#206=EDGE_CURVE('',#252,#254,#300,.T.);
#207=EDGE_CURVE('',#239,#250,#301,.T.);
#208=EDGE_CURVE('',#237,#247,#302,.T.);
#209=EDGE_CURVE('',#253,#230,#303,.T.);
#210=EDGE_CURVE('',#251,#229,#304,.T.);
#211=EDGE_CURVE('',#252,#231,#305,.T.);
#212=EDGE_CURVE('',#254,#232,#306,.T.);
#213=VERTEX_POINT('',#648);
#214=VERTEX_POINT('',#649);
#215=VERTEX_POINT('',#651);
#216=VERTEX_POINT('',#653);
#217=VERTEX_POINT('',#657);
#218=VERTEX_POINT('',#659);
#219=VERTEX_POINT('',#662);
#220=VERTEX_POINT('',#664);
#221=VERTEX_POINT('',#668);
#222=VERTEX_POINT('',#669);
#223=VERTEX_POINT('',#671);
#224=VERTEX_POINT('',#673);
#225=VERTEX_POINT('',#677);
#226=VERTEX_POINT('',#678);
#227=VERTEX_POINT('',#680);
#228=VERTEX_POINT('',#682);
#229=VERTEX_POINT('',#686);
#230=VERTEX_POINT('',#687);
#231=VERTEX_POINT('',#689);
#232=VERTEX_POINT('',#691);
#233=VERTEX_POINT('',#694);
#234=VERTEX_POINT('',#695);
#235=VERTEX_POINT('',#700);
#236=VERTEX_POINT('',#701);
#237=VERTEX_POINT('',#716);
#238=VERTEX_POINT('',#717);
#239=VERTEX_POINT('',#719);
#240=VERTEX_POINT('',#721);
#241=VERTEX_POINT('',#724);
#242=VERTEX_POINT('',#725);
#243=VERTEX_POINT('',#727);
#244=VERTEX_POINT('',#732);
#245=VERTEX_POINT('',#734);
#246=VERTEX_POINT('',#738);
#247=VERTEX_POINT('',#745);
#248=VERTEX_POINT('',#746);
#249=VERTEX_POINT('',#748);
#250=VERTEX_POINT('',#750);
#251=VERTEX_POINT('',#757);
#252=VERTEX_POINT('',#758);
#253=VERTEX_POINT('',#760);
#254=VERTEX_POINT('',#762);
#255=LINE('',#647,#307);
#256=LINE('',#650,#308);
#257=LINE('',#652,#309);
#258=LINE('',#654,#310);
#259=LINE('',#663,#311);
#260=LINE('',#670,#312);
#261=LINE('',#674,#313);
#262=LINE('',#679,#314);
#263=LINE('',#683,#315);
#264=LINE('',#685,#316);
#265=LINE('',#688,#317);
#266=LINE('',#690,#318);
#267=LINE('',#692,#319);
#268=LINE('',#693,#320);
#269=LINE('',#696,#321);
#270=LINE('',#697,#322);
#271=LINE('',#699,#323);
#272=LINE('',#702,#324);
#273=LINE('',#703,#325);
#274=LINE('',#705,#326);
#275=LINE('',#706,#327);
#276=LINE('',#708,#328);
#277=LINE('',#709,#329);
#278=LINE('',#711,#330);
#279=LINE('',#712,#331);
#280=LINE('',#715,#332);
#281=LINE('',#718,#333);
#282=LINE('',#720,#334);
#283=LINE('',#722,#335);
#284=LINE('',#723,#336);
#285=LINE('',#728,#337);
#286=LINE('',#731,#338);
#287=LINE('',#735,#339);
#288=LINE('',#737,#340);
#289=LINE('',#739,#341);
#290=LINE('',#741,#342);
#291=LINE('',#744,#343);
#292=LINE('',#747,#344);
#293=LINE('',#749,#345);
#294=LINE('',#751,#346);
#295=LINE('',#753,#347);
#296=LINE('',#754,#348);
#297=LINE('',#756,#349);
#298=LINE('',#759,#350);
#299=LINE('',#761,#351);
#300=LINE('',#763,#352);
#301=LINE('',#764,#353);
#302=LINE('',#766,#354);
#303=LINE('',#769,#355);
#304=LINE('',#770,#356);
#305=LINE('',#772,#357);
#306=LINE('',#774,#358);
#307=VECTOR('',#523,1.);
#308=VECTOR('',#524,1.);
#309=VECTOR('',#525,1.);
#310=VECTOR('',#526,1.);
#311=VECTOR('',#537,1.);
#312=VECTOR('',#544,1.);
#313=VECTOR('',#547,1.);
#314=VECTOR('',#552,1.);
#315=VECTOR('',#555,1.);
#316=VECTOR('',#558,1.);
#317=VECTOR('',#559,1.);
#318=VECTOR('',#560,1.);
#319=VECTOR('',#561,1.);
#320=VECTOR('',#562,1.);
#321=VECTOR('',#563,1.);
#322=VECTOR('',#564,1.);
#323=VECTOR('',#567,1.);
#324=VECTOR('',#568,1.);
#325=VECTOR('',#569,1.);
#326=VECTOR('',#572,1.);
#327=VECTOR('',#573,1.);
#328=VECTOR('',#576,1.);
#329=VECTOR('',#577,1.);
#330=VECTOR('',#580,1.);
#331=VECTOR('',#581,1.);
#332=VECTOR('',#586,1.);
#333=VECTOR('',#587,1.);
#334=VECTOR('',#588,1.);
#335=VECTOR('',#589,1.);
#336=VECTOR('',#590,1.);
#337=VECTOR('',#593,1.);
#338=VECTOR('',#598,1.);
#339=VECTOR('',#601,1.);
#340=VECTOR('',#604,1.);
#341=VECTOR('',#605,1.);
#342=VECTOR('',#608,1.);
#343=VECTOR('',#613,1.);
#344=VECTOR('',#614,1.);
#345=VECTOR('',#615,1.);
#346=VECTOR('',#616,1.);
#347=VECTOR('',#619,1.);
#348=VECTOR('',#620,1.);
#349=VECTOR('',#623,1.);
#350=VECTOR('',#624,1.);
#351=VECTOR('',#625,1.);
#352=VECTOR('',#626,1.);
#353=VECTOR('',#627,1.);
#354=VECTOR('',#630,1.);
#355=VECTOR('',#635,1.);
#356=VECTOR('',#636,1.);
#357=VECTOR('',#639,1.);
#358=VECTOR('',#642,1.);
#359=EDGE_LOOP('',(#27,#28,#29,#30));
#360=EDGE_LOOP('',(#31));
#361=EDGE_LOOP('',(#32));
#362=EDGE_LOOP('',(#33,#34,#35,#36));
#363=EDGE_LOOP('',(#37,#38,#39,#40));
#364=EDGE_LOOP('',(#41,#42,#43,#44));
#365=EDGE_LOOP('',(#45,#46,#47,#48));
#366=EDGE_LOOP('',(#49,#50,#51,#52));
#367=EDGE_LOOP('',(#53,#54,#55,#56));
#368=EDGE_LOOP('',(#57,#58,#59,#60));
#369=EDGE_LOOP('',(#61,#62,#63,#64));
#370=EDGE_LOOP('',(#65,#66,#67,#68));
#371=EDGE_LOOP('',(#69));
#372=EDGE_LOOP('',(#70,#71,#72,#73,#74,#75,#76,#77,#78));
#373=EDGE_LOOP('',(#79,#80,#81,#82));
#374=EDGE_LOOP('',(#83,#84,#85,#86,#87,#88,#89,#90,#91));
#375=EDGE_LOOP('',(#92,#93,#94));
#376=EDGE_LOOP('',(#95));
#377=EDGE_LOOP('',(#96,#97,#98,#99));
#378=EDGE_LOOP('',(#100,#101,#102,#103));
#379=EDGE_LOOP('',(#104,#105,#106,#107));
#380=EDGE_LOOP('',(#108,#109,#110));
#381=EDGE_LOOP('',(#111,#112,#113,#114));
#382=EDGE_LOOP('',(#115,#116,#117,#118));
#383=EDGE_LOOP('',(#119,#120,#121,#122));
#384=EDGE_LOOP('',(#123,#124,#125,#126));
#385=EDGE_LOOP('',(#127,#128,#129,#130));
#386=EDGE_LOOP('',(#131,#132,#133,#134));
#387=EDGE_LOOP('',(#135,#136,#137,#138));
#388=EDGE_LOOP('',(#139,#140,#141,#142));
#389=EDGE_LOOP('',(#143,#144,#145,#146));
#390=EDGE_LOOP('',(#147,#148,#149,#150));
#391=FACE_BOUND('',#359,.T.);
#392=FACE_BOUND('',#360,.T.);
#393=FACE_BOUND('',#361,.T.);
#394=FACE_BOUND('',#362,.T.);
#395=FACE_BOUND('',#363,.T.);
#396=FACE_BOUND('',#364,.T.);
#397=FACE_BOUND('',#365,.T.);
#398=FACE_BOUND('',#366,.T.);
#399=FACE_BOUND('',#367,.T.);
#400=FACE_BOUND('',#368,.T.);
#401=FACE_BOUND('',#369,.T.);
#402=FACE_BOUND('',#370,.T.);
#403=FACE_BOUND('',#371,.T.);
#404=FACE_BOUND('',#372,.T.);
#405=FACE_BOUND('',#373,.T.);
#406=FACE_BOUND('',#374,.T.);
#407=FACE_BOUND('',#375,.T.);
#408=FACE_BOUND('',#376,.T.);
#409=FACE_BOUND('',#377,.T.);
#410=FACE_BOUND('',#378,.T.);
#411=FACE_BOUND('',#379,.T.);
#412=FACE_BOUND('',#380,.T.);
#413=FACE_BOUND('',#381,.T.);
#414=FACE_BOUND('',#382,.T.);
#415=FACE_BOUND('',#383,.T.);
#416=FACE_BOUND('',#384,.T.);
#417=FACE_BOUND('',#385,.T.);
#418=FACE_BOUND('',#386,.T.);
#419=FACE_BOUND('',#387,.T.);
#420=FACE_BOUND('',#388,.T.);
#421=FACE_BOUND('',#389,.T.);
#422=FACE_BOUND('',#390,.T.);
#423=PLANE('',#483);
#424=PLANE('',#496);
#425=PLANE('',#497);
#426=PLANE('',#498);
#427=PLANE('',#499);
#428=PLANE('',#500);
#429=PLANE('',#501);
#430=PLANE('',#502);
#431=PLANE('',#504);
#432=PLANE('',#507);
#433=PLANE('',#508);
#434=PLANE('',#509);
#435=PLANE('',#510);
#436=PLANE('',#511);
#437=PLANE('',#512);
#438=PLANE('',#513);
#439=PLANE('',#514);
#440=PLANE('',#515);
#441=PLANE('',#516);
#442=PLANE('',#517);
#443=PLANE('',#518);
#444=ADVANCED_FACE('',(#391),#423,.F.);
#445=ADVANCED_FACE('',(#392,#393),#22,.T.);
#446=ADVANCED_FACE('',(#394),#23,.T.);
#447=ADVANCED_FACE('',(#395),#24,.T.);
#448=ADVANCED_FACE('',(#396),#25,.T.);
#449=ADVANCED_FACE('',(#397,#398),#424,.T.);
#450=ADVANCED_FACE('',(#399),#425,.T.);
#451=ADVANCED_FACE('',(#400),#426,.F.);
#452=ADVANCED_FACE('',(#401),#427,.F.);
#453=ADVANCED_FACE('',(#402),#428,.F.);
#454=ADVANCED_FACE('',(#403,#404),#429,.T.);
#455=ADVANCED_FACE('',(#405,#406,#407),#430,.T.);
#456=ADVANCED_FACE('',(#408),#431,.T.);
#457=ADVANCED_FACE('',(#409),#26,.T.);
#458=ADVANCED_FACE('',(#410),#432,.F.);
#459=ADVANCED_FACE('',(#411),#433,.F.);
#460=ADVANCED_FACE('',(#412),#434,.T.);
#461=ADVANCED_FACE('',(#413),#435,.F.);
#462=ADVANCED_FACE('',(#414),#436,.T.);
#463=ADVANCED_FACE('',(#415,#416),#437,.F.);
#464=ADVANCED_FACE('',(#417),#438,.F.);
#465=ADVANCED_FACE('',(#418),#439,.T.);
#466=ADVANCED_FACE('',(#419),#440,.F.);
#467=ADVANCED_FACE('',(#420),#441,.T.);
#468=ADVANCED_FACE('',(#421),#442,.T.);
#469=ADVANCED_FACE('',(#422),#443,.T.);
#470=CLOSED_SHELL('',(#444,#445,#446,#447,#448,#449,#450,#451,#452,#453,
#454,#455,#456,#457,#458,#459,#460,#461,#462,#463,#464,#465,#466,#467,#468,
#469));
#471=STYLED_ITEM('',(#472),#479);
#472=PRESENTATION_STYLE_ASSIGNMENT((#473));
#473=SURFACE_STYLE_USAGE(.BOTH.,#474);
#474=SURFACE_SIDE_STYLE('',(#475));
#475=SURFACE_STYLE_FILL_AREA(#476);
#476=FILL_AREA_STYLE('',(#477));
#477=FILL_AREA_STYLE_COLOUR('',#478);
#478=COLOUR_RGB('',0.737254901960784,0.937254901960784,0.917647058823529);
#479=MANIFOLD_SOLID_BREP('Bottom Case',#470);
#480=SHAPE_DEFINITION_REPRESENTATION(#782,#481);
#481=SHAPE_REPRESENTATION('Bottom Case',(#482),#777);
#482=AXIS2_PLACEMENT_3D('',#645,#519,#520);
#483=AXIS2_PLACEMENT_3D('',#646,#521,#522);
#484=AXIS2_PLACEMENT_3D('',#655,#527,#528);
#485=AXIS2_PLACEMENT_3D('',#656,#529,#530);
#486=AXIS2_PLACEMENT_3D('',#658,#531,#532);
#487=AXIS2_PLACEMENT_3D('',#660,#533,#534);
#488=AXIS2_PLACEMENT_3D('',#661,#535,#536);
#489=AXIS2_PLACEMENT_3D('',#665,#538,#539);
#490=AXIS2_PLACEMENT_3D('',#666,#540,#541);
#491=AXIS2_PLACEMENT_3D('',#667,#542,#543);
#492=AXIS2_PLACEMENT_3D('',#672,#545,#546);
#493=AXIS2_PLACEMENT_3D('',#675,#548,#549);
#494=AXIS2_PLACEMENT_3D('',#676,#550,#551);
#495=AXIS2_PLACEMENT_3D('',#681,#553,#554);
#496=AXIS2_PLACEMENT_3D('',#684,#556,#557);
#497=AXIS2_PLACEMENT_3D('',#698,#565,#566);
#498=AXIS2_PLACEMENT_3D('',#704,#570,#571);
#499=AXIS2_PLACEMENT_3D('',#707,#574,#575);
#500=AXIS2_PLACEMENT_3D('',#710,#578,#579);
#501=AXIS2_PLACEMENT_3D('',#713,#582,#583);
#502=AXIS2_PLACEMENT_3D('',#714,#584,#585);
#503=AXIS2_PLACEMENT_3D('',#726,#591,#592);
#504=AXIS2_PLACEMENT_3D('',#729,#594,#595);
#505=AXIS2_PLACEMENT_3D('',#730,#596,#597);
#506=AXIS2_PLACEMENT_3D('',#733,#599,#600);
#507=AXIS2_PLACEMENT_3D('',#736,#602,#603);
#508=AXIS2_PLACEMENT_3D('',#740,#606,#607);
#509=AXIS2_PLACEMENT_3D('',#742,#609,#610);
#510=AXIS2_PLACEMENT_3D('',#743,#611,#612);
#511=AXIS2_PLACEMENT_3D('',#752,#617,#618);
#512=AXIS2_PLACEMENT_3D('',#755,#621,#622);
#513=AXIS2_PLACEMENT_3D('',#765,#628,#629);
#514=AXIS2_PLACEMENT_3D('',#767,#631,#632);
#515=AXIS2_PLACEMENT_3D('',#768,#633,#634);
#516=AXIS2_PLACEMENT_3D('',#771,#637,#638);
#517=AXIS2_PLACEMENT_3D('',#773,#640,#641);
#518=AXIS2_PLACEMENT_3D('',#775,#643,#644);
#519=DIRECTION('',(0.,0.,1.));
#520=DIRECTION('',(1.,0.,0.));
#521=DIRECTION('',(1.,0.,0.));
#522=DIRECTION('',(0.,0.,-1.));
#523=DIRECTION('',(0.,-1.,0.));
#524=DIRECTION('',(0.,0.,-1.));
#525=DIRECTION('',(0.,-1.,0.));
#526=DIRECTION('',(0.,0.,-1.));
#527=DIRECTION('',(0.,0.,-1.));
#528=DIRECTION('',(-1.,0.,0.));
#529=DIRECTION('',(0.,0.,1.));
#530=DIRECTION('',(1.,0.,0.));
#531=DIRECTION('',(0.,0.,1.));
#532=DIRECTION('',(1.,0.,0.));
#533=DIRECTION('',(0.,0.,-1.));
#534=DIRECTION('',(-1.,0.,0.));
#535=DIRECTION('',(0.,0.,1.));
#536=DIRECTION('',(1.,0.,0.));
#537=DIRECTION('',(0.,0.,-1.));
#538=DIRECTION('',(0.,0.,1.));
#539=DIRECTION('',(1.,0.,0.));
#540=DIRECTION('',(0.,0.,-1.));
#541=DIRECTION('',(-1.,0.,0.));
#542=DIRECTION('',(0.,0.,1.));
#543=DIRECTION('',(1.,0.,0.));
#544=DIRECTION('',(0.,0.,-1.));
#545=DIRECTION('',(0.,0.,1.));
#546=DIRECTION('',(1.,0.,0.));
#547=DIRECTION('',(0.,0.,-1.));
#548=DIRECTION('',(0.,0.,-1.));
#549=DIRECTION('',(-1.,0.,0.));
#550=DIRECTION('',(0.,0.,1.));
#551=DIRECTION('',(1.,0.,0.));
#552=DIRECTION('',(0.,0.,-1.));
#553=DIRECTION('',(0.,0.,1.));
#554=DIRECTION('',(1.,0.,0.));
#555=DIRECTION('',(0.,0.,-1.));
#556=DIRECTION('',(0.,1.,0.));
#557=DIRECTION('',(0.,0.,1.));
#558=DIRECTION('',(0.,0.,-1.));
#559=DIRECTION('',(-1.,0.,0.));
#560=DIRECTION('',(0.,0.,-1.));
#561=DIRECTION('',(1.,0.,0.));
#562=DIRECTION('',(0.,0.,-1.));
#563=DIRECTION('',(1.,0.,0.));
#564=DIRECTION('',(1.,0.,0.));
#565=DIRECTION('',(1.,0.,0.));
#566=DIRECTION('',(0.,0.,-1.));
#567=DIRECTION('',(0.,0.,-1.));
#568=DIRECTION('',(0.,-1.,0.));
#569=DIRECTION('',(0.,-1.,0.));
#570=DIRECTION('',(0.,1.,0.));
#571=DIRECTION('',(0.,0.,1.));
#572=DIRECTION('',(1.,0.,0.));
#573=DIRECTION('',(1.,0.,0.));
#574=DIRECTION('',(0.,1.,0.));
#575=DIRECTION('',(0.,0.,1.));
#576=DIRECTION('',(1.,0.,0.));
#577=DIRECTION('',(1.,0.,0.));
#578=DIRECTION('',(1.,0.,0.));
#579=DIRECTION('',(0.,0.,-1.));
#580=DIRECTION('',(0.,-1.,0.));
#581=DIRECTION('',(0.,-1.,0.));
#582=DIRECTION('',(0.,0.,1.));
#583=DIRECTION('',(1.,0.,0.));
#584=DIRECTION('',(0.,0.,1.));
#585=DIRECTION('',(1.,0.,0.));
#586=DIRECTION('',(1.,0.,0.));
#587=DIRECTION('',(0.,-1.,0.));
#588=DIRECTION('',(1.,0.,0.));
#589=DIRECTION('',(0.,-1.,0.));
#590=DIRECTION('',(0.,-1.,0.));
#591=DIRECTION('',(0.,0.,1.));
#592=DIRECTION('',(1.,0.,0.));
#593=DIRECTION('',(1.,0.,0.));
#594=DIRECTION('',(0.,0.,1.));
#595=DIRECTION('',(1.,0.,0.));
#596=DIRECTION('',(0.,0.,-1.));
#597=DIRECTION('',(-1.,0.,0.));
#598=DIRECTION('',(0.,0.,-1.));
#599=DIRECTION('',(0.,0.,1.));
#600=DIRECTION('',(1.,0.,0.));
#601=DIRECTION('',(0.,0.,-1.));
#602=DIRECTION('',(1.,0.,0.));
#603=DIRECTION('',(0.,0.,-1.));
#604=DIRECTION('',(0.,0.,-1.));
#605=DIRECTION('',(0.,-1.,0.));
#606=DIRECTION('',(0.,1.,0.));
#607=DIRECTION('',(0.,0.,1.));
#608=DIRECTION('',(1.,0.,0.));
#609=DIRECTION('',(0.,0.,1.));
#610=DIRECTION('',(1.,0.,0.));
#611=DIRECTION('',(0.,0.,1.));
#612=DIRECTION('',(1.,0.,0.));
#613=DIRECTION('',(1.,0.,0.));
#614=DIRECTION('',(0.,-1.,0.));
#615=DIRECTION('',(1.,0.,0.));
#616=DIRECTION('',(0.,-1.,0.));
#617=DIRECTION('',(1.,0.,0.));
#618=DIRECTION('',(0.,0.,-1.));
#619=DIRECTION('',(0.,0.,-1.));
#620=DIRECTION('',(0.,0.,-1.));
#621=DIRECTION('',(0.,1.,0.));
#622=DIRECTION('',(0.,0.,1.));
#623=DIRECTION('',(-1.,0.,0.));
#624=DIRECTION('',(0.,0.,-1.));
#625=DIRECTION('',(1.,0.,0.));
#626=DIRECTION('',(0.,0.,-1.));
#627=DIRECTION('',(0.,0.,-1.));
#628=DIRECTION('',(1.,0.,0.));
#629=DIRECTION('',(0.,0.,-1.));
#630=DIRECTION('',(0.,0.,-1.));
#631=DIRECTION('',(0.,1.,0.));
#632=DIRECTION('',(0.,0.,1.));
#633=DIRECTION('',(1.,0.,0.));
#634=DIRECTION('',(0.,0.,-1.));
#635=DIRECTION('',(0.,1.,0.));
#636=DIRECTION('',(0.,1.,0.));
#637=DIRECTION('',(0.,0.,-1.));
#638=DIRECTION('',(-1.,0.,0.));
#639=DIRECTION('',(0.,1.,0.));
#640=DIRECTION('',(1.,0.,0.));
#641=DIRECTION('',(0.,0.,-1.));
#642=DIRECTION('',(0.,1.,0.));
#643=DIRECTION('',(0.,0.,1.));
#644=DIRECTION('',(1.,0.,0.));
#645=CARTESIAN_POINT('',(0.,0.,0.));
#646=CARTESIAN_POINT('',(0.0472078,0.000219522975385203,0.01143));
#647=CARTESIAN_POINT('',(0.0472078,0.000219522975385203,0.));
#648=CARTESIAN_POINT('',(0.0472078,-0.021902436252386,0.));
#649=CARTESIAN_POINT('',(0.0472078,-0.0260875638127327,0.));
#650=CARTESIAN_POINT('',(0.0472078,-0.021902436252386,0.01143));
#651=CARTESIAN_POINT('',(0.0472078,-0.021902436252386,-0.018828));
#652=CARTESIAN_POINT('',(0.0472078,0.000219522975385203,-0.018828));
#653=CARTESIAN_POINT('',(0.0472078,-0.0260875638127327,-0.018828));
#654=CARTESIAN_POINT('',(0.0472078,-0.0260875638127327,0.01143));
#655=CARTESIAN_POINT('',(-0.041778022,-0.019586,0.01143));
#656=CARTESIAN_POINT('',(-0.041778022,-0.019586,-0.018828));
#657=CARTESIAN_POINT('',(-0.0364795895837908,-0.019586,-0.018828));
#658=CARTESIAN_POINT('',(-0.041778022,-0.019586,0.));
#659=CARTESIAN_POINT('',(-0.0364795895837908,-0.019586,0.));
#660=CARTESIAN_POINT('',(0.042721978,-0.019086,0.01143));
#661=CARTESIAN_POINT('',(0.042721978,-0.019086,0.));
#662=CARTESIAN_POINT('',(0.0472078,-0.016269563747614,0.));
#663=CARTESIAN_POINT('',(0.0472078,-0.016269563747614,0.01143));
#664=CARTESIAN_POINT('',(0.0472078,-0.016269563747614,-0.018828));
#665=CARTESIAN_POINT('',(0.042721978,-0.019086,-0.018828));
#666=CARTESIAN_POINT('',(0.042971978,0.022914,0.01143));
#667=CARTESIAN_POINT('',(0.042971978,0.022914,0.));
#668=CARTESIAN_POINT('',(0.0390891687020171,0.0265266097635031,0.));
#669=CARTESIAN_POINT('',(0.0472078,0.0197226101253253,0.));
#670=CARTESIAN_POINT('',(0.0390891687020171,0.0265266097635031,0.01143));
#671=CARTESIAN_POINT('',(0.0390891687020171,0.0265266097635031,-0.018828));
#672=CARTESIAN_POINT('',(0.042971978,0.022914,-0.018828));
#673=CARTESIAN_POINT('',(0.0472078,0.0197226101253253,-0.018828));
#674=CARTESIAN_POINT('',(0.0472078,0.0197226101253253,0.01143));
#675=CARTESIAN_POINT('',(-0.041778022,0.022414,0.01143));
#676=CARTESIAN_POINT('',(-0.041778022,0.022414,0.));
#677=CARTESIAN_POINT('',(-0.0451206673052118,0.0265266097635031,0.));
#678=CARTESIAN_POINT('',(-0.0384353766947882,0.0265266097635031,0.));
#679=CARTESIAN_POINT('',(-0.0451206673052118,0.0265266097635031,0.01143));
#680=CARTESIAN_POINT('',(-0.0451206673052118,0.0265266097635031,-0.018828));
#681=CARTESIAN_POINT('',(-0.041778022,0.022414,-0.018828));
#682=CARTESIAN_POINT('',(-0.0384353766947882,0.0265266097635031,-0.018828));
#683=CARTESIAN_POINT('',(-0.0384353766947882,0.0265266097635031,0.01143));
#684=CARTESIAN_POINT('',(-8.63665387630663E-6,-0.0260875638127327,0.01143));
#685=CARTESIAN_POINT('',(0.031256,-0.0260875638127327,0.01143));
#686=CARTESIAN_POINT('',(0.031256,-0.0260875638127327,-0.000384));
#687=CARTESIAN_POINT('',(0.031256,-0.0260875638127327,-0.018284));
#688=CARTESIAN_POINT('',(-8.63665387630663E-6,-0.0260875638127327,-0.000384));
#689=CARTESIAN_POINT('',(-0.031244,-0.0260875638127327,-0.000384));
#690=CARTESIAN_POINT('',(-0.031244,-0.0260875638127327,0.01143));
#691=CARTESIAN_POINT('',(-0.031244,-0.0260875638127327,-0.018284));
#692=CARTESIAN_POINT('',(-8.63665387630663E-6,-0.0260875638127327,-0.018284));
#693=CARTESIAN_POINT('',(-0.0472250733077526,-0.0260875638127327,0.01143));
#694=CARTESIAN_POINT('',(-0.0472250733077526,-0.0260875638127327,0.));
#695=CARTESIAN_POINT('',(-0.0472250733077526,-0.0260875638127327,-0.018828));
#696=CARTESIAN_POINT('',(-8.63665387630663E-6,-0.0260875638127327,0.));
#697=CARTESIAN_POINT('',(-8.63665387630663E-6,-0.0260875638127327,-0.018828));
#698=CARTESIAN_POINT('',(-0.0472250733077526,0.000219522975385189,0.01143));
#699=CARTESIAN_POINT('',(-0.0472250733077526,0.0265266097635031,0.01143));
#700=CARTESIAN_POINT('',(-0.0472250733077526,0.0265266097635031,0.));
#701=CARTESIAN_POINT('',(-0.0472250733077526,0.0265266097635031,-0.018828));
#702=CARTESIAN_POINT('',(-0.0472250733077526,0.000219522975385189,0.));
#703=CARTESIAN_POINT('',(-0.0472250733077526,0.000219522975385189,-0.018828));
#704=CARTESIAN_POINT('',(-8.63665387630663E-6,0.0265266097635031,0.01143));
#705=CARTESIAN_POINT('',(-8.63665387630663E-6,0.0265266097635031,0.));
#706=CARTESIAN_POINT('',(-8.63665387630663E-6,0.0265266097635031,-0.018828));
#707=CARTESIAN_POINT('',(-8.63665387630663E-6,0.0265266097635031,0.01143));
#708=CARTESIAN_POINT('',(-8.63665387630663E-6,0.0265266097635031,0.));
#709=CARTESIAN_POINT('',(-8.63665387630663E-6,0.0265266097635031,-0.018828));
#710=CARTESIAN_POINT('',(0.0472078,0.000219522975385203,0.01143));
#711=CARTESIAN_POINT('',(0.0472078,0.000219522975385203,0.));
#712=CARTESIAN_POINT('',(0.0472078,0.000219522975385203,-0.018828));
#713=CARTESIAN_POINT('',(-8.63665387630663E-6,0.000219522975385199,-0.018828));
#714=CARTESIAN_POINT('',(0.,0.,0.));
#715=CARTESIAN_POINT('',(-8.63665387630663E-6,0.0285266097635031,0.));
#716=CARTESIAN_POINT('',(-0.0492250733077526,0.0285266097635031,0.));
#717=CARTESIAN_POINT('',(0.0492078,0.0285266097635031,0.));
#718=CARTESIAN_POINT('',(-0.0492250733077526,0.000219522975385189,0.));
#719=CARTESIAN_POINT('',(-0.0492250733077526,-0.0280875638127327,0.));
#720=CARTESIAN_POINT('',(-8.63665387630663E-6,-0.0280875638127327,0.));
#721=CARTESIAN_POINT('',(0.0492078,-0.0280875638127327,0.));
#722=CARTESIAN_POINT('',(0.0492078,0.000219522975385203,0.));
#723=CARTESIAN_POINT('',(0.0472078,0.000219522975385203,0.));
#724=CARTESIAN_POINT('',(0.0472078,0.0265266097635031,0.));
#725=CARTESIAN_POINT('',(0.0472078,0.0261053898746747,0.));
#726=CARTESIAN_POINT('',(0.042971978,0.022914,0.));
#727=CARTESIAN_POINT('',(0.0468547872979829,0.0265266097635031,0.));
#728=CARTESIAN_POINT('',(-8.63665387630663E-6,0.0265266097635031,0.));
#729=CARTESIAN_POINT('',(0.,0.,0.));
#730=CARTESIAN_POINT('',(0.042971978,0.022914,0.01143));
#731=CARTESIAN_POINT('',(0.0472078,0.0261053898746747,0.01143));
#732=CARTESIAN_POINT('',(0.0472078,0.0261053898746747,-0.018828));
#733=CARTESIAN_POINT('',(0.042971978,0.022914,-0.018828));
#734=CARTESIAN_POINT('',(0.0468547872979829,0.0265266097635031,-0.018828));
#735=CARTESIAN_POINT('',(0.0468547872979829,0.0265266097635031,0.01143));
#736=CARTESIAN_POINT('',(0.0472078,0.000219522975385203,0.01143));
#737=CARTESIAN_POINT('',(0.0472078,0.0265266097635031,0.01143));
#738=CARTESIAN_POINT('',(0.0472078,0.0265266097635031,-0.018828));
#739=CARTESIAN_POINT('',(0.0472078,0.000219522975385203,-0.018828));
#740=CARTESIAN_POINT('',(-8.63665387630663E-6,0.0265266097635031,0.01143));
#741=CARTESIAN_POINT('',(-8.63665387630663E-6,0.0265266097635031,-0.018828));
#742=CARTESIAN_POINT('',(-8.63665387630663E-6,0.000219522975385199,-0.018828));
#743=CARTESIAN_POINT('',(-8.63665387630663E-6,0.000219522975385199,-0.020828));
#744=CARTESIAN_POINT('',(-8.63665387630663E-6,0.0285266097635031,-0.020828));
#745=CARTESIAN_POINT('',(-0.0492250733077526,0.0285266097635031,-0.020828));
#746=CARTESIAN_POINT('',(0.0492078,0.0285266097635031,-0.020828));
#747=CARTESIAN_POINT('',(0.0492078,0.000219522975385203,-0.020828));
#748=CARTESIAN_POINT('',(0.0492078,-0.0280875638127327,-0.020828));
#749=CARTESIAN_POINT('',(-8.63665387630663E-6,-0.0280875638127327,-0.020828));
#750=CARTESIAN_POINT('',(-0.0492250733077526,-0.0280875638127327,-0.020828));
#751=CARTESIAN_POINT('',(-0.0492250733077526,0.000219522975385189,-0.020828));
#752=CARTESIAN_POINT('',(0.0492078,0.000219522975385203,0.01143));
#753=CARTESIAN_POINT('',(0.0492078,0.0285266097635031,0.01143));
#754=CARTESIAN_POINT('',(0.0492078,-0.0280875638127327,0.01143));
#755=CARTESIAN_POINT('',(-8.63665387630663E-6,-0.0280875638127327,0.01143));
#756=CARTESIAN_POINT('',(-8.63665387630663E-6,-0.0280875638127327,-0.000384));
#757=CARTESIAN_POINT('',(0.031256,-0.0280875638127327,-0.000384));
#758=CARTESIAN_POINT('',(-0.031244,-0.0280875638127327,-0.000384));
#759=CARTESIAN_POINT('',(0.031256,-0.0280875638127327,0.01143));
#760=CARTESIAN_POINT('',(0.031256,-0.0280875638127327,-0.018284));
#761=CARTESIAN_POINT('',(-8.63665387630663E-6,-0.0280875638127327,-0.018284));
#762=CARTESIAN_POINT('',(-0.031244,-0.0280875638127327,-0.018284));
#763=CARTESIAN_POINT('',(-0.031244,-0.0280875638127327,0.01143));
#764=CARTESIAN_POINT('',(-0.0492250733077526,-0.0280875638127327,0.01143));
#765=CARTESIAN_POINT('',(-0.0492250733077526,0.000219522975385189,0.01143));
#766=CARTESIAN_POINT('',(-0.0492250733077526,0.0285266097635031,0.01143));
#767=CARTESIAN_POINT('',(-8.63665387630663E-6,0.0285266097635031,0.01143));
#768=CARTESIAN_POINT('',(0.031256,-0.119923365496221,-0.009334));
#769=CARTESIAN_POINT('',(0.031256,-0.119923365496221,-0.018284));
#770=CARTESIAN_POINT('',(0.031256,-0.119923365496221,-0.000384));
#771=CARTESIAN_POINT('',(6.000000000006E-6,-0.119923365496221,-0.000384));
#772=CARTESIAN_POINT('',(-0.031244,-0.119923365496221,-0.000384));
#773=CARTESIAN_POINT('',(-0.031244,-0.119923365496221,-0.009334));
#774=CARTESIAN_POINT('',(-0.031244,-0.119923365496221,-0.018284));
#775=CARTESIAN_POINT('',(5.99999999999906E-6,-0.119923365496221,-0.018284));
#776=MECHANICAL_DESIGN_GEOMETRIC_PRESENTATION_REPRESENTATION('',(#471),
#777);
#777=(
GEOMETRIC_REPRESENTATION_CONTEXT(3)
GLOBAL_UNCERTAINTY_ASSIGNED_CONTEXT((#778))
GLOBAL_UNIT_ASSIGNED_CONTEXT((#781,#780,#779))
REPRESENTATION_CONTEXT('Bottom Case','TOP_LEVEL_ASSEMBLY_PART')
);
#778=UNCERTAINTY_MEASURE_WITH_UNIT(LENGTH_MEASURE(1.E-8),#781,
'DISTANCE_ACCURACY_VALUE','Maximum Tolerance applied to model');
#779=(
NAMED_UNIT(*)
SI_UNIT($,.STERADIAN.)
SOLID_ANGLE_UNIT()
);
#780=(
NAMED_UNIT(*)
PLANE_ANGLE_UNIT()
SI_UNIT($,.RADIAN.)
);
#781=(
LENGTH_UNIT()
NAMED_UNIT(*)
SI_UNIT($,.METRE.)
);
#782=PRODUCT_DEFINITION_SHAPE('','',#783);
#783=PRODUCT_DEFINITION('','',#785,#784);
#784=PRODUCT_DEFINITION_CONTEXT('',#791,'design');
#785=PRODUCT_DEFINITION_FORMATION_WITH_SPECIFIED_SOURCE('','',#787,
 .NOT_KNOWN.);
#786=PRODUCT_RELATED_PRODUCT_CATEGORY('','',(#787));
#787=PRODUCT('Bottom Case','Bottom Case','Bottom Case',(#789));
#788=PRODUCT_CATEGORY('','');
#789=PRODUCT_CONTEXT('',#791,'mechanical');
#790=APPLICATION_PROTOCOL_DEFINITION('international standard',
'ap242_managed_model_based_3d_engineering',2020,#791);
#791=APPLICATION_CONTEXT('managed model based 3d engineering');
ENDSEC;
END-ISO-10303-21;
