%TF.GenerationSoftware,KiCad,Pcbnew,10.0.4-10.0.4~ubuntu24.04.1*%
%TF.CreationDate,2026-09-01T01:21:16+06:00*%
%TF.ProjectId,ImtClock,496d7443-6c6f-4636-9b2e-6b696361645f,rev?*%
%TF.SameCoordinates,Original*%
%TF.FileFunction,Legend,Bot*%
%TF.FilePolarity,Positive*%
%FSLAX46Y46*%
G04 Gerber Fmt 4.6, Leading zero omitted, Abs format (unit mm)*
G04 Created by KiCad (PCBNEW 10.0.4-10.0.4~ubuntu24.04.1) date 2026-09-01 01:21:16*
%MOMM*%
%LPD*%
G01*
G04 APERTURE LIST*
%ADD10C,0.150000*%
%ADD11C,0.101600*%
%ADD12C,0.120000*%
%ADD13C,0.127000*%
%ADD14C,0.100000*%
%ADD15C,0.504000*%
G04 APERTURE END LIST*
D10*
X174766952Y-56560009D02*
X174624095Y-56607628D01*
X174624095Y-56607628D02*
X174576476Y-56655247D01*
X174576476Y-56655247D02*
X174528857Y-56750485D01*
X174528857Y-56750485D02*
X174528857Y-56893342D01*
X174528857Y-56893342D02*
X174576476Y-56988580D01*
X174576476Y-56988580D02*
X174624095Y-57036200D01*
X174624095Y-57036200D02*
X174719333Y-57083819D01*
X174719333Y-57083819D02*
X175100285Y-57083819D01*
X175100285Y-57083819D02*
X175100285Y-56083819D01*
X175100285Y-56083819D02*
X174766952Y-56083819D01*
X174766952Y-56083819D02*
X174671714Y-56131438D01*
X174671714Y-56131438D02*
X174624095Y-56179057D01*
X174624095Y-56179057D02*
X174576476Y-56274295D01*
X174576476Y-56274295D02*
X174576476Y-56369533D01*
X174576476Y-56369533D02*
X174624095Y-56464771D01*
X174624095Y-56464771D02*
X174671714Y-56512390D01*
X174671714Y-56512390D02*
X174766952Y-56560009D01*
X174766952Y-56560009D02*
X175100285Y-56560009D01*
X174195523Y-56083819D02*
X173528857Y-56083819D01*
X173528857Y-56083819D02*
X174195523Y-57083819D01*
X174195523Y-57083819D02*
X173528857Y-57083819D01*
X172624095Y-57083819D02*
X173195523Y-57083819D01*
X172909809Y-57083819D02*
X172909809Y-56083819D01*
X172909809Y-56083819D02*
X173005047Y-56226676D01*
X173005047Y-56226676D02*
X173100285Y-56321914D01*
X173100285Y-56321914D02*
X173195523Y-56369533D01*
X160190951Y-69533866D02*
X159429047Y-69533866D01*
X159809999Y-69914819D02*
X159809999Y-69152914D01*
X112724819Y-77666666D02*
X113439104Y-77666666D01*
X113439104Y-77666666D02*
X113581961Y-77619047D01*
X113581961Y-77619047D02*
X113677200Y-77523809D01*
X113677200Y-77523809D02*
X113724819Y-77380952D01*
X113724819Y-77380952D02*
X113724819Y-77285714D01*
X113724819Y-78666666D02*
X113724819Y-78095238D01*
X113724819Y-78380952D02*
X112724819Y-78380952D01*
X112724819Y-78380952D02*
X112867676Y-78285714D01*
X112867676Y-78285714D02*
X112962914Y-78190476D01*
X112962914Y-78190476D02*
X113010533Y-78095238D01*
D11*
X139121520Y-72718809D02*
X138607473Y-72718809D01*
X138607473Y-72718809D02*
X138546997Y-72688571D01*
X138546997Y-72688571D02*
X138516759Y-72658333D01*
X138516759Y-72658333D02*
X138486520Y-72597857D01*
X138486520Y-72597857D02*
X138486520Y-72476904D01*
X138486520Y-72476904D02*
X138516759Y-72416428D01*
X138516759Y-72416428D02*
X138546997Y-72386190D01*
X138546997Y-72386190D02*
X138607473Y-72355952D01*
X138607473Y-72355952D02*
X139121520Y-72355952D01*
X138486520Y-71720952D02*
X138486520Y-72083809D01*
X138486520Y-71902381D02*
X139121520Y-71902381D01*
X139121520Y-71902381D02*
X139030806Y-71962857D01*
X139030806Y-71962857D02*
X138970330Y-72023333D01*
X138970330Y-72023333D02*
X138940092Y-72083809D01*
%TO.C,BZ1*%
D12*
X162100000Y-72000000D02*
G75*
G02*
X149900000Y-72000000I-6100000J0D01*
G01*
X149900000Y-72000000D02*
G75*
G02*
X162100000Y-72000000I6100000J0D01*
G01*
%TO.C,J1*%
X109230000Y-76670000D02*
X91390000Y-76670000D01*
X111830000Y-76670000D02*
X110500000Y-76670000D01*
X111830000Y-78000000D02*
X111830000Y-76670000D01*
X91390000Y-79330000D02*
X91390000Y-76670000D01*
X109230000Y-79330000D02*
X109230000Y-76670000D01*
X109230000Y-79330000D02*
X91390000Y-79330000D01*
%TO.C,U1*%
D13*
X135485000Y-82374000D02*
X121515000Y-82374000D01*
X137390000Y-80469000D02*
X137390000Y-63324000D01*
X119610000Y-80469000D02*
X119610000Y-63324000D01*
X132995000Y-61419000D02*
X132991272Y-60408728D01*
D14*
X121515000Y-61419000D02*
X135485000Y-61419000D01*
D13*
X121515000Y-61419000D02*
X135485000Y-61419000D01*
X123996000Y-60409000D02*
X123996000Y-61419000D01*
X132491272Y-59909000D02*
X124496000Y-59909000D01*
X137390000Y-80469000D02*
G75*
G02*
X135485000Y-82374000I-1905001J1D01*
G01*
X121515000Y-82374000D02*
G75*
G02*
X119610000Y-80469000I1J1905001D01*
G01*
X135485000Y-61419000D02*
G75*
G02*
X137390000Y-63324000I0J-1905000D01*
G01*
X119610000Y-63324000D02*
G75*
G02*
X121515000Y-61419000I1905000J0D01*
G01*
X132491272Y-59909000D02*
G75*
G02*
X132991300Y-60408728I28J-500000D01*
G01*
X123996000Y-60409000D02*
G75*
G02*
X124496000Y-59909000I500000J0D01*
G01*
D15*
X136609000Y-62590000D02*
G75*
G02*
X136105000Y-62590000I-252000J0D01*
G01*
X136105000Y-62590000D02*
G75*
G02*
X136609000Y-62590000I252000J0D01*
G01*
X137752000Y-61710000D02*
G75*
G02*
X137248000Y-61710000I-252000J0D01*
G01*
X137248000Y-61710000D02*
G75*
G02*
X137752000Y-61710000I252000J0D01*
G01*
%TD*%
M02*
