M48
; DRILL file KiCad 10.0.4-10.0.4~ubuntu24.04.1 date 2026-09-01T01:20:56
; FORMAT={-:-/ absolute / metric / decimal}
; #@! TF.CreationDate,2026-09-01T01:20:56+06:00
; #@! TF.GenerationSoftware,Kicad,Pcbnew,10.0.4-10.0.4~ubuntu24.04.1
; #@! TF.FileFunction,Plated,1,2,PTH
FMAT,2
METRIC
; #@! TA.AperFunction,Plated,PTH,ComponentDrill
T1C0.889
; #@! TA.AperFunction,Plated,PTH,ComponentDrill
T2C1.000
; #@! TA.AperFunction,Plated,PTH,ComponentDrill
T3C1.500
%
G90
G05
T1
X120.88Y-64.34
X120.88Y-66.88
X120.88Y-69.42
X120.88Y-71.96
X120.88Y-74.5
X120.88Y-77.04
X120.88Y-79.58
X136.12Y-64.34
X136.12Y-66.88
X136.12Y-69.42
X136.12Y-71.96
X136.12Y-74.5
X136.12Y-77.04
X136.12Y-79.58
T2
X92.72Y-78.0
X95.26Y-78.0
X97.8Y-78.0
X100.34Y-78.0
X102.88Y-78.0
X105.42Y-78.0
X107.96Y-78.0
X110.5Y-78.0
X152.2Y-72.0
X159.8Y-72.0
T3
X96.19Y-89.46
X102.54Y-86.92
X115.19Y-89.46
X121.54Y-86.92
X134.19Y-89.5
X140.54Y-86.96
X153.19Y-89.46
X159.54Y-86.92
M30
