%TF.GenerationSoftware,KiCad,Pcbnew,10.0.4-10.0.4~ubuntu24.04.1*%
%TF.CreationDate,2026-09-01T01:21:19+06:00*%
%TF.ProjectId,ImtClock,496d7443-6c6f-4636-9b2e-6b696361645f,rev?*%
%TF.SameCoordinates,Original*%
%TF.FileFunction,Soldermask,Top*%
%TF.FilePolarity,Negative*%
%FSLAX46Y46*%
G04 Gerber Fmt 4.6, Leading zero omitted, Abs format (unit mm)*
G04 Created by KiCad (PCBNEW 10.0.4-10.0.4~ubuntu24.04.1) date 2026-09-01 01:21:19*
%MOMM*%
%LPD*%
G01*
G04 APERTURE LIST*
%ADD10C,3.200000*%
%ADD11R,2.000000X2.000000*%
%ADD12C,2.000000*%
%ADD13C,1.700000*%
%ADD14R,1.700000X1.700000*%
%ADD15C,2.200000*%
%ADD16C,4.000000*%
%ADD17C,1.524000*%
G04 APERTURE END LIST*
D10*
%TO.C,H3*%
X170000000Y-61500000D03*
%TD*%
D11*
%TO.C,BZ1*%
X159800000Y-72000000D03*
D12*
X152200000Y-72000000D03*
%TD*%
D13*
%TO.C,J1*%
X92720000Y-78000000D03*
X95260000Y-78000000D03*
X97800000Y-78000000D03*
X100340000Y-78000000D03*
X102880000Y-78000000D03*
X105420000Y-78000000D03*
X107960000Y-78000000D03*
D14*
X110500000Y-78000000D03*
%TD*%
D10*
%TO.C,H1*%
X87500000Y-61500000D03*
%TD*%
%TO.C,H2*%
X87500000Y-103500000D03*
%TD*%
D15*
%TO.C,SW1*%
X96190000Y-89460000D03*
X102540000Y-86920000D03*
D13*
X105080000Y-92000000D03*
D16*
X100000000Y-92000000D03*
D13*
X94920000Y-92000000D03*
%TD*%
D15*
%TO.C,SW2*%
X115190000Y-89460000D03*
X121540000Y-86920000D03*
D13*
X124080000Y-92000000D03*
D16*
X119000000Y-92000000D03*
D13*
X113920000Y-92000000D03*
%TD*%
D15*
%TO.C,SW3*%
X134190000Y-89500000D03*
X140540000Y-86960000D03*
D13*
X143080000Y-92040000D03*
D16*
X138000000Y-92040000D03*
D13*
X132920000Y-92040000D03*
%TD*%
D15*
%TO.C,SW4*%
X153190000Y-89460000D03*
X159540000Y-86920000D03*
D13*
X162080000Y-92000000D03*
D16*
X157000000Y-92000000D03*
D13*
X151920000Y-92000000D03*
%TD*%
D10*
%TO.C,H4*%
X169500000Y-103500000D03*
%TD*%
D17*
%TO.C,U1*%
X136120000Y-64340000D03*
X136120000Y-66880000D03*
X136120000Y-69420000D03*
X136120000Y-71960000D03*
X136120000Y-74500000D03*
X136120000Y-77040000D03*
X136120000Y-79580000D03*
X120880000Y-79580000D03*
X120880000Y-77040000D03*
X120880000Y-74500000D03*
X120880000Y-71960000D03*
X120880000Y-69420000D03*
X120880000Y-66880000D03*
X120880000Y-64340000D03*
%TD*%
M02*
